<?xml version="1.0" encoding="utf-8"?>
<!-- Generator: Adobe Illustrator 26.0.1, SVG Export Plug-In . SVG Version: 6.00 Build 0)  -->
<svg version="1.1"
	 id="svg15149" inkscape:version="0.92.2 5c3e80d, 2017-08-06" sodipodi:docname="grass.svg" xmlns:cc="http://creativecommons.org/ns#" xmlns:dc="http://purl.org/dc/elements/1.1/" xmlns:inkscape="http://www.inkscape.org/namespaces/inkscape" xmlns:rdf="http://www.w3.org/1999/02/22-rdf-syntax-ns#" xmlns:sodipodi="http://sodipodi.sourceforge.net/DTD/sodipodi-0.dtd" xmlns:svg="http://www.w3.org/2000/svg"
	 xmlns="http://www.w3.org/2000/svg" xmlns:xlink="http://www.w3.org/1999/xlink" x="0px" y="0px" viewBox="0 0 350.4 64.5"
	 style="enable-background:new 0 0 350.4 64.5;" xml:space="preserve">
<style type="text/css">
	.st0{fill:#B0E1B8;}
</style>
<sodipodi:namedview  bordercolor="#666666" borderlayer="true" borderopacity="1.0" fit-margin-bottom="0" fit-margin-left="-1.6" fit-margin-right="0" fit-margin-top="0" id="base" inkscape:current-layer="layer3" inkscape:cx="187.08701" inkscape:cy="-33.092869" inkscape:document-units="mm" inkscape:pageopacity="0.0" inkscape:pageshadow="2" inkscape:window-height="878" inkscape:window-maximized="0" inkscape:window-width="1440" inkscape:window-x="1" inkscape:window-y="0" inkscape:zoom="0.98994949" pagecolor="#ffffff" showgrid="false">
	</sodipodi:namedview>
<g id="layer3" transform="translate(-30.597304,-164.67643)" inkscape:groupmode="layer" inkscape:label="grass">
	<path id="rect15742" inkscape:connector-curvature="0" class="st0" d="M121.5,166.2C121.5,166.2,121.5,166.2,121.5,166.2
		L121.5,166.2L121.5,166.2z M121.5,166.2l3.1,25.3c-0.1,0-0.1-0.1-0.2-0.1l0.2,0.4l0.4,3.6c-0.1,0.2-0.1,0.5-0.2,0.7h-1.4l-2.2-1.7
		l1.3-2.4c-0.9,0-1.8,0.1-2.6,0.4c-0.2,0.1-0.4,0.2-0.6,0.3l-0.4-0.6l2.6-7.8c-1,0-2.1,0.2-2.9,0.8c-1.4,1.2-1.5,3-1.5,4.8l-1.4-1.7
		c0,0.3,0.2,0.6,0.3,0.9c0.3,0.8,0.7,1.5,1.1,2.2c0,0,0,0,0,0c0,0.3-0.1,0.5-0.1,0.7c0,0,0,0,0,0c-0.6,0.1-1.2,0.1-1.7,0.2
		c-0.2-0.7-0.4-1.3-0.6-1.9c-0.5-1.4-1.2-2.7-2.1-3.8l3.5-10.4c-0.5,0.5-1,1.2-1.5,1.8c-1.9,2.8-3.1,5.9-4.1,9.1
		c-0.7,2.2-1.3,4.4-1.8,6.7c-0.4,0.1-0.8,0.3-1.2,0.4l-0.2-0.2c-0.2-0.8-0.3-1.6-0.5-2.4c-0.8-3.3-1.8-6.6-3.5-9.6l0.7-2.4
		c-0.6,0.3-1.1,0.7-1.5,1.1c-0.9-1.3-2-2.5-3.4-3.3l1.6,5.4c-0.1,0.1-0.1,0.2-0.2,0.3c-1.8,2.7-2.9,5.8-3.7,9
		c-0.8,0-1.5,0.1-2.2,0.3c-0.5-2.5-1.2-5-2-7.5c-0.2-0.5-0.4-1-0.5-1.6c0-0.1,0.1-0.1,0.1-0.2c0.1-0.3,0.3-0.6,0.3-0.9l-0.6,0.7
		c-0.9-2.5-1.9-5-3.5-7.2c-0.4-0.6-0.9-1.2-1.5-1.8l3.6,10.7l-6.4,8.1c-0.3-0.2-0.6-0.4-1-0.6c-0.1,0-0.2-0.1-0.3-0.1l0.9,1.2
		l-1.1,1.4c-0.3-0.5-0.7-1.1-1.1-1.6c-0.8-1.1-1.7-2.1-2.8-2.9l2.7-21.8c-2.1,4.2-3.4,8.8-4.3,13.5c-0.3,1.9-0.6,3.8-0.8,5.7
		c-0.1,0.3-0.3,0.7-0.4,1c-0.4-0.2-0.8-0.3-1.3-0.4c-0.5-0.5-1.1-1-1.7-1.4c-3.7-2.7-8-4.3-12.5-4.8c-0.5-0.1-0.9-0.1-1.4-0.1
		l3.2,2.3l11.8,8.6c-0.3,0.2-0.7,0.4-1,0.6c-0.8-0.5-1.6-1-2.5-1.2l1.1,2.3c-0.5,0.5-1,1.1-1.5,1.7h-4.1c-0.2-0.3-0.5-0.7-0.7-1
		l1.7-2.4c0.1-0.1,0.2-0.2,0.3-0.3l0.1-0.2l1.3-1.7c-2.2,0.1-4.2,0.9-5.9,2.1c-0.3-0.2-0.5-0.4-0.8-0.5l0.2,0.3l0.3,0.5
		c-0.7,0.5-1.3,1.1-1.9,1.7c-0.1-0.4-0.2-0.8-0.2-1.1c-0.7-3.2-1.6-6.6-3.9-9.1l1.7,11.7h-0.4c-0.5-0.5-1.1-1-1.7-1.4l0.5-2.6
		c-0.5,0.6-1,1.3-1.5,2c-0.3-0.2-0.7-0.4-1-0.5c-0.5-2.6-1.3-5.1-2.2-7.6l0.2-0.7c-0.2,0-0.3,0-0.5,0c-0.4-1-0.9-2.1-1.4-3.1
		l0.4,3.2c-0.5,0.1-1,0.3-1.4,0.7c-1.7,1.4-1.5,3.9-1.5,6c0,0,0,0,0,0l0,0v0.2c0,1.4-1.1,1.4-1.9,1.8c-0.7-0.3-1.5-0.5-2.2-0.7
		c-0.1-0.3-0.1-0.6-0.2-0.9l0.5-0.4c-0.2,0-0.4,0-0.6,0c-0.4-1.7-0.9-3.4-1.4-5c-1-3.2-2.2-6.4-4.1-9.1c-0.4-0.6-0.9-1.2-1.5-1.8
		l5.4,16.1c-0.6,0.1-1.2,0.2-1.7,0.4c-1.2-0.2-2.5-0.4-3.8-0.5c-0.1,0-0.2,0-0.4,0c-0.5-1.1-1.1-2.1-1.8-3.1l0.8-1.4
		c-0.6,0-1.2,0-1.8,0.1c0,0-0.1-0.1-0.1-0.1l0,0.2c-0.2,0-0.4,0.1-0.6,0.1c0,0-0.1,0-0.1,0l-3.1-3.9c0,0.3,0.2,0.6,0.3,0.9
		c0.5,1.3,1.2,2.5,1.8,3.6c-0.6,0.5-0.9,1.2-0.9,2c0,0.8,0.4,2.3-1,2.2c-0.4,0-0.8,0-1.2,0.2v6.3v0.9v1.6v28.9h354.9v-15.6v-1.4
		v-7.2v-11.7c-0.6-1.3-1.4-2.5-2.5-3.4l2.5-1.8v-4c-2.1,0.8-4.2,1.9-6,3.2c-1.1,0.8-2.1,1.8-2.9,2.9c0-0.7-0.1-1.3-0.1-2l1.2-0.9
		c-0.4,0.2-0.8,0.4-1.3,0.5c-0.2-3.2-0.5-6.5-1.1-9.7c-0.8-4.7-2.1-9.3-4.3-13.5l2.5,20.7l0,0.1c-0.9,0.9-1.5,2-2,3.1
		c0.2-3.2,0-6.4-0.3-9.6l-2.5,12.1l-3.4-4.3c0,0.3,0.2,0.6,0.3,0.9c0.7,1.7,1.6,3.3,2.5,4.8c-0.8,0.6-1.6,1.2-2.3,1.8
		c0-0.5,0-0.9,0-1.4c0-0.5-0.1-1.1-0.5-1.4c-0.1-0.1-0.3-0.1-0.4-0.1c0.3,1.1,0.5,2.1,0.6,3.2c0,0,0,0-0.1,0.1h-0.7
		c-0.1-1-0.3-2.1-0.5-3.1c0.2-0.1,0.4-0.2,0.7-0.1c-0.2-0.8-0.5-1.6-0.8-2.4c-0.3-0.6-0.5-1.3-0.9-1.9c-0.3-1.1-0.6-2.1-0.9-3.1
		l3.1-9.2c-0.5,0.5-1,1.2-1.5,1.8c-1,1.5-1.8,3.1-2.5,4.7c-0.9-2.6-2-5.1-3.5-7.3c-0.4-0.6-0.9-1.2-1.5-1.8l3.9,11.8
		c-0.2,0.6-0.4,1.1-0.6,1.7c-1,3-1.7,6-2.2,9H355c-0.2-1.3-0.5-2.6-0.8-3.9c0.3-1.8,0.4-3.7,0.3-5.5l-1.1,2.3
		c-0.7-2.4-1.6-4.8-2.8-7l0.7-2.4c-0.6,0.3-1.1,0.7-1.5,1.1c-0.9-1.3-2-2.5-3.4-3.3l1.6,5.4c-0.1,0.1-0.1,0.2-0.2,0.3
		c-2,3.1-3.2,6.7-4.1,10.2l-3.3-6.6c-0.2-0.6-0.4-1.3-0.6-1.9c-0.2-0.5-0.4-1-0.5-1.6c0-0.1,0.1-0.1,0.1-0.2
		c0.1-0.3,0.3-0.6,0.3-0.9l-0.6,0.7c-0.9-2.5-1.9-5-3.5-7.2c-0.4-0.6-0.9-1.2-1.5-1.8l3.6,10.7l-3.2,4.1c-0.1-0.5-0.2-1-0.5-1.5
		l-0.4,0.7c-0.8-4.1-2.1-8.1-3.9-11.8l1.9,15.5l-1.5,2.7l-0.2,0.3c-0.3-0.5-0.7-1.1-1.1-1.6c-0.8-1.1-1.7-2.1-2.8-2.9l2.7-21.8
		c-2.1,4.2-3.4,8.8-4.3,13.5c-0.3,1.9-0.6,3.8-0.8,5.7c-0.1,0.3-0.3,0.7-0.4,1c-0.4-0.2-0.8-0.3-1.3-0.4c-0.5-0.5-1.1-1-1.7-1.4
		c-3.7-2.7-8-4.3-12.5-4.8c-0.5-0.1-0.9-0.1-1.4-0.1l3.2,2.3l11.8,8.6c-0.4,0.2-0.8,0.5-1.2,0.8c-1,0.8-1.9,1.7-2.6,2.7H315L314,194
		c-0.3,0.1-0.6,0.3-0.9,0.2c0.6-0.6,1.1-1.2,1.6-1.9l0.1-0.3l-1.3,1l0.8-1c-0.1,0-0.2,0.1-0.3,0.1c-0.4,0.2-0.8,0.4-1.2,0.7
		c-0.3-1.5-0.4-3-0.5-4.5c0,0,0,0.1,0,0.1c0,1.4-0.2,2.8-0.1,4.2c0,0.2,0,0.4,0.1,0.7c-0.2,0.2-0.4,0.4-0.6,0.6
		c-0.4-0.4-0.9-0.9-1.4-1.2c-0.3-0.2-0.6-0.4-0.9-0.6l0.2,0.3l1.4,2.5c-0.1,0.1-0.1,0.2-0.2,0.3c0,0.1-0.1,0.1-0.1,0.2l-1.1,0.8h-2
		c-0.6-1.2-1.3-2.3-2.1-3.3l-3.3-16.4c-0.4,5.2-0.6,10.5,0.5,15.6c0,0.1,0,0.1,0,0.2c-3.2-2.5-6.5-4.8-10.2-6.5
		c0-0.8-0.2-1.6-0.6-2.4l-1,1.8c-0.2-0.1-0.3-0.1-0.5-0.2l0.4,0.3l-2.6,4.7l-0.7,1.3c-3.1-2.4-6.5-4.5-10.1-6l0.4-0.3
		c-0.2,0.1-0.4,0.2-0.5,0.2c-0.2-0.1-0.4-0.2-0.5-0.2l0.4,0.3c-2.3,0.9-4.4,2.1-6.5,3.4l-2.9-5.3c-1.1,2.1-0.5,4.6,0.4,6.8
		c0,0.1,0.1,0.1,0.1,0.2c-1,0.7-2,1.5-3,2.3c-0.2,0.1-0.5,0.1-0.7,0.2l-0.3-1.2c0,0.4-0.1,0.9-0.1,1.3c-0.1,0-0.3,0.1-0.4,0.1
		c-0.2-0.3-0.4-0.5-0.6-0.8l0.2,0.9c-0.7,0.2-1.3,0.5-1.9,0.9l-0.7-1.2c0.3-0.3,0.5-0.6,0.8-0.9l0.1-0.3l-1.1,0.8l-0.5-0.8
		c-0.1,0.3-0.3,0.6-0.3,0.9c-0.1-0.1-0.1-0.2-0.2-0.2l0.1,0.5c0,0.1-0.1,0.2-0.1,0.4l-1.5,1.1l0.4-2c-0.6,0.7-1.1,1.5-1.6,2.2
		l-0.1,0l-0.9-0.4l-0.5-2l-4.4-18.6c-0.5,5.2-0.6,10.6,1,15.6c0.4,1.2,0.9,2.4,1.5,3.5c-0.1,0.1-0.3,0.2-0.4,0.3
		c-0.2,0.1-0.3,0.2-0.4,0.4c-1-0.3-2-0.6-3.1-0.8c-0.1,0-0.1-0.1-0.2-0.1c-0.1,0-0.2-0.1-0.3-0.1l0.1,0.1c-0.2,0-0.4-0.1-0.7-0.1
		l0,0v0c-0.2,0-0.5-0.1-0.7-0.1c0-0.2,0.1-0.4,0.1-0.5l-0.9,0.4c-0.9-0.1-1.8-0.2-2.6-0.3c-0.6-0.1-1.3-0.1-1.9-0.1l0.1,0.1l2.6,1.1
		l-1.9,0.8c0,0,0,0,0,0c-0.2-0.1-0.3-0.2-0.5-0.3c-0.3-0.6-0.7-1-1.3-1.3c-0.8-0.3-1.8-0.4-2.6-0.4l1.4,2.4
		c-0.2-0.1-0.3-0.3-0.5-0.4c-0.4-0.3-0.9-0.6-1.4-0.9c-0.2-0.6-0.3-1.2-0.6-1.8l4.9-10c-1.2,0.4-2.3,1.1-3.3,1.9
		c-1.4,1.2-2.4,2.7-3.3,4.2c-0.9-1.6-1.9-3.1-3.3-4.2c-1-0.8-2.1-1.5-3.3-1.9l4.9,10c-0.1,0.3-0.2,0.5-0.2,0.8
		c-0.4,0.1-0.8,0.2-1.2,0.3c-1.4,0.5-1.8,2.1-1.7,3.4c0,0.4,0,0.7-0.2,0.9h-4.5c0-0.8-0.1-1.5-0.2-2.3l5.6-2.4c-0.7,0-1.3,0-1.9,0.1
		c-1.3,0.1-2.6,0.3-3.9,0.5c-0.1-0.4-0.1-0.8-0.2-1.3c-0.8-3.6-2.3-7.2-4.7-10l2.4,11.8c-1.1,0.3-2.1,0.6-3.2,0.9l-2.5-1.9l2.2-10.9
		c-2.4,2.9-4,6.4-4.7,10c-0.4,1.8-0.6,3.6-0.7,5.4h-1.3l3.1-15.4c-2.4,2.9-4,6.4-4.7,10c-0.2,1-0.4,2-0.5,2.9
		c-0.5-0.8-1-1.6-1.6-2.3l0.6,3.1c-0.8,0.1-1.9,0.2-1.8-1c0-0.8-0.2-1.9-1.2-1.8c-2.1,0.2-3.7-2.1-5.7-2.9c-1.5-0.6-3.2-1.1-4.8-1
		c0-1.4-0.2-2.9-0.6-4.3l-3.9,11.8c-0.4-0.6-0.9-1.1-1.4-1.6l1.1-2.3c-0.9,0.3-1.7,0.7-2.5,1.2c-0.4-0.3-0.9-0.6-1.4-0.8l0.2-0.4
		c-0.2,0.1-0.4,0.1-0.6,0.2c-0.2-0.1-0.4-0.2-0.6-0.2l0.2,0.4c-0.2,0.1-0.5,0.2-0.7,0.4c-0.2-0.1-0.4-0.3-0.6-0.4l0.4,0.5
		c-0.2,0.1-0.3,0.2-0.5,0.3c-0.3-0.2-0.5-0.3-0.8-0.5l1.9-4.3c-0.3,0.2-0.6,0.4-0.8,0.6c-0.9,0.9-1.6,2-2.2,3.1
		c-0.2-0.1-0.4-0.2-0.6-0.2l0.4,0.7c-0.1,0.3-0.3,0.6-0.4,0.9c-0.3,0.8-0.6,1.6-0.8,2.4c0.1,0,0.3,0,0.4,0c-0.2,0.2-0.3,0.4-0.4,0.6
		h-0.1c0.1-0.2,0.1-0.4,0.2-0.7c-0.1,0-0.2,0-0.3,0.1l-2.5-12.5c-0.2,2.8-0.4,5.6-0.3,8.5c0,0,0,0,0,0c-0.5,0.2-1,0.5-1.4,0.9
		l-1.9-13.2c-0.2,4.3-0.4,8.6-0.3,12.8c0,0,0,0,0,0c-0.3-0.2-0.6-0.4-0.9-0.6l1,1.8c0,0.5,0,1.1,0.1,1.6l-0.6,0.5l-3.3-10
		c-0.5,1.7-0.6,3.4-0.6,5.1c-0.4-0.6-0.9-1.2-1.4-1.7c1.2-1.9,2.3-3.9,3.2-6c0.1-0.3,0.3-0.6,0.3-0.9l-4.7,5.9
		c-0.2-0.2-0.4-0.4-0.7-0.5c-3.7-2.7-8-4.3-12.5-4.8c-0.5-0.1-0.9-0.1-1.4-0.1l0.1,0.1l11.9,8.6l-0.6,0.8l0.1-0.3
		c-0.2,0.3-0.4,0.5-0.6,0.8c-1.5-0.5-3-0.8-4.6-0.8l0.9,0.7c-0.1,0-0.1-0.1-0.2-0.1l0.4,0.3c-0.7,0.4-1.4,0.9-1.9,1.5
		c-0.5-0.2-0.9-0.3-1.4-0.5c0.9-1.5,1.5-3.2,1.5-5l-4.3,3.1c-0.2,0-0.3,0-0.5,0.1c-0.1-1.3-0.4-2.5-1.4-3.3
		c-0.8-0.7-1.9-0.8-2.9-0.8l1.5,4.5c-1-0.2-2.1-0.3-3.1-0.4c-0.6-0.1-1.3-0.1-1.9-0.1l1.6,0.7l-1,0.8l-0.5-0.8
		c-0.2,0.5-0.4,1-0.5,1.5c-0.4-0.6-0.9-1.1-1.5-1.6l0.5-1.5l1.6-4.8c-1,0-2.1,0.2-2.9,0.8c-1.8,1.5-1.4,4.1-1.5,6.2
		c0,1.1-0.7,1.4-1.3,1.6c-0.6-0.2-1.1-0.4-1.7-0.6c-0.2-0.3-0.4-0.6-0.6-0.9l0.8-1.4c-0.6,0-1.2,0-1.8,0.2c0-0.1-0.1-0.1-0.1-0.2
		l0,0.2c-0.3,0.1-0.5,0.1-0.8,0.2c-0.5,0.2-0.9,0.6-1.2,1c-0.4-0.1-0.9-0.2-1.3-0.2c0-0.2,0.1-0.4,0.1-0.5l-0.9,0.4
		c-0.6-0.1-1.2-0.2-1.8-0.2l11.4-8.3c-0.5,0-0.9,0-1.4,0.1c-4.5,0.5-8.9,2.2-12.5,4.8c0,0-0.1,0.1-0.1,0.1l-0.2-0.3
		c0,0.1,0.1,0.2,0.1,0.4c-1,0.8-1.9,1.7-2.7,2.7c-0.1-4-0.5-8.1-1.2-12.1C124.9,175,123.6,170.4,121.5,166.2L121.5,166.2z
		 M312.3,188.4c0-0.8,0-2.9,0-2.2C312.3,186.9,312.3,187.6,312.3,188.4z M277.3,185.2l5.7,4.4l3.7,2.8l-0.1,0.1
		c-0.7-0.1-1.4-0.2-2.1-0.3c-0.1-0.3-0.2-0.6-0.3-0.9l-0.4,0.8c-0.1,0-0.2,0-0.2,0c-0.6-0.1-1.2-0.1-1.8-0.1l0,0c0,0-0.1,0-0.1,0
		c0,0-0.1,0-0.1,0l0,0c-0.6,0-1.2,0-1.8,0.1c-1.1,0.1-2.1,0.2-3.2,0.4c-0.3-0.1-0.5-0.2-0.8-0.4v0c-0.4-0.2-0.7-0.3-1.1-0.5l0.2-0.3
		c-0.1,0-0.2,0.1-0.3,0.1c-0.1,0-0.1,0.1-0.2,0.1c-0.2-0.1-0.3-0.1-0.5-0.2l0.4,0.3c-0.5,0.3-1,0.6-1.5,1.1l-1.7-3L277.3,185.2z
		 M90.7,185.7l0.7,2c-0.2,0.1-0.3,0.2-0.4,0.4c-1.3,1.2-2.1,2.9-2.8,4.5c-0.1,0.1-0.1,0.3-0.1,0.4c-0.2-0.2-0.4-0.3-0.6-0.4l0.3-0.5
		c-0.2,0.1-0.3,0.2-0.5,0.4c-0.1-0.1-0.3-0.2-0.4-0.2C88.1,190.1,89.5,188,90.7,185.7L90.7,185.7z M338.1,185.7l0.7,2
		c-0.2,0.1-0.3,0.2-0.4,0.4c-0.2,0.2-0.4,0.4-0.6,0.7l-0.6-1.2C337.4,186.9,337.8,186.3,338.1,185.7L338.1,185.7z M292.4,186.3
		l3.3,2.5l4.5,3.4c-0.2,0.2-0.3,0.4-0.5,0.6c-1.5-0.5-3-0.8-4.6-0.8l0.6,0.5l2.7,2.2c-0.3,0.4-0.5,0.9-0.7,1.3h-0.1
		c-0.3-0.2-0.7-0.4-1-0.6c-2-1-4.1-1.7-6.2-2.3c-0.2-0.2-0.5-0.4-0.7-0.6c0.6-0.9,1.4-1.7,1.8-2.7
		C291.9,188.8,292.3,187.6,292.4,186.3L292.4,186.3z M101.7,186.8l2.6,8.6c-0.1,0-0.1,0.1-0.2,0.1c-0.3,0.2-0.7,0.4-1,0.6h-3
		l0.1-0.4c-0.3,0.1-0.5,0.3-0.7,0.4h-0.1c-0.1-0.2-0.2-0.3-0.3-0.5L101.7,186.8z M349.1,186.8l0.7,2.2l-3.3,6.7L349.1,186.8z
		 M112.1,187.7l2.1,4.8c-0.7,0.1-1.4,0.2-2.1,0.4l0.2-0.6c-0.2,0.2-0.5,0.5-0.7,0.7c-0.5,0.1-1,0.2-1.4,0.3L112.1,187.7z M338.8,188
		l1.5,4.5l-0.4,0.8l-1.8-3.6L338.8,188z M91.4,188l1.7,5.2c-0.1,0.1-0.2,0.2-0.2,0.3l-1.8-1.3l0-0.1c0,0-0.1,0-0.1,0.1l-0.1-0.1
		l0,0.1c-0.3,0.2-0.5,0.3-0.8,0.5c-0.5,0.4-1,0.8-1.4,1.2c0,0-0.1-0.1-0.1-0.1L91.4,188z M336.6,188.3c0,0.6,0,1.2,0.1,1.8
		c-0.5,0.8-0.9,1.7-1.2,2.5c-0.3,0.8-0.6,1.6-0.8,2.4c0.2,0,0.4,0,0.5,0.1l-0.5,0.9c0-0.3,0-0.6-0.1-0.8c0,0,0-0.1,0-0.1
		c0,0,0,0-0.1,0c-0.1-1-0.2-2-0.4-3c0-0.1,0-0.2,0.1-0.2C335.2,190.6,335.9,189.4,336.6,188.3L336.6,188.3z M359.3,188.3l2.6,7.8
		h-1.2l-1.8-1.5l0.8-2.5c-0.5,0.5-1,1.2-1.5,1.8c-0.5,0.7-0.9,1.4-1.3,2.1h-0.3L359.3,188.3z M51,188.6l0.5,4
		c-0.6-0.2-1.1-0.3-1.7-0.4L51,188.6z M196.6,189.5l3.7,2.1c-0.1,0.1-0.3,0.2-0.4,0.3c-0.1-0.1-0.3-0.2-0.5-0.2
		c-0.1,0-0.2-0.1-0.3-0.1l0.4,0.6c0,0,0,0,0,0c-0.5,0.4-1,0.8-1.4,1.2c-0.5-0.6-1.2-1.1-1.9-1.5C196.5,191,196.6,190.2,196.6,189.5
		L196.6,189.5z M32.9,191.1c0.4,0.5,0.7,1.1,1.1,1.6l0.5,2.4c-0.6-1-1.4-2-2.3-2.7L32.9,191.1z M269.1,191.5
		c0.6,0.8,1.3,1.6,1.7,2.5c-1.3,0.4-2.6,1-3.9,1.6c-0.3,0.2-0.7,0.4-1,0.6h-0.1c-0.2-0.4-0.5-0.9-0.7-1.3l0.2-0.2l3.1-2.6
		c0,0-0.1,0-0.1,0l0.6-0.5L269.1,191.5z M200.4,191.5l0.6,0.3l1.5,0.8c-0.2,0.2-0.4,0.4-0.7,0.6c-0.5-0.5-1-1-1.6-1.4L200.4,191.5z
		 M217.8,191.8c0.6,0.7,1.1,1.3,1.8,2c-0.8,0.3-1.6,0.6-2.4,1L217.8,191.8z M179.5,191.8c0,0.1,0,0.2,0,0.3l-0.4,0.3L179.5,191.8z
		 M274.8,191.9l1.1,0.8c-0.7,0.1-1.3,0.2-2,0.4L274.8,191.9z M380.2,192l0.5,2.3c-0.6-0.1-1.2-0.1-1.8-0.2l1.1,2.1h-5.6l0,0
		L380.2,192z M167.7,192l0.8,0.6c-0.2,0.3-0.4,0.6-0.6,0.9c-0.3-0.2-0.6-0.3-0.9-0.5C167.3,192.7,167.5,192.3,167.7,192z M350.6,192
		L350.6,192l0,0.1L350.6,192C350.6,192,350.6,192,350.6,192L350.6,192z M281.7,192.1l1.7,0.8l-0.7,1.3c-0.7,0.1-1.5,0.3-2.2,0.4
		c-0.6-0.4-1.3-0.8-1.9-1.1l0.1,0l0.9-0.4L281.7,192.1z M148.8,192.1l1.5,0.7l0.2,0.1c-0.7,0.4-1.5,0.8-2.1,1.3l-0.5-0.9
		c0.3-0.3,0.5-0.6,0.8-0.9L148.8,192.1z M91.1,192.2l0.1,0.2c0.5,0.6,1,1.1,1.5,1.7c-0.2,0.6-0.3,1.2-0.2,1.8c0,0.1,0,0.2,0,0.2h-2
		c-0.2-0.3-0.3-0.7-0.5-1c-0.1-0.1-0.1-0.2-0.2-0.3L91.1,192.2z M300.2,192.3l2.2,1.7c0,0,0,0.1-0.1,0.1c-0.7-0.4-1.5-0.8-2.3-1.1
		L300.2,192.3z M196.2,192.3l1.3,1.7c-0.6,0.7-1.1,1.4-1.5,2.1h-0.7C195.6,194.9,196,193.6,196.2,192.3L196.2,192.3z M86.5,192.4
		l0.2,0.3c0,0,0,0,0,0c-0.4,0.3-0.8,0.6-1.1,1C85.9,193.3,86.2,192.8,86.5,192.4L86.5,192.4z M199.9,192.4l1,1.4l0.1,0.2
		c-0.5,0.6-0.9,1.1-1.3,1.7c-0.2-0.4-0.4-0.9-0.7-1.3c-0.1-0.1-0.1-0.2-0.2-0.3L199.9,192.4z M161.9,192.6l0.7,0.5l0.2,0.1l1.1,0.9
		l-1,1.2c-0.3-0.2-0.5-0.3-0.8-0.5c-0.5-0.2-0.9-0.5-1.4-0.7L161.9,192.6z M179.5,192.6c0.1,1.2,0.2,2.4,0.3,3.5h-0.4
		c-0.3-0.5-0.7-1-1-1.4l-0.1-0.8C178.7,193.5,179.1,193.1,179.5,192.6L179.5,192.6z M253.7,192.7c0.2,0.3,0.5,0.7,0.7,1
		c-0.3-0.1-0.7-0.2-1.1-0.4L253.7,192.7z M187.7,192.7l0.2,0.4c-0.1-0.1-0.2-0.1-0.3-0.2L187.7,192.7z M96.3,192.9
		c-0.1,0.3-0.2,0.6-0.2,0.9c0,0.1,0,0.1,0,0.2c-0.1-0.1-0.1-0.1-0.2-0.2L96.3,192.9z M131.5,192.9c0.1,0.2,0.2,0.4,0.3,0.6l-1.7,0.7
		c0-0.1-0.1-0.2-0.1-0.3L131.5,192.9z M31.8,192.9l0.8,3.2h-2.5l1-1.7L31.8,192.9z M169.1,193l1.3,0.9l-0.5,0.9
		c-0.3-0.3-0.7-0.5-1-0.8L169.1,193z M36.3,193l1.1,0.5l0.2,0.1c-0.2,0.1-0.4,0.2-0.6,0.3L36.3,193z M203.2,193.1l4.6,2.5
		c0.2,0.2,0.4,0.3,0.5,0.5H204v0c-0.2-0.1-0.3-0.1-0.5-0.1c0,0,0,0.1,0.1,0.1h-0.9c0.3-0.1,0.6-0.1,0.9-0.1c-0.2-0.5-0.5-1-0.8-1.5
		c-0.1-0.1-0.1-0.2-0.2-0.3L203.2,193.1z M87,193.1l0.6,0.8c-0.1,0.4-0.2,0.7-0.3,1.1c0.2,0,0.4,0,0.6,0.1c-0.3,0.3-0.5,0.7-0.7,1
		h-0.1c0.1-0.4,0.2-0.7,0.2-1.1c-0.1,0-0.3,0-0.4,0.1c-0.2,0.1-0.3,0.3-0.4,0.5c-0.1-0.2-0.2-0.4-0.3-0.6c-0.1-0.1-0.1-0.2-0.2-0.3
		L87,193.1z M144.9,193.1l0.2,0.8l0.2,0.9l-0.2,0.2l-0.8,0.6c-0.1,0-0.1-0.1-0.2-0.1L144.9,193.1z M337.2,193.4
		c0.2,0.9,0.5,1.8,0.8,2.7h-1.7C336.6,195.2,336.9,194.3,337.2,193.4z M350.4,193.4c0.1,0.4,0.2,0.7,0.3,1.1l-0.8,1.7h-0.3
		C349.9,195.2,350.2,194.3,350.4,193.4L350.4,193.4z M49.3,193.5l0.8,0.7l0.8,0.7c-0.3,0.4-0.5,0.9-0.7,1.3h-0.1
		c-0.3-0.2-0.7-0.4-1-0.6c-0.2-0.1-0.3-0.1-0.5-0.2L49.3,193.5z M284.8,193.5l0.8,0.4c-0.3,0-0.5,0.1-0.8,0.1
		C284.8,193.8,284.8,193.6,284.8,193.5L284.8,193.5z M187.3,193.5l0.5,0.6c0,0-0.1,0.1-0.1,0.1c-0.2-0.2-0.3-0.3-0.5-0.5
		L187.3,193.5L187.3,193.5z M247.2,193.5l3.6,1.6c-0.3,0.3-0.5,0.7-0.8,1h-4.1c-0.2-0.2-0.4-0.5-0.6-0.7
		C246.1,194.9,246.7,194.3,247.2,193.5z M184.5,193.6l0.1,0.2c-0.1,0.1-0.2,0.2-0.3,0.3L184.5,193.6z M118.5,193.7
		c0,0.1,0.1,0.1,0.1,0.2c-0.3,0.6-0.4,1.4-0.3,2c0,0.1,0,0.2,0,0.2h-0.6L118.5,193.7z M340.7,193.7l0.8,2.4h-0.2l-0.8-1.7
		C340.6,194.2,340.7,194,340.7,193.7L340.7,193.7z M259.5,194c0,0.4,0,0.7,0.1,1.1c-0.1,0.1-0.3,0.2-0.4,0.3l-0.8-0.3
		C258.8,194.7,259.2,194.3,259.5,194L259.5,194z M277.5,194l1.4,1c-0.9,0.2-1.9,0.5-2.8,0.9c0-0.1,0-0.2,0-0.2c0-0.2,0-0.7,0-1.1
		L277.5,194z M114.5,194.1c-0.4,0.6-0.6,1.3-0.8,2.1h-2.6l0.2-0.7L114.5,194.1z M236,194.1l1,2h-2L236,194.1z M134.3,194.2l1.5,0.7
		c0,0.1,0,0.3,0,0.4c0,0.4,0,0.7-0.2,0.9h-0.3l-1.3-1.6C134.1,194.4,134.2,194.3,134.3,194.2L134.3,194.2z M313.1,194.2
		c0.2,0.6,0.4,1.3,0.6,1.9h-0.2c-0.3-0.4-0.6-0.9-1-1.3C312.7,194.7,312.9,194.5,313.1,194.2L313.1,194.2z M95.5,194.3l0.2,0.8
		c0,0.2-0.1,0.3-0.1,0.5l-0.6-0.4L95.5,194.3z M275.8,194.8c-0.1,0.5-0.2,0.9-0.3,1.4h-0.5l-0.4-0.8l1-0.4L275.8,194.8z
		 M285.5,194.8l-0.7,1.2l-0.1,0.1h-0.3c0.1-0.3,0.2-0.6,0.2-1l0.1,0L285.5,194.8z M40.6,194.9l2.3,1l0.1,0.3H39l0.7-0.6L40.6,194.9z
		 M224,194.9l0.3,1.2h-0.4l-1-0.7L224,194.9z M358.9,194.9c0,0.1,0,0.1,0,0.2c0,0.3,0.1,0.7,0.2,1h-0.6L358.9,194.9z M171.9,195.1
		l0.2,0.2c0.1,0.3,0.2,0.6,0.2,0.9h-0.6C171.8,195.8,171.9,195.4,171.9,195.1L171.9,195.1z M321.4,195.1c-0.1,0.4-0.2,0.7-0.2,1.1
		h-0.3L321.4,195.1z M288.5,195.1L288.5,195.1l2.3,1h-2.4c0-0.1,0.1-0.3,0-0.5C288.5,195.5,288.5,195.3,288.5,195.1L288.5,195.1z
		 M198.4,195.2l0.7,0.9h-1.2L198.4,195.2z M202,195.2l0.7,0.9h-1.2L202,195.2z M165.3,195.4l0.9,0.8h-1.4l0-0.2
		C165,195.8,165.2,195.6,165.3,195.4L165.3,195.4z M233.2,195.5c0,0.2-0.1,0.4-0.1,0.6h-0.3L233.2,195.5z M156.6,195.6l1.2,0.5h-1.4
		c-0.1,0-0.2-0.1-0.3-0.1C156.3,195.9,156.5,195.7,156.6,195.6L156.6,195.6z M325.3,195.6l0.2,0.1c0,0,0,0,0-0.1l0.4,0.5h-0.6
		L325.3,195.6z M133,195.6c0.1,0.2,0.2,0.4,0.3,0.5h-1C132.6,196,132.8,195.8,133,195.6z M137.8,195.7l0.5,0.2l0.5,0.2h-1.2
		L137.8,195.7z M145.5,195.7l0.1,0.4h-0.2c-0.1,0-0.1-0.1-0.2-0.1C145.4,195.9,145.4,195.8,145.5,195.7L145.5,195.7z M263.9,195.8
		l0.1,0.4h-0.5L263.9,195.8z M221.7,195.9c0.1,0.1,0.2,0.2,0.3,0.3h-0.9L221.7,195.9z M85.5,195.9l0.2,0.2h-0.3L85.5,195.9z
		 M89.1,195.9l0.2,0.2H89L89.1,195.9z M252,195.9l0.2,0.2h-0.3L252,195.9z M311.5,195.9l0.1,0.2h-0.3L311.5,195.9z M199.7,196
		c0,0-0.1,0.1-0.1,0.1h-0.5C199.3,196.1,199.5,196,199.7,196L199.7,196z"/>
</g>
</svg>
