<?xml version="1.0" encoding="UTF-8" standalone="no"?> <!-- Created with Vectornator for iOS (http://vectornator.io/) --><!DOCTYPE svg PUBLIC "-//W3C//DTD SVG 1.1//EN" "http://www.w3.org/Graphics/SVG/1.1/DTD/svg11.dtd">
<svg height="100%" style="fill-rule:nonzero;clip-rule:evenodd;stroke-linecap:round;stroke-linejoin:round;" xmlns:xlink="http://www.w3.org/1999/xlink" xmlns="http://www.w3.org/2000/svg" xml:space="preserve" width="100%" xmlns:vectornator="http://vectornator.io" version="1.1" viewBox="0 0 841.995 595.35">
<metadata>
<vectornator:setting key="RulersVisible" value="1"/>
<vectornator:setting key="OutlineMode" value="0"/>
<vectornator:setting key="DynamicGuides" value="0"/>
<vectornator:setting key="Units" value="Millimeters"/>
<vectornator:setting key="PencilOnly" value="0"/>
<vectornator:setting key="TimeLapseWatermarkDisabled" value="0"/>
<vectornator:setting key="GuidesVisible" value="1"/>
<vectornator:setting key="IsolateActiveLayer" value="0"/>
<vectornator:setting key="SnapToGuides" value="1"/>
<vectornator:setting key="CMYKEnabledKey" value="0"/>
<vectornator:setting key="DimensionsVisible" value="1"/>
<vectornator:setting key="DisplayWhiteBackground" value="0"/>
<vectornator:setting key="SnapToGrid" value="0"/>
<vectornator:setting key="SnapToPoints" value="0"/>
<vectornator:setting key="doHistoryDisabled" value="0"/>
<vectornator:setting key="SnapToEdges" value="0"/>
</metadata>
<defs>
<linearGradient y1="181.834" id="LinearGradient" x1="188.055" y2="464.618" x2="96.8577" gradientUnits="userSpaceOnUse" gradientTransform="matrix(1.15548 0 0 1.17609 -53.9972 -11.0916)">
<stop stop-color="#69ad73" offset="0.00210084"/>
<stop stop-color="#335e39" offset="0.936975"/>
<stop stop-color="#366e3f" offset="1"/>
</linearGradient>
<radialGradient cx="592.19" r="193.562" id="RadialGradient" gradientUnits="userSpaceOnUse" gradientTransform="matrix(1.15548 0 0 1.17609 -50.8142 -11.5476)" cy="143.958">
<stop stop-color="#e3e3e3" offset="0"/>
<stop stop-color="#b0e1b8" offset="1"/>
</radialGradient>
<linearGradient y1="162.83" id="LinearGradient_2" x1="428.029" y2="189.622" x2="427.975" gradientUnits="userSpaceOnUse" gradientTransform="matrix(1.15548 0 0 1.17609 64.9348 -8.9639)">
<stop stop-color="#000000" offset="0"/>
<stop stop-color="#b0b0b0" offset="1"/>
</linearGradient>
<linearGradient y1="180.769" id="LinearGradient_3" x1="460.489" y2="192.76" x2="462.423" gradientUnits="userSpaceOnUse" gradientTransform="matrix(1.16577 0 0 1.17609 60.1457 -8.9639)">
<stop stop-color="#2d2d2d" offset="0"/>
<stop stop-color="#b6b6b6" offset="1"/>
</linearGradient>
<linearGradient y1="130.591" id="LinearGradient_4" x1="289.272" y2="120.406" x2="289.324" gradientUnits="userSpaceOnUse" gradientTransform="matrix(1.1469 0 0 1.17609 -51.4802 -11.0916)">
<stop stop-color="#e3e3e3" offset="0"/>
<stop stop-color="#6e6e6e" offset="1"/>
</linearGradient>
<linearGradient y1="133.261" id="LinearGradient_5" x1="329.88" y2="122.429" x2="329.538" gradientUnits="userSpaceOnUse" gradientTransform="matrix(1.15548 0 0 1.17609 -53.9972 -11.0916)">
<stop stop-color="#e3e3e3" offset="0"/>
<stop stop-color="#6e6e6e" offset="1"/>
</linearGradient>
</defs>
<g id="Layer 1" vectornator:layerName="Layer 1">
<g opacity="1">
<path d="M15.9829+317.807C-1.25691+186.372+167.014+80.3135+391.827+80.9193C616.64+81.5251+812.863+188.565+830.102+320.001C847.342+451.436+679.071+557.494+454.258+556.888C229.445+556.283+33.2227+449.242+15.9829+317.807Z" opacity="1" fill="url(#LinearGradient)"/>
<path/>
</g>
<g opacity="1">
<path d="M104.238+198.371C101.667+109.719+343.653+51.8738+543.978+98.6057C744.303+145.338+838.864+260.379+828.401+345.89C817.938+431.402+699.311+487.785+498.986+441.053C298.661+394.321+106.81+287.023+104.238+198.371Z" opacity="1" fill="url(#RadialGradient)"/>
<path/>
</g>
<g opacity="1">
<path d="M145.807+152.175C145.807+149.922+157.256+148.096+171.378+148.096C185.501+148.096+196.95+149.922+196.95+152.175C196.95+154.428+185.501+156.254+171.378+156.254C157.256+156.254+145.807+154.428+145.807+152.175Z" opacity="1" fill="#416847"/>
<path stroke="#6da275" stroke-width="1.70528" d="M184.76+102.536L195.605+150.356L173.915+150.356L184.76+102.536Z" fill="#6da275" stroke-linecap="butt" opacity="1" stroke-linejoin="round"/>
<path stroke="#5b8c63" stroke-width="1.26217" d="M184.55+102.114C184.894+102.35+180.111+150.844+180.111+150.844L173.407+150.884C173.407+150.884+184.206+101.877+184.55+102.114Z" fill="#5b8c63" stroke-linecap="butt" opacity="1" stroke-linejoin="round"/>
</g>
<g opacity="1">
<path d="M225.896+248.121C225.896+245.766+237.668+243.857+252.189+243.857C266.71+243.857+278.482+245.766+278.482+248.121C278.482+250.476+266.71+252.386+252.189+252.386C237.668+252.386+225.896+250.476+225.896+248.121Z" opacity="1" fill="#416847"/>
<path stroke="#6da275" stroke-width="1.70528" d="M265.948+196.225L277.099+246.219L254.798+246.219L265.948+196.225Z" fill="#6da275" stroke-linecap="butt" opacity="1" stroke-linejoin="round"/>
<path stroke="#5b8c63" stroke-width="1.26217" d="M265.733+195.784C266.086+196.031+261.168+246.73+261.168+246.73L254.275+246.771C254.275+246.771+265.379+195.537+265.733+195.784Z" fill="#5b8c63" stroke-linecap="butt" opacity="1" stroke-linejoin="round"/>
</g>
<g opacity="1">
<path d="M198.999+194.434C198.999+192.469+209.475+190.876+222.398+190.876C235.321+190.876+245.797+192.469+245.797+194.434C245.797+196.399+235.321+197.992+222.398+197.992C209.475+197.992+198.999+196.399+198.999+194.434Z" opacity="1" fill="#416847"/>
<path stroke="#6da275" stroke-width="1.70528" d="M234.643+151.132L244.566+192.847L224.719+192.847L234.643+151.132Z" fill="#6da275" stroke-linecap="butt" opacity="1" stroke-linejoin="round"/>
<path stroke="#5b8c63" stroke-width="1.26217" d="M234.451+150.764C234.765+150.97+230.389+193.273+230.389+193.273L224.254+193.308C224.254+193.308+234.136+150.557+234.451+150.764Z" fill="#5b8c63" stroke-linecap="butt" opacity="1" stroke-linejoin="round"/>
</g>
<g opacity="1">
<path d="M330.17+194.245C330.17+192.28+340.646+190.687+353.569+190.687C366.492+190.687+376.969+192.28+376.969+194.245C376.969+196.21+366.492+197.804+353.569+197.804C340.646+197.804+330.17+196.21+330.17+194.245Z" opacity="1" fill="#416847"/>
<path stroke="#6da275" stroke-width="1.70528" d="M365.814+150.943L375.738+192.658L355.891+192.658L365.814+150.943Z" fill="#6da275" stroke-linecap="butt" opacity="1" stroke-linejoin="round"/>
<path stroke="#5b8c63" stroke-width="1.26217" d="M365.623+150.575C365.937+150.781+361.56+193.084+361.56+193.084L355.426+193.119C355.426+193.119+365.308+150.368+365.623+150.575Z" fill="#5b8c63" stroke-linecap="butt" opacity="1" stroke-linejoin="round"/>
</g>
<g opacity="1">
<path d="M311.128+336.438C311.128+334.418+319.909+332.781+330.741+332.781C341.574+332.781+350.355+334.418+350.355+336.438C350.355+338.458+341.574+340.095+330.741+340.095C319.909+340.095+311.128+338.458+311.128+336.438Z" opacity="1" fill="#416847"/>
<path stroke="#6da275" stroke-width="1.70528" d="M341.005+291.932L349.323+334.807L332.687+334.807L341.005+291.932Z" fill="#6da275" stroke-linecap="butt" opacity="1" stroke-linejoin="round"/>
<path stroke="#5b8c63" stroke-width="1.26217" d="M340.844+291.554C341.108+291.766+337.44+335.245+337.44+335.245L332.298+335.28C332.298+335.28+340.581+291.342+340.844+291.554Z" fill="#5b8c63" stroke-linecap="butt" opacity="1" stroke-linejoin="round"/>
</g>
<g opacity="1">
<path d="M157.94+256.323C157.94+254.666+167.168+253.322+178.551+253.322C189.935+253.322+199.163+254.666+199.163+256.323C199.163+257.98+189.935+259.324+178.551+259.324C167.168+259.324+157.94+257.98+157.94+256.323Z" opacity="1" fill="#416847"/>
<path stroke="#6da275" stroke-width="1.70528" d="M189.338+219.804L198.079+254.985L180.596+254.985L189.338+219.804Z" fill="#6da275" stroke-linecap="butt" opacity="1" stroke-linejoin="round"/>
<path stroke="#5b8c63" stroke-width="1.26217" d="M189.169+219.494C189.446+219.668+185.59+255.344+185.59+255.344L180.187+255.373C180.187+255.373+188.891+219.32+189.169+219.494Z" fill="#5b8c63" stroke-linecap="butt" opacity="1" stroke-linejoin="round"/>
</g>
<path d="M357.673+246.08C357.673+243.597+368.149+241.584+381.072+241.584C393.995+241.584+404.471+243.597+404.471+246.08C404.471+248.563+393.995+250.576+381.072+250.576C368.149+250.576+357.673+248.563+357.673+246.08Z" opacity="1" fill="#416847"/>
<path stroke="#6da275" stroke-width="1.70528" d="M393.317+191.359L403.24+244.075L383.393+244.075L393.317+191.359Z" fill="#6da275" stroke-linecap="butt" opacity="1" stroke-linejoin="round"/>
<path stroke="#5b8c63" stroke-width="1.26217" d="M393.125+190.894C393.44+191.155+389.063+244.613+389.063+244.613L382.928+244.657C382.928+244.657+392.81+190.633+393.125+190.894Z" fill="#5b8c63" stroke-linecap="butt" opacity="1" stroke-linejoin="round"/>
<g opacity="1">
<path d="M373.928+138.877C373.928+136.518+385.281+134.606+399.286+134.606C413.29+134.606+424.643+136.518+424.643+138.877C424.643+141.236+413.29+143.148+399.286+143.148C385.281+143.148+373.928+141.236+373.928+138.877Z" opacity="1" fill="#416847"/>
<path stroke="#6da275" stroke-width="1.70528" d="M412.556+86.9033L423.31+136.972L401.801+136.972L412.556+86.9033Z" fill="#6da275" stroke-linecap="butt" opacity="1" stroke-linejoin="round"/>
<path stroke="#5b8c63" stroke-width="1.26217" d="M412.348+86.4614C412.689+86.7091+407.946+137.484+407.946+137.484L401.298+137.525C401.298+137.525+412.007+86.2138+412.348+86.4614Z" fill="#5b8c63" stroke-linecap="butt" opacity="1" stroke-linejoin="round"/>
</g>
<g opacity="1">
<path d="M422.16+365.059C422.16+363.094+432.636+361.501+445.559+361.501C458.482+361.501+468.958+363.094+468.958+365.059C468.958+367.024+458.482+368.617+445.559+368.617C432.636+368.617+422.16+367.024+422.16+365.059Z" opacity="1" fill="#416847"/>
<path stroke="#6da275" stroke-width="1.70528" d="M457.804+321.756L467.728+363.472L447.881+363.472L457.804+321.756Z" fill="#6da275" stroke-linecap="butt" opacity="1" stroke-linejoin="round"/>
<path stroke="#5b8c63" stroke-width="1.26217" d="M457.612+321.388C457.927+321.595+453.55+363.898+453.55+363.898L447.416+363.933C447.416+363.933+457.298+321.182+457.612+321.388Z" fill="#5b8c63" stroke-linecap="butt" opacity="1" stroke-linejoin="round"/>
</g>
<g opacity="1">
<path d="M427.746+293.993C427.746+292.028+438.222+290.435+451.145+290.435C464.068+290.435+474.544+292.028+474.544+293.993C474.544+295.958+464.068+297.551+451.145+297.551C438.222+297.551+427.746+295.958+427.746+293.993Z" opacity="1" fill="#416847"/>
<path stroke="#6da275" stroke-width="1.70528" d="M463.39+250.69L473.313+292.406L453.466+292.406L463.39+250.69Z" fill="#6da275" stroke-linecap="butt" opacity="1" stroke-linejoin="round"/>
<path stroke="#5b8c63" stroke-width="1.26217" d="M463.198+250.322C463.513+250.529+459.136+292.832+459.136+292.832L453.001+292.867C453.001+292.867+462.883+250.116+463.198+250.322Z" fill="#5b8c63" stroke-linecap="butt" opacity="1" stroke-linejoin="round"/>
</g>
<g opacity="1">
<path d="M521.493+414.599C521.493+411.998+532.579+409.89+546.254+409.89C559.929+409.89+571.014+411.998+571.014+414.599C571.014+417.199+559.929+419.307+546.254+419.307C532.579+419.307+521.493+417.199+521.493+414.599Z" opacity="1" fill="#416847"/>
<path stroke="#6da275" stroke-width="1.70528" d="M559.211+357.297L569.712+412.499L548.71+412.499L559.211+357.297Z" fill="#6da275" stroke-linecap="butt" opacity="1" stroke-linejoin="round"/>
<path stroke="#5b8c63" stroke-width="1.26217" d="M559.008+356.81C559.341+357.083+554.71+413.062+554.71+413.062L548.219+413.108C548.219+413.108+558.675+356.537+559.008+356.81Z" fill="#5b8c63" stroke-linecap="butt" opacity="1" stroke-linejoin="round"/>
</g>
<g opacity="1">
<path d="M725.779+243.886C725.779+241.286+736.864+239.178+750.539+239.178C764.214+239.178+775.3+241.286+775.3+243.886C775.3+246.487+764.214+248.595+750.539+248.595C736.864+248.595+725.779+246.487+725.779+243.886Z" opacity="1" fill="#416847"/>
<path stroke="#6da275" stroke-width="1.70528" d="M763.497+186.584L773.997+241.786L752.996+241.786L763.497+186.584Z" fill="#6da275" stroke-linecap="butt" opacity="1" stroke-linejoin="round"/>
<path stroke="#5b8c63" stroke-width="1.26217" d="M763.294+186.097C763.626+186.37+758.995+242.35+758.995+242.35L752.504+242.396C752.504+242.396+762.961+185.824+763.294+186.097Z" fill="#5b8c63" stroke-linecap="butt" opacity="1" stroke-linejoin="round"/>
</g>
<g opacity="1">
<path d="M713.21+373.715C713.21+371.75+723.686+370.157+736.609+370.157C749.532+370.157+760.008+371.75+760.008+373.715C760.008+375.68+749.532+377.273+736.609+377.273C723.686+377.273+713.21+375.68+713.21+373.715Z" opacity="1" fill="#416847"/>
<path stroke="#6da275" stroke-width="1.70528" d="M748.854+330.412L758.778+372.128L738.931+372.128L748.854+330.412Z" fill="#6da275" stroke-linecap="butt" opacity="1" stroke-linejoin="round"/>
<path stroke="#5b8c63" stroke-width="1.26217" d="M748.662+330.044C748.977+330.251+744.6+372.554+744.6+372.554L738.466+372.589C738.466+372.589+748.348+329.838+748.662+330.044Z" fill="#5b8c63" stroke-linecap="butt" opacity="1" stroke-linejoin="round"/>
</g>
<path d="M512.421+217.306C514.041+209.78+536.155+208.92+561.814+215.385C587.473+221.849+606.96+233.191+605.34+240.716C603.72+248.242+581.606+249.102+555.947+242.637C530.288+236.173+510.801+224.832+512.421+217.306Z" opacity="0.725" fill="#416847"/>
<path d="M266.142+154.993C266.074+150.368+286.888+146.851+312.63+147.138C338.372+147.425+359.294+151.408+359.362+156.033C359.429+160.658+338.616+164.175+312.874+163.888C287.132+163.601+266.21+159.618+266.142+154.993Z" opacity="0.576549" fill="#416847"/>
<g opacity="1">
<path d="M552.799+199.699C552.799+189.956+555.726+182.058+559.337+182.058C562.948+182.058+565.875+189.956+565.875+199.699C565.875+206.244+566.739+213.087+564.756+216.129C563.787+217.615+561.704+218.144+559.528+218.028C557.33+217.91+554.962+217.532+553.989+215.745C552.283+212.612+552.799+205.903+552.799+199.699Z" opacity="1" fill="url(#LinearGradient_2)"/>
<path/>
</g>
<g opacity="1">
<path d="M578.261+224.112C578.22+214.369+581.114+206.458+584.725+206.443C588.336+206.427+591.296+214.312+591.337+224.055C591.363+230.277+591.468+236.887+589.678+240.036C588.665+241.818+586.177+241.719+584.872+241.724C583.545+241.73+580.78+241.602+579.741+239.772C577.955+236.625+578.286+230.273+578.261+224.112Z" opacity="1" fill="#ffffff"/>
<path/>
</g>
<g opacity="1">
<path d="M592.694+219.94C592.694+209.296+595.234+200.667+598.368+200.667C600.943+200.667+603.117+206.492+603.811+214.474C603.962+216.207+604.043+218.041+604.043+219.94C604.043+227.203+604.196+234.475+602.449+237.761C601.636+239.29+599.364+239.213+598.368+239.213C597.166+239.213+594.577+239.387+593.659+237.219C592.185+233.738+592.694+226.5+592.694+219.94Z" opacity="1" fill="#ffffff"/>
<path/>
</g>
<g opacity="1">
<path d="M538.786+203.743C538.786+194+541.713+186.102+545.324+186.102C548.935+186.102+551.862+194+551.862+203.743C551.862+210.288+552.726+217.131+550.743+220.173C549.774+221.659+547.691+222.189+545.515+222.072C543.317+221.954+540.949+221.576+539.976+219.789C538.27+216.656+538.786+209.947+538.786+203.743Z" opacity="1" fill="#ffffff"/>
<path/>
</g>
<path d="M592.6+213.644C592.854+214.418+592.567+215.726+592.566+216.547C592.562+218.58+592.521+217.628+592.521+217.628C592.521+217.628+592.575+224.57+592.527+225.374C592.519+225.496+592.503+225.88+592.583+225.988C592.766+226.235+594.443+225.272+594.588+225.193C595.596+224.644+597.229+223.487+598.099+222.721C598.787+222.116+599.595+221.227+600.326+220.185C600.94+219.308+602.153+216.337+602.37+215.3C603.3+210.866+603.134+209.403+602.915+207.704C602.794+206.77+602.752+206.664+602.393+205.162C602.026+203.629+602+205.426+600.945+204.224" opacity="1" fill="url(#LinearGradient_3)"/>
<g opacity="1">
<path d="M542.412+182.214C546.727+173.423+563.581+173.086+580.057+181.463C596.534+189.84+606.393+203.758+602.078+212.55C597.763+221.341+580.909+221.678+564.433+213.301C562.529+212.333+560.713+211.29+558.997+210.191C545.867+201.775+538.596+189.99+542.412+182.214Z" opacity="1" fill="#ffffff"/>
<path/>
</g>
<path d="M603.847+227.82C604.01+228.25+603.895+229.008+603.883+229.465C603.849+230.803+603.915+234.076+603.072+235.101C602.77+235.468+602.124+235.595+601.676+235.552C598.607+235.256+598.793+229.717+600.499+227.958C601.077+227.361+601.921+227.037+602.748+227.032C602.99+227.03+603.511+227.34+603.511+227.34" opacity="1" fill="#050505"/>
<path d="M592.66+220.65C596.232+219.568+596.476+225.716+594.987+227.539C594.872+227.68+592.798+229.65+592.633+229.087" opacity="1" fill="#000000"/>
<path d="M591.353+228.799C591.398+228.723+591.302+229.217+591.302+229.217L591.324+229.779L591.242+231.444C591.242+231.444+591.167+234.23+590.869+235.811C590.781+236.28+589.499+236.064+588.387+235.759C581.059+233.753+584.042+225.643+591.333+228.034" opacity="1" fill="#000000"/>
<path d="M579.433+219.696C579.381+220.392+578.797+220.946+578.827+221.732C578.906+223.813+581.082+224.934+582.272+222.807C583.434+220.731+581.697+217.065+579.632+219.173" opacity="1" fill="#000000"/>
<path d="M539.297+197.413C539.289+197.311+540.42+198.021+540.573+198.187C541.197+198.86+541.885+199.727+542.163+200.618C542.778+202.594+542.058+207.364+539.181+207.343C538.614+207.339+538.871+206.187+538.782+205.739C538.607+204.861+538.799+203.75+538.84+202.747C538.883+201.706+538.781+200.773+538.876+199.871C538.946+199.21+539.219+198.543+539.17+197.891" opacity="1" fill="#000000"/>
<path d="M551.827+215.896C549.175+214.448+544.123+219.467+543.717+221.867C543.713+221.889+544.231+221.857+544.276+221.865C545.542+222.086+546.796+222.577+548.084+222.181C550.778+221.354+551.788+219.036+551.947+216.352" opacity="1" fill="#000000"/>
<path d="M549.372+199.185C549.817+202.588+549.709+202.958+553.026+205.828C555.229+207.733+559.095+210.447+563.032+212.562C565.924+214.116+567.821+214.879+570.854+216.158C572.456+216.833+574.788+217.628+576.674+218.012C577.432+218.166+578.287+218.478+578.933+218.368C579.585+218.258+579.728+215.796+580.293+215.451C580.445+215.358+578.002+213.252+578.128+213.508C578.168+213.59+578.333+212.738+578.283+212.653C577.879+211.967+578.244+212.881+577.909+212.2C577.614+211.599+576.793+211.647+576.273+211.223C575.283+210.417+581.105+213.136+579.978+212.461C578.439+211.54+577.426+209.748+575.863+208.953C573.74+207.873+571.25+208.055+568.971+207.54C564.915+206.622+560.858+203.993+557.398+201.728C555.695+200.614+553.295+199.083+552.357+197.173" opacity="1" fill="#b1b1b1"/>
<path d="M578.524+218.293C578.653+218.452+579.508+218.305+579.75+218.318C580.973+218.381+582.298+218.262+583.504+218.476C584.947+218.734+586.291+218.862+587.741+218.95C589.106+219.033+589.672+219.242+591.034+219.179C592.919+219.092+595.297+218.416+596.941+217.52C597.398+217.272+598.115+216.916+598.903+216.315C600.019+215.464+601.176+214.259+601.066+213.346C600.868+211.701+598.926+210.786+597.799+211.1C596.135+211.564+593.934+213.89+589.059+213.888C585.224+213.887+579.162+211.039+576.268+210.874C574.982+210.801+579.806+214.766+578.609+214.224" opacity="1" fill="#b1b1b1"/>
<path d="M542.641+190.435C549.63+191.762+546.233+198.445+550.161+202.294C552.264+204.356+556.839+205.938+558.941+202.901C563.88+195.768+556.934+183.525+548.375+184.48C546.989+184.634+545.313+184.995+544.166+185.856C543.369+186.454+541.206+190.162+542.641+190.435Z" opacity="0.967308" fill="#000000"/>
<path d="M578.309+187.547C569.387+187.159+573.875+199.998+580.901+201.428C582.71+201.796+584.174+200.525+585.914+200.304C586.948+200.172+588.066+200.676+589.143+200.477C593.823+199.611+593.066+193.697+590.757+190.877C587.514+186.916+584.432+191.332+580.731+190.704C578.629+190.347+581.091+187.669+578.309+187.547Z" opacity="0.940385" fill="#000000"/>
<path d="M561.083+176.848C556.595+180.853+563.143+190.073+568.602+188.221C569.953+187.762+569.836+185.739+570.556+184.761C571.215+183.868+576.008+183.146+574.89+180.87C573.675+178.397+563.061+175.082+561.083+176.848Z" opacity="0.880769" fill="#000000"/>
<path d="M537.859+167.207C538.163+167.241+537.897+166.916+537.814+166.798C537.328+166.104+536.811+165.881+536.146+165.446C534.728+164.519+533.121+164.439+531.501+164.667C531.242+164.704+529.976+164.868+529.863+165.117C529.777+165.31+530.718+166.494+530.844+166.708C532.132+168.915+534.714+169.381+537.115+169.644" opacity="1" fill="#e1e1e1"/>
<path d="M542.785+185.373C542.964+186.209+541.977+186.288+541.686+186.152C541.616+186.119+541.478+185.994+541.315+185.824C541.001+185.496+540.609+185.024+540.537+184.902C539.647+183.377+539.961+182.156+537.803+182.354C535.612+182.556+535.272+183.135+533.531+184.314C532.752+184.843+532.83+184.905+531.846+185.186C530.119+185.679+526.962+184.076+526.71+182.224C526.47+180.463+526.667+179.538+528.242+178.203C528.688+177.825+529.121+177.268+529.626+176.962C530.775+176.267+530.269+176.313+531.613+174.886C532.957+173.46+533.25+173.184+533.386+172.742C533.848+171.246+533.85+171.081+534.38+169.614C534.722+168.666+534.964+167.511+535.825+166.805C536.782+166.02+538.3+166.11+538.882+165.476C540.259+163.973+540.204+163.418+543.008+163.635C545.084+163.796+545.788+165.132+546.859+166.485C548.045+167.983+548.493+167.918+549.674+169.941C549.857+170.254+549.472+171.852+550.711+173.922C551.95+175.991+553.646+176.039+554.467+177.256" opacity="1" fill="#ffffff"/>
<path d="M543.251+169.075C544.458+168.992+545.188+168.431+546.637+168.606C547.432+168.701+548.429+169.034+549.16+169.395C549.525+169.576+551.713+171.48+551.618+171.849C551.602+171.911+550.551+172.776+549.296+172.994C548.042+173.211+548.198+173.05+546.601+172.719C544.731+172.332+543.482+171.538+543.177+170.071" opacity="1" fill="#e5e5e5"/>
<path d="M547.403+174.418C548.563+175.465+548.373+177.088+548.965+177.755C549.06+177.861+551.666+177.027+552.23+177.704C554.237+180.116+547.546+181.541+546.215+181.354C544.014+181.045+543.46+176.801+544.246+175.181C544.673+174.301+546.02+173.462+547.036+174.12" opacity="0.890385" fill="#000000"/>
<path d="M539.308+171.356C542.553+167.485+544.026+173.724+541.472+175.611C540.44+176.373+539.008+175.935+538.582+174.689C538.408+174.177+538.36+174.524+538.534+173.426C538.707+172.327+538.662+172.823+538.789+172.361" opacity="0.725" fill="#000000"/>
<path d="M531.199+175.44C531.546+175.173+532.246+177.196+532.246+177.589C532.25+179.99+528.206+182.965+527.239+180.573C526.876+179.675+527.314+179.323+527.357+179.105C527.447+178.64+530.723+175.807+531.199+175.44Z" opacity="0.819231" fill="#000000"/>
<path d="M542.053+171.051C543.921+172.658+541.074+176.608+539.354+174.839C537.301+172.729+540.185+169.445+542.053+171.051Z" opacity="1" fill="#d8d8d8"/>
<path d="M533.458+171.243C533.905+167.522+537.717+168.661+537.329+171.297C537.026+173.356+533.17+173.645+533.458+171.243Z" opacity="1" fill="#c2c2c2"/>
<path d="M540.068+172.431C540.357+171.788+541.074+171.523+541.67+171.84C542.267+172.157+542.517+172.936+542.228+173.579C541.94+174.223+541.223+174.488+540.626+174.171C540.03+173.854+539.78+173.075+540.068+172.431Z" opacity="1" fill="#000000"/>
<path d="M535.001+170.713C535.276+170.107+535.959+169.858+536.527+170.157C537.095+170.455+537.333+171.188+537.058+171.794C536.784+172.4+536.1+172.649+535.533+172.351C534.965+172.052+534.727+171.319+535.001+170.713Z" opacity="1" fill="#000000"/>
<path d="M599.596+215.695C599.556+215.887+600.374+215.98+600.575+216.07C602.064+216.737+603.665+216.519+605.195+216.119C609.607+214.965+613.731+210.423+613.321+205.601C613.214+204.342+613.058+202.672+612.049+201.782C611.121+200.964+610.468+201.683+610.429+202.7C610.399+203.449+610.816+204.236+610.956+204.963C611.173+206.099+611.109+207.433+610.584+208.471C609.643+210.334+606.972+212.379+604.735+213.141C603.255+213.644+601.79+213.16+601.765+213.22C601.679+213.422+600.958+214.323+600.482+214.696C600.311+214.83+600.414+214.791+600.026+215.212" opacity="1" fill="#ffffff"/>
<path d="M526.976+181.408C527.464+181.095+530.583+183.233+530.022+183.741C529.846+183.901+529.381+183.562+529.147+183.549C528.818+183.529+528.746+183.8+528.535+183.92C527.927+184.264+527.766+183.005+527.582+182.778C527.431+182.592+526.638+181.625+526.976+181.408Z" opacity="0.819231" fill="#000000"/>
<path d="M541.181+163.696C541.549+164.967+542.339+166.158+541.579+167.579C541.19+168.308+539.883+169.147+539.146+168.393C538.826+168.065+538.67+167.521+538.39+167.146C538.163+166.842+537.721+166.449+537.671+166.033C537.665+165.982+538.041+165.964+538.369+165.833C538.727+165.69+538.911+165.423+538.993+165.331C539.321+164.961+539.546+164.633+539.966+164.263C540.175+164.08+540.32+163.931+540.624+163.803C540.727+163.759+541.144+163.568+541.181+163.696Z" opacity="0.880769" fill="#000000"/>
<path d="M552.549+175.792C552.542+175.858+551.114+176.771+550.578+177.107C549.13+178.015+547.735+179.101+546.507+180.306C545.194+181.593+543.846+182.846+542.67+184.275C542.552+184.419+541.456+185.921+541.412+185.925C541.37+185.929+541.231+185.73+541.124+185.609C540.953+185.418+540.776+185.232+540.543+184.903C540.316+184.581+540.196+184.19+540.062+183.858C540+183.701+539.781+183.064+539.455+182.731C539.157+182.426+538.748+182.421+538.756+182.377C538.804+182.137+540.592+181.377+540.795+181.259C542.024+180.55+543.309+179.752+543.309+179.752C543.309+179.752+545.828+178.678+547.064+178.078C547.721+177.759+548.115+177.173+548.69+176.826C549.717+176.208+550.81+175.595+551.946+175.345" opacity="0.496154" fill="#000000"/>
<path d="M563.75+213.331C563.541+212.339+561.188+208.636+562.283+205.84C563.432+202.909+567.506+203.205+569.892+203.946C573.493+205.066+577.216+207.46+579.379+210.656C583.62+216.922+582.494+219.239+575.326+217.895C573.722+217.594+571.897+217.055+570.405+216.39C569.119+215.816+567.693+215.284+567.693+215.284C567.693+215.284+563.808+213.608+563.75+213.331Z" opacity="0.934615" fill="#000000"/>
<path d="M601.384+214.045C601.384+214.045+602.078+213.114+602.528+212.134C602.914+211.292+603.06+210.404+603.113+210.154C603.339+209.091+602.962+208.985+602.868+208.555C602.138+205.209+597.805+202.033+594.796+205.095C591.044+208.915+594.053+208.418+595.306+210.544C596.724+212.949+596.243+215.084+599.81+214.176C600.358+214.037+600.604+214.637+601.169+214.349" opacity="0.982692" fill="#000000"/>
<path d="M331.468+132.673C331.975+132.727+331.55+141.275+331.604+142.212C331.843+146.364+332.177+155.174+331.487+156.172C331.308+156.429+330.686+157.05+330.074+157.055C329.322+157.06+328.67+156.431+328.601+156.253C327.942+154.569+328.266+151.906+328.234+150.083C328.202+148.251+328.162+146.416+328.073+144.612C327.948+142.064+326.417+139.06+326.681+136.518" opacity="1" fill="#ffffff"/>
<path d="M328.515+134.461C329.124+134.859+327.223+143.565+327.145+144.376C326.87+147.226+326.437+149.591+326.411+151.983C326.396+153.35+326.914+156.275+326.341+157.564C325.792+158.797+324.458+158.044+324.059+157.133C323.442+155.725+323.968+152.48+323.972+152.065C323.986+150.794+324.005+149.575+323.942+148.297C323.893+147.306+322.313+142.169+322.14+139.772C321.953+137.169+323.178+137.296+323.289+136.226" opacity="1" fill="#ffffff"/>
<path d="M284.114+134.94C284.623+134.995+284.324+137.402+284.336+137.816C284.413+140.436+284.474+142.967+284.087+145.56C283.814+147.388+284.566+156.575+282.112+156.507C279.333+156.431+279.77+153.066+279.915+151.211C280.309+146.167+280.374+140.849+280.285+135.788" opacity="1" fill="#ffffff"/>
<path d="M280.615+135.809C280.175+140.029+279.625+144.619+278.847+148.774C278.754+149.27+278.687+152.357+278.029+152.287C276.927+152.17+276.01+152.225+275.739+151.348C275.419+150.31+275.871+148.264+276.075+147.338C276.676+144.596+276.93+140.633+276.571+137.135C276.241+133.925+275.296+131.176+275.771+128.639" opacity="1" fill="#ffffff"/>
<path d="M324.53+119.727C324.48+119.238+323.752+118.456+323.553+117.939C322.916+116.281+324.239+116.307+324.292+115.905C324.348+115.479+324.034+115.108+324.292+114.647C324.39+114.472+324.425+114.487+324.609+114.384C325.049+114.137+325.648+114.388+325.987+114.198C326.746+113.772+326.58+112.819+327.738+112.609C328.206+112.524+328.925+113.511+329.098+113.094C329.393+112.38+329.106+111.884+330.273+111.764C330.764+111.714+331.482+112.739+331.661+112.308C331.955+111.597+332.883+110.461+333.996+111.191C334.213+111.333+334.085+111.876+334.344+111.86C334.87+111.828+335.681+111.071+336.32+111.861C337.232+112.989+337.295+111.906+338.479+112.805C338.829+113.071+338.43+113.648+338.785+113.699C339.25+113.767+340.075+113.569+340.428+114.005C340.703+114.345+339.964+114.767+340.165+115.015C340.369+115.268+341.04+115.143+341.329+115.472C342.037+116.279+341.024+116.805+341.372+117.377C341.563+117.692+342.011+117.807+342.184+118.18C342.226+118.27+342.267+118.362+342.277+118.459C342.313+118.808+341.778+122.961+341.751+122.997C341.486+123.343+340.649+122.946+340.597+123.27C340.399+124.503+339.853+125.61+338.797+126.486C338.159+127.015+337.109+126.957+336.371+127.568C334.988+128.715+330.097+130.139+328.44+128.378" opacity="1" fill="#ffffff"/>
<path d="M327.807+115.753C327.751+115.956+326.62+115.11+326.53+115.034C326.362+114.894+326.243+114.709+326.109+114.537C325.236+113.42+324.87+111.667+325.128+110.136C325.219+109.591+325.449+109.053+325.587+108.513C325.6+108.463+325.595+108.375+325.643+108.366C326.069+108.291+326.855+108.948+327.163+109.167C328.446+110.082+329.846+112.263+329.894+114.03" opacity="1" fill="#e3e3e3"/>
<path d="M276.351+134.375C276.413+134.241+276.306+134.553+276.389+135.397C276.472+136.241+276.576+135.993+276.652+137.358C276.727+138.723+276.685+138.744+276.717+139.948C276.723+140.2+276.696+140.806+276.965+141.359C277.233+141.913+278.265+141.053+278.659+141.221C278.838+141.297+278.915+141.558+279.098+141.612C279.283+141.666+279.365+141.5+279.578+141.642C279.74+141.751+279.899+142.191+280.017+142.033C280.238+141.739+280.278+140.396+280.33+139.932C280.352+139.734+280.374+139.537+280.397+139.34C280.409+139.228+280.422+138.89+280.409+139.002C280.395+139.123+280.391+139.103+280.408+139.237C280.431+139.42+280.392+142.249+280.496+142.299C280.538+142.319+280.699+141.993+280.788+141.968C281.102+141.88+281.634+141.831+281.974+141.821C282.693+141.801+283.449+141.981+284.121+142.18C284.173+142.195+284.375+142.311+284.419+142.241C284.684+141.826+284.475+140.854+284.581+140.356C284.761+139.507+284.845+136.903+284.494+136.147C284.262+135.645+282.158+133.914+281.603+133.588C280.568+132.981+279.108+132.294+277.905+132.316C277.627+132.321+275.603+133.21+276.042+133.504" opacity="1" fill="url(#LinearGradient_4)"/>
<path d="M338.757+115.208C339.078+114.953+339.277+114.311+339.562+113.979C340.547+112.828+341.485+111.816+342.902+111.252C343.131+111.161+344.372+110.577+344.599+110.811C344.986+111.209+344.689+112.677+344.552+113.088C343.833+115.235+341.942+116.373+339.865+116.796" opacity="1" fill="#e3e3e3"/>
<path d="M322.088+139.361C322.098+139.736+322.699+143.597+322.856+143.784C323.009+143.965+323.041+144.832+323.237+144.876C323.518+144.939+324.436+144.341+325.076+144.485C325.276+144.53+327.037+145.098+327.071+145.085C327.137+145.059+327.43+142.751+327.56+142.378C327.598+142.27+327.546+142.023+327.657+142.048C327.745+142.068+327.804+142.718+327.84+142.794C328.266+143.673+327.912+144.807+328.233+145.649C328.247+145.685+328.598+145.425+328.683+145.398C329.022+145.291+329.382+145.242+329.724+145.154C330.298+145.008+331.27+145.574+331.75+145.384C331.848+145.345+331.772+145.166+331.76+145.11C331.607+144.34+331.685+143.51+331.685+142.728C331.684+141.553+331.89+140.35+331.859+139.196C331.835+138.31+331.625+137.357+331.739+136.453C331.785+136.083+332.067+134.407+331.786+134.074C331.642+133.903+329.137+133.326+329.04+133.406C328.798+133.605+328.708+133.871+328.413+134.019C328.298+134.076+328.033+134.063+328.007+134.179C327.953+134.43+328.138+134.773+328+135.008C327.905+135.169+327.543+135.071+327.475+135.267C327.35+135.621+327.711+136.476+327.437+136.692C326.714+137.26+326.386+136.455+326.094+136.389C325.884+136.342+325.8+137.177+325.749+137.293C325.655+137.511+324.47+138.463+324.277+138.496C323.539+138.619+323.392+136.869+322.241+138.314" opacity="1" fill="url(#LinearGradient_5)"/>
<path d="M331.472+128.392C331.931+128.404+332.653+128.744+332.709+129.288C332.739+129.574+331.955+129.674+331.955+129.674C331.955+129.674+332.953+130.226+332.783+130.61C331.956+132.468+333.153+131.111+332.9+132.135C332.837+132.389+332.368+132.438+332.228+132.662C332.208+132.695+332.192+132.738+332.2+132.776C332.26+133.053+332.656+133.087+332.663+133.474C332.667+133.7+331.672+135.199+331.561+135.651C331.462+136.047+331.914+136.356+331.53+136.728C331.439+136.816+330.991+136.836+330.981+136.853C330.83+137.095+331.203+137.76+330.596+137.743C330.163+137.731+329.832+136.953+329.502+137.028C329.256+137.084+329.034+137.535+328.759+137.464C328.32+137.351+328.466+136.492+327.921+136.477C327.521+136.466+327.072+136.286+326.719+136.482C326.489+136.609+326.249+137.374+326.075+137.377C325.892+137.381+325.73+136.896+325.528+137.02C325.225+137.205+325.631+137.896+325.225+138.052C325.007+138.136+324.512+137.833+324.412+137.915C324.362+137.957+324.57+138.611+324.537+138.743C324.399+139.3+324.039+138.786+323.789+138.913C323.45+139.086+323.028+140.328+322.61+140.733C322.306+141.027+322.062+140.226+321.835+140.534C321.56+140.909+321.735+142.063+321.072+142.099C320.802+142.113+320.691+141.393+320.354+141.673C320.183+141.814+320.03+142.77+319.742+142.722C319.45+142.673+319.341+141.87+318.98+142.092C318.859+142.166+318.657+142.697+318.529+142.676C318.279+142.634+318.064+141.697+317.756+141.995C317.528+142.216+317.341+143.213+317.038+143.282C316.691+143.361+316.8+141.885+316.433+141.92C315.99+141.963+315.894+142.637+315.589+142.861C315.237+143.12+315.129+142.363+314.849+142.334C314.391+142.285+314.027+143.382+313.841+142.509C313.835+142.48+313.786+142.254+313.786+142.254C313.623+142.147+313.551+142.513+313.492+142.588C313.453+142.637+313.409+142.682+313.364+142.724C312.732+143.31+311.789+142.653+311.332+142.757C311.169+142.794+311.087+143.215+310.932+143.33C310.884+143.365+310.616+143.5+310.544+143.471C310.268+143.361+310.153+142.821+309.899+142.654C309.531+142.414+309.334+143.081+308.984+143.022C308.612+142.96+308.399+142.173+307.885+142.041C307.786+142.015+307.842+141.836+307.82+141.734C307.764+141.475+307.877+140.905+307.352+140.77C307.166+140.722+307.206+141.168+307.041+141.269C306.745+141.45+306.259+140.602+306.073+140.9C305.981+141.047+306.171+141.359+306.005+141.558C305.737+141.876+305.506+141.279+305.191+141.421C304.928+141.54+304.891+141.942+304.602+142.09C304.333+142.227+304.05+141.846+303.85+141.993C303.584+142.188+303.59+142.646+303.283+142.764C302.995+142.875+302.641+142.436+302.508+142.565C302.286+142.781+302.359+143.253+301.98+143.274C301.706+143.289+301.555+142.893+301.273+142.899C300.991+142.905+300.797+143.724+300.534+143.602C300.399+143.539+300.247+142.971+300.043+143.017C299.675+143.101+299.775+143.774+299.338+143.873C298.921+143.968+298.659+143.064+298.493+143.102C298.053+143.202+298.131+143.345+297.706+143.334C297.496+143.328+297.415+144.035+297.31+144.173C296.993+144.592+296.392+144.135+296.291+144.297C296.088+144.622+296.23+145.37+295.823+145.527C295.245+145.75+294.718+144.616+294.308+144.801C294.031+144.926+293.967+145.943+293.535+145.832C292.629+145.6+292.207+144.587+291.338+143.869C290.908+143.514+290.08+143.917+289.805+143.789C289.556+143.674+289.944+143.029+289.68+142.961C289.547+142.927+289.296+143.261+289.114+143.25C289.053+143.246+288.991+143.221+288.943+143.182C288.84+143.097+288.825+142.596+288.762+142.58C288.571+142.531+288.355+142.767+288.153+142.665C287.865+142.52+287.169+140.589+286.948+140.209C286.822+139.993+286.409+140.305+286.273+139.987C285.906+139.13+285.593+138.138+285.012+137.758C284.968+137.729+284.819+138.207+284.557+138.075C284.337+137.964+284.328+137.293+284.062+137.224C283.879+137.177+283.675+137.558+283.502+137.298C283.344+137.059+283.489+136.596+283.256+136.39C282.832+136.017+280.338+136.678+279.739+136.814C279.378+136.896+279.207+136.119+278.883+135.991C278.534+135.852+278.421+136.319+278.118+136.325C277.796+136.332+277.823+135.692+277.584+135.536C277.338+135.375+276.975+135.518+276.699+135.309C276.111+134.865+276.597+134.51+276.359+134.209C276.166+133.965+276.078+133.393+275.773+133.088C275.521+132.835+275.043+132.852+274.932+132.611C274.793+132.31+275.073+132.099+275.155+131.809C275.238+131.51+274.507+131.458+274.403+131.174C274.346+131.018+274.768+130.513+274.751+129.989C274.737+129.576+274.307+129.128+274.144+128.984C274.002+128.859+273.719+129.015+273.517+128.926C273.317+128.838+273.197+128.506+272.975+128.562C272.768+128.614+272.705+128.956+272.517+129.071C272.241+129.238+271.862+129.171+271.729+129.084C271.618+129.011+271.477+128.814+271.321+128.87C271.195+128.917+271.056+129.214+270.926+129.21C270.717+129.205+270.673+128.851+270.49+128.789C270.397+128.758+270.153+128.974+270.07+128.997C269.859+129.056+269.78+128.383+269.591+128.266C269.405+128.15+268.902+128.52+268.765+128.283C268.553+127.915+268.243+127.399+268.205+126.639C268.183+126.192+268.675+126.891+268.565+126.611C268.4+126.19+268.404+124.236+268.739+124.002C268.949+123.856+269.074+124.194+269.242+124.156C269.681+124.056+269.228+123.148+269.529+122.806C269.818+122.477+270.179+122.871+270.359+122.778C270.639+122.636+270.606+122.099+271.065+121.922C271.349+121.813+271.766+122.512+271.766+122.512C271.766+122.512+272.497+121.541+272.865+121.781C273.137+121.96+272.806+122.812+273.122+122.74C273.598+122.632+273.748+121.952+274.124+122.78C274.186+122.918+274.151+123.337+274.2+123.138C274.371+122.445+274.855+123.417+274.786+123.433C274.571+123.482+274.306+122.269+274.392+122.077C274.455+121.934+274.758+122.108+274.84+121.975C275.533+120.867+273.834+121.553+275.476+120.547C275.603+120.469+275.327+119.619+275.585+119.344C275.851+119.061+276.525+119.517+276.548+119.447C276.704+118.971+276.273+117.751+277.272+117.945C277.384+117.966+277.847+118.296+277.869+118.291C277.969+118.268+277.825+118.087+277.803+117.985C277.766+117.808+277.573+116.882+277.984+116.873C278.165+116.869+278.376+117.382+278.42+117.202C278.536+116.732+278.092+116.294+278.485+115.796C278.622+115.622+279.048+116.313+279.071+116.091C279.103+115.789+278.535+115.035+279.009+114.821C279.185+114.741+279.448+115.33+279.495+115.139C279.569+114.837+279.16+114.304+279.637+114.089C279.683+114.068+279.735+114.057+279.786+114.055C279.97+114.052+280.056+114.583+280.184+114.447C280.362+114.257+280.108+113.447+280.375+113.387C280.475+113.364+281.034+114.112+281.087+114.028C281.248+113.77+281.183+112.982+281.567+112.849C281.986+112.702+282.018+113.388+282.346+113.314C282.667+113.241+282.619+112.536+283.113+112.498C283.563+112.463+283.663+113.084+284.024+113.094C284.398+113.104+284.655+112.281+285.2+112.238C285.661+112.202+285.651+112.934+285.824+112.953C286.063+112.978+286.561+112.304+286.872+112.233C287.478+112.096+287.396+112.854+287.585+112.874C287.726+112.89+288.02+112.133+288.301+112.07C288.39+112.049+288.516+112.174+288.544+112.228C289.207+113.487+288.832+111.687+289.674+112.133C289.867+112.235+289.968+112.748+290.076+112.791C290.217+112.847+290.572+112.118+290.754+112.048C291.561+111.737+290.911+112.939+291.595+112.071C291.677+111.968+291.66+111.896+291.812+111.862C292.213+111.77+292.053+112.478+292.214+112.52C292.271+112.534+292.541+111.615+292.859+111.624C293.133+111.632+293.322+112.322+293.322+112.322C293.322+112.322+293.317+112.096+293.356+111.993C293.672+111.164+294.06+112.417+294.074+112.419C294.265+112.439+294.656+111.801+294.934+111.795C295.224+111.789+294.944+112.839+295.17+112.652C295.418+112.445+296.108+111.733+296.15+112.59C296.15+112.593+296.08+112.972+296.126+112.97C296.489+112.95+296.794+112.452+297.18+112.517C297.484+112.568+297.012+113.62+297.277+113.458C297.491+113.327+297.846+112.238+298.208+112.926C298.21+112.93+298.34+113.377+298.356+113.374C298.733+113.288+298.739+112.591+299.162+112.495C299.559+112.405+299.629+113.138+300.013+113.051C300.315+112.983+300.397+112.305+300.757+112.133C301.075+111.981+301.611+112.964+301.697+112.616C301.855+111.974+302.455+111.27+302.683+112.338C302.748+112.639+302.972+111.378+303.2+111.579C303.298+111.665+303.325+111.986+303.426+111.902C303.68+111.691+303.505+111.234+304.065+111.222C304.273+111.217+304.362+111.787+304.523+111.653C304.72+111.49+304.554+111.12+304.952+110.967C305.564+110.731+305.474+111.692+305.735+111.699C305.971+111.706+306.225+111.112+306.617+111.178C306.878+111.222+306.722+111.957+306.98+111.898C307.281+111.83+307.242+110.986+307.786+111.02C308.085+111.038+308.091+111.659+308.288+111.655C308.693+111.646+308.641+110.9+309.126+110.93C309.506+110.953+309.702+111.923+310.003+111.854C310.177+111.815+310.25+111.223+310.36+111.078C310.558+110.816+311.139+110.768+311.379+110.953C311.6+111.124+311.433+111.798+311.703+111.736C311.864+111.7+312.008+110.868+312.509+110.858C312.732+110.853+312.55+111.601+312.75+111.499C312.851+111.447+312.967+111.202+313.034+111.113C313.77+110.141+313.625+111.364+313.952+111.494C314.201+111.593+314.775+110.75+315.161+110.791C315.49+110.826+315.438+111.638+315.645+111.591C316.007+111.509+316.244+110.873+316.705+110.922C317.055+110.96+316.871+111.713+317.04+111.756C317.198+111.797+317.992+111.111+318.31+111.093C318.966+111.058+318.702+112.019+319.027+112.001C319.47+111.977+320.358+111.262+320.694+111.73C320.788+111.86+320.792+112.36+320.946+112.422C321.253+112.544+321.853+111.931+322.221+112.026C322.579+112.118+322.339+112.887+322.489+113.035C322.717+113.259+323.414+112.729+323.708+112.866C324.193+113.091+323.436+113.617+323.555+113.864C323.687+114.135+324.358+113.645+324.596+113.842C324.827+114.032+324.581+114.622+324.671+114.681C325.607+115.293+325.651+114.525+325.332+115.816" opacity="1" fill="#ffffff"/>
<path d="M332.557+127.926C333.313+127.796+333.218+129.148+333.176+129.202C333.012+129.411+331.818+129.791+331.912+130.115C332.03+130.523+332.86+130.958+332.912+131.449C332.953+131.829+332.336+132.082+332.352+132.411C332.377+132.933+332.865+133.863+332.442+134.27C332.322+134.385+331.675+134.445+331.665+134.542C331.476+136.288+330.245+135.005+329.296+134.646C329.13+134.583+328.926+135.549+328.647+135.618C328.431+135.671+327.314+134.975+327.174+134.887C327.014+134.786+326.967+134.286+326.897+134.131C326.239+132.66+326.965+133.177+326.901+132.133C326.874+131.691+326.43+131.33+326.464+130.882C326.491+130.522+328.228+128.585+328.378+128.172C328.388+128.144+328.384+127.993+328.373+127.952C328.036+126.679+328.611+126.472+328.649+125.319C328.661+124.936+327.983+124.842+327.897+124.47C327.305+121.91+325.713+120.586+324.308+118.464C323.773+117.655+323.256+114.64+324.721+114.752C324.773+114.756+325.245+114.686+325.251+114.692C325.981+115.291+325.347+116.176+326.118+116.627C326.205+116.678+326.328+116.74+326.324+116.879C326.312+117.235+325.805+117.482+325.889+117.844C326.472+120.366+328.436+122.42+329.773+124.44C330.09+124.92+330.707+125.08+330.981+125.548C331.371+126.212+331.947+126.588+332.322+127.228C332.398+127.358+332.452+127.944+332.557+127.926Z" opacity="1" fill="#d8d8d8"/>
<path d="M339.408+122.405C339.864+121.455+340.248+120.454+340.343+119.455C340.785+114.837+335.61+112.492+331.421+113.486C330.22+113.77+328.71+113.958+327.969+115.036C325.544+118.566+328.647+121.813+330.494+124.645C330.979+125.389+331.011+126.289+331.487+127.02C332.175+128.075+334.607+130.112+336.059+129.298C339.017+127.64+338.179+124.965+339.408+122.405Z" opacity="1" fill="#e3e3e3"/>
<path d="M284.832+137.035C284.862+137.145+284.648+135.721+284.825+135.282C284.865+135.18+287.37+134.09+287.823+134.262C289.116+134.755+289.409+137.287+291.01+137.276C291.899+137.269+292.79+134.71+293.938+135.191C294.459+135.409+295.221+137.197+295.461+137.244C296.968+137.542+296.382+135.608+297.402+135.315C297.473+135.295+296.964+132.635+299.593+133.155C300.114+133.258+299.207+133.999+299.215+134.061C299.286+134.629+301.238+135.863+301.857+135.986C303.557+136.322+303.451+135.113+303.749+135.028C304.064+134.938+304.302+135.649+304.661+135.629C304.92+135.614+304.938+135.014+305.225+135.179C305.695+135.451+305.784+136.165+306.363+136.386C306.65+136.495+307.284+136.511+307.535+136.337C307.742+136.193+307.299+135.519+307.545+135.568C307.903+135.639+308.115+136.071+308.548+136.047C309.081+136.017+308.674+135.197+308.952+135.005C309.324+134.748+309.954+135.449+310.4+134.941C310.625+134.685+310.264+133.863+310.594+133.928C310.643+133.938+310.898+134.652+310.926+134.694C311.473+135.526+315.944+135.796+316.618+135.329C316.847+135.171+316.892+134.612+317.287+134.69C317.477+134.728+317.747+135.134+317.974+135.036C318.262+134.913+318.021+133.955+318.325+133.914C318.837+133.845+320.518+135.182+321.044+135.433C321.579+135.689+321.574+134.706+322.028+134.576C322.774+134.363+322.739+135.155+323.177+135.364C323.455+135.497+323.979+135.268+324.232+135.573C324.891+136.368+323.737+136.651+323.749+136.669C324.057+137.138+324.938+137.826+324.56+138.512C324.354+138.885+323.022+138.286+322.795+138.443C322.639+138.551+322.993+139.866+323.038+140.033C323.11+140.299+322.308+140.256+322.197+140.498C322.001+140.928+322.014+141.973+321.586+142.27C321.357+142.428+319.501+142.795+319.309+142.731C319.256+142.713+318.724+142.253+318.715+142.263C318.433+142.555+318.81+143.175+318.483+143.478C318.143+143.793+316.287+144.479+315.904+144.09C315.835+144.02+315.744+143.651+315.573+143.674C315.341+143.705+315.307+144.302+315.035+144.339C314.519+144.409+314.546+143.56+314.202+143.333C313.765+143.045+313.626+143.787+313.173+142.989C313.136+142.925+312.876+142.23+312.84+142.223C312.491+142.154+312.759+143.118+312.409+143.049C312.329+143.033+311.572+141.81+311.469+141.882C310.946+142.243+310.881+143.268+310.171+143.307C309.371+143.352+308.283+141.597+307.716+141.84C307.057+142.123+305.876+142.522+305.823+142.798C305.797+142.935+305.815+143.178+305.68+143.19C304.777+143.271+303.834+141.729+303.066+141.832C302.582+141.898+302.569+143.416+302.098+143.323C301.904+143.285+301.166+142.502+301.002+142.616C300.021+143.295+299.202+143.355+298.28+143.62C297.978+143.706+297.711+143.24+297.449+143.315C297.129+143.407+297.189+144.599+296.927+144.614C296.636+144.63+296.413+144.089+296.124+144.525C295.906+144.853+296.165+145.739+295.668+145.837C295.236+145.922+292.823+145.52+292.545+145.36C292.214+145.169+292.745+143.787+292.05+143.65C291.735+143.587+291.561+144.184+291.209+144.114C290.92+144.057+290.799+143.502+290.64+143.511C290.359+143.527+290.168+143.96+289.734+143.963C288.476+143.971+288.141+141.717+287.64+140.955C287.246+140.356+286.388+140.285+286.041+139.658C285.895+139.394+286.015+138.825+285.826+138.634C285.521+138.325+284.881+138.51+284.547+138.171C284.431+138.054+284.34+137.013+283.961+136.583C283.802+136.403+282.768+136.669+282.618+136.808C282.577+136.846+282.402+137.405+282.37+137.39C281.978+137.203+282.207+136.372+281.72+136.14C281.283+135.931+280.719+136.329+280.312+136.352C279.767+136.382+277.135+135.942+276.883+135.324C276.82+135.17+277.247+134.959+277.105+134.877C276.723+134.656+275.897+134.936+275.51+134.632C275.153+134.35+276.565+133.905+276.414+133.479C276.284+133.11+275.833+133.395+275.649+133.187C275.133+132.602+275.659+131.663+275.562+131.137C275.397+130.249+274.06+128.45+274.377+128.029C274.384+128.019+275.142+127.148+275.242+127.078C275.864+126.648+276.052+127.836+276.417+127.731C276.866+127.602+277.539+126.503+278.113+127.085C278.477+127.454+278.288+127.866+278.447+128.203C278.71+128.759+280.087+128.168+280.464+128.742C280.621+128.98+280.429+129.418+280.495+129.659C280.622+130.129+281.873+130.179+282.21+130.349C283.009+130.752+282.469+131.361+282.94+131.895C283.28+132.28+283.895+132.091+284.273+132.439C284.576+132.718+284.147+133.036+284.171+133.33C284.216+133.867+285.163+135.471+285.551+135.776C285.728+135.915+285.828+135.961+285.959+135.786" opacity="1" fill="#dfdfdf"/>
<path d="M335.311+126.689C334.636+126.682+333.812+126.238+333.79+126.875C333.774+127.356+334.534+127.092+334.691+127.384C334.877+127.728+334.637+128.08+334.879+128.458C335.041+128.71+335.589+128.782+335.699+128.44C335.775+128.202+335.689+127.614+335.859+127.425C336.151+127.099+336.885+127.55+336.983+126.917C337.024+126.646+336.982+126.528+336.578+126.593C336.137+126.664+335.483+126.691+335.311+126.689Z" opacity="1" fill="#686868"/>
<path d="M336.712+128.763C336.711+128.714+336.536+128.723+336.498+128.72C336.035+128.694+335.577+128.717+335.113+128.706C334.886+128.701+333.509+128.323+333.471+128.358C333.176+128.627+334.318+129.055+334.434+129.092C335.365+129.388+336.128+129.146+336.891+128.736" opacity="1" fill="#686868"/>
<path d="M339.862+118.061C340.102+118.124+340.294+118.525+340.269+118.945C340.246+119.324+340.027+119.72+339.863+119.867C339.265+120.403+338.919+119.134+338.563+119.371C338.204+119.61+338.186+119.833+337.962+120.182C337.737+120.534+337.641+120.981+337.584+120.937C337.236+120.663+339.307+117.917+339.862+118.061Z" opacity="1" fill="#686868"/>
<path d="M339.712+118.496C340.107+118.721+339.785+119.734+339.375+119.526C339.057+119.365+339.382+118.307+339.712+118.496Z" opacity="1" fill="#101010"/>
<path d="M329.71+117.958C329.546+118.102+329.387+118.242+329.351+118.459C329.273+118.936+329.688+119.635+330.146+119.791C330.469+119.901+330.834+119.932+331.033+119.594C331.144+119.406+331.082+119.168+331.02+118.973C331.013+118.953+331.036+118.521+331.113+118.54C331.469+118.632+331.797+119.363+332.004+119.938C332.113+120.242+332.077+120.877+332.201+120.934C332.358+121.007+332.234+121.071+332.236+120.516C332.24+119.318+330.85+117.815+330.343+117.642C330.127+117.568+329.978+117.721+329.71+117.958Z" opacity="1" fill="#686868"/>
<path d="M330.523+118.166C330.832+118.142+330.813+119.269+330.467+119.356C329.827+119.517+329.794+118.347+330.32+118.121" opacity="1" fill="#101010"/>
</g>
</svg>
