<svg version="1.2" baseProfile="tiny-ps" xmlns="http://www.w3.org/2000/svg" viewBox="0 0 818 476" width="818" height="476">
	<title>hero-svg</title>
	<defs>
		<linearGradient id="grd1" gradientUnits="userSpaceOnUse"  x1="149.3" y1="121.8" x2="43.9" y2="454.3">
			<stop offset="0" stop-color="#69ad73"  />
			<stop offset=".9" stop-color="#335e39"  />
			<stop offset="1" stop-color="#366e3f"  />
		</linearGradient>
		<radialGradient id="grd2" gradientUnits="userSpaceOnUse"  cx="619.4" cy="76.8" r="223.7">
			<stop offset="0" stop-color="#e3e3e3"  />
			<stop offset="1" stop-color="#b0e1b8"  />
		</radialGradient>
		<linearGradient id="grd3" gradientUnits="userSpaceOnUse"  x1="545.5" y1="101.5" x2="545.5" y2="133">
			<stop offset="0" stop-color="#000000"  />
			<stop offset="1" stop-color="#b0b0b0"  />
		</linearGradient>
		<linearGradient id="grd4" gradientUnits="userSpaceOnUse"  x1="583" y1="122.6" x2="585.2" y2="136.7">
			<stop offset="0" stop-color="#2d2d2d"  />
			<stop offset="1" stop-color="#b6b6b6"  />
		</linearGradient>
		<linearGradient id="grd5" gradientUnits="userSpaceOnUse"  x1="266.3" y1="61.5" x2="266.3" y2="49.5">
			<stop offset="0" stop-color="#e3e3e3"  />
			<stop offset="1" stop-color="#6e6e6e"  />
		</linearGradient>
		<linearGradient id="grd6" gradientUnits="userSpaceOnUse"  x1="313.2" y1="64.6" x2="312.8" y2="51.9">
			<stop offset="0" stop-color="#e3e3e3"  />
			<stop offset="1" stop-color="#6e6e6e"  />
		</linearGradient>
	</defs>
	<style>
		tspan { white-space:pre }
		.s0 { fill: url(#grd1) } 
		.s1 { fill: #000000 } 
		.s2 { fill: url(#grd2) } 
		.s3 { fill: #416847 } 
		.s4 { fill: #6da275;stroke: #6da275;stroke-linejoin:round;stroke-width: 1.7 } 
		.s5 { fill: #5b8c63;stroke: #5b8c63;stroke-linejoin:round;stroke-width: 1.3 } 
		.s6 { opacity: .7;fill: #416847 } 
		.s7 { opacity: .6;fill: #416847 } 
		.s8 { fill: url(#grd3) } 
		.s9 { fill: #ffffff } 
		.s10 { fill: url(#grd4) } 
		.s11 { fill: #050505 } 
		.s12 { fill: #b1b1b1 } 
		.s13 { opacity: 1;fill: #000000 } 
		.s14 { opacity: .9;fill: #000000 } 
		.s15 { fill: #e1e1e1 } 
		.s16 { fill: #e5e5e5 } 
		.s17 { opacity: .7;fill: #000000 } 
		.s18 { opacity: .8;fill: #000000 } 
		.s19 { fill: #d8d8d8 } 
		.s20 { fill: #c2c2c2 } 
		.s21 { opacity: .5;fill: #000000 } 
		.s22 { fill: #e3e3e3 } 
		.s23 { fill: url(#grd5) } 
		.s24 { fill: url(#grd6) } 
		.s25 { fill: #dfdfdf } 
		.s26 { fill: #686868 } 
		.s27 { fill: #101010 } 
	</style>
	<g id="Layer 1">
		<g id="Layer">
			<path id="Layer" class="s0" d="m1.98 236.81c-17.24-131.44 151.03-237.49 375.84-236.89c224.81 0.61 421.04 107.65 438.27 239.08c17.24 131.44-151.03 237.49-375.84 236.89c-224.81-0.61-421.04-107.65-438.28-239.08z" />
			<path id="Layer" class="s1" d="" />
		</g>
		<g id="Layer">
			<path id="Layer" class="s2" d="m90.24 117.37c-2.57-88.65 239.42-146.5 439.74-99.77c200.33 46.73 294.89 161.77 284.42 247.28c-10.46 85.51-129.09 141.9-329.41 95.16c-200.32-46.73-392.18-154.03-394.75-242.68z" />
			<path id="Layer" class="s1" d="" />
		</g>
		<g id="Layer">
			<path id="Layer" class="s3" d="m131.81 71.18c0-2.25 11.45-4.08 25.57-4.08c14.12 0 25.57 1.83 25.57 4.08c0 2.25-11.45 4.08-25.57 4.08c-14.12 0-25.57-1.83-25.57-4.08z" />
			<path id="Layer" class="s4" d="m170.76 21.54l10.84 47.82h-21.69l10.84-47.82z" />
			<path id="Layer" class="s5" d="m170.55 21.11c0.34 0.24-4.44 48.73-4.44 48.73l-6.7 0.04c0 0 10.8-49.01 11.14-48.77z" />
		</g>
		<g id="Layer">
			<path id="Layer" class="s3" d="m211.9 167.12c0-2.36 11.77-4.26 26.29-4.26c14.52 0 26.29 1.91 26.29 4.26c0 2.35-11.77 4.26-26.29 4.26c-14.52 0-26.29-1.91-26.29-4.26z" />
			<path id="Layer" class="s4" d="m251.95 115.22l11.15 49.99h-22.3l11.15-49.99z" />
			<path id="Layer" class="s5" d="m251.73 114.78c0.35 0.25-4.56 50.95-4.56 50.95l-6.89 0.04c0 0 11.1-51.23 11.46-50.99z" />
		</g>
		<g id="Layer">
			<path id="Layer" class="s3" d="m185 113.43c0-1.97 10.48-3.56 23.4-3.56c12.92 0 23.4 1.59 23.4 3.56c0 1.97-10.48 3.56-23.4 3.56c-12.92 0-23.4-1.59-23.4-3.56z" />
			<path id="Layer" class="s4" d="m220.64 70.13l9.92 41.72h-19.85l9.92-41.72z" />
			<path id="Layer" class="s5" d="m220.45 69.76c0.31 0.21-4.06 42.51-4.06 42.51l-6.14 0.03c0 0 9.88-42.75 10.2-42.54z" />
		</g>
		<g id="Layer">
			<path id="Layer" class="s3" d="m316.17 113.25c0-1.97 10.48-3.56 23.4-3.56c12.92 0 23.4 1.59 23.4 3.56c0 1.97-10.48 3.56-23.4 3.56c-12.92 0-23.4-1.59-23.4-3.56z" />
			<path id="Layer" class="s4" d="m351.81 69.94l9.92 41.71h-19.85l9.92-41.71z" />
			<path id="Layer" class="s5" d="m351.62 69.57c0.31 0.21-4.06 42.51-4.06 42.51l-6.13 0.03c0 0 9.88-42.75 10.2-42.54z" />
		</g>
		<g id="Layer">
			<path id="Layer" class="s3" d="m297.13 255.44c0-2.02 8.78-3.66 19.61-3.66c10.83 0 19.61 1.64 19.61 3.66c0 2.02-8.78 3.66-19.61 3.66c-10.83 0-19.61-1.64-19.61-3.66z" />
			<path id="Layer" class="s4" d="m327 210.93l8.32 42.88h-16.64l8.32-42.88z" />
			<path id="Layer" class="s5" d="m326.84 210.55c0.26 0.21-3.4 43.69-3.4 43.69l-5.14 0.03c0 0 8.28-43.94 8.55-43.73z" />
		</g>
		<g id="Layer">
			<path id="Layer" class="s3" d="m143.94 175.32c0-1.66 9.23-3 20.61-3c11.38 0 20.61 1.34 20.61 3c0 1.66-9.23 3-20.61 3c-11.38 0-20.61-1.34-20.61-3z" />
			<path id="Layer" class="s4" d="m175.34 138.8l8.74 35.18h-17.48l8.74-35.18z" />
			<path id="Layer" class="s5" d="m175.17 138.49c0.28 0.17-3.58 35.85-3.58 35.85l-5.4 0.03c0 0 8.7-36.05 8.98-35.88z" />
		</g>
		<path id="Layer" class="s3" d="m343.67 165.08c0-2.48 10.48-4.5 23.4-4.5c12.92 0 23.4 2.01 23.4 4.5c0 2.48-10.48 4.5-23.4 4.5c-12.92 0-23.4-2.01-23.4-4.5z" />
		<path id="Layer" class="s4" d="m379.32 110.36l9.92 52.72h-19.85l9.92-52.72z" />
		<path id="Layer" class="s5" d="m379.13 109.89c0.31 0.26-4.06 53.72-4.06 53.72l-6.13 0.04c0 0 9.88-54.02 10.2-53.76z" />
		<g id="Layer">
			<path id="Layer" class="s3" d="m359.93 57.88c0-2.36 11.35-4.27 25.36-4.27c14 0 25.36 1.91 25.36 4.27c0 2.36-11.35 4.27-25.36 4.27c-14 0-25.36-1.91-25.36-4.27z" />
			<path id="Layer" class="s4" d="m398.56 5.9l10.75 50.07h-21.51l10.75-50.07z" />
			<path id="Layer" class="s5" d="m398.35 5.46c0.34 0.25-4.4 51.02-4.4 51.02l-6.65 0.04c0 0 10.71-51.31 11.05-51.06z" />
		</g>
		<g id="Layer">
			<path id="Layer" class="s3" d="m408.16 284.06c0-1.97 10.48-3.56 23.4-3.56c12.92 0 23.4 1.59 23.4 3.56c0 1.96-10.48 3.56-23.4 3.56c-12.92 0-23.4-1.59-23.4-3.56z" />
			<path id="Layer" class="s4" d="m443.8 240.76l9.92 41.72h-19.85l9.92-41.72z" />
			<path id="Layer" class="s5" d="m443.61 240.39c0.31 0.21-4.06 42.51-4.06 42.51l-6.13 0.03c0 0 9.88-42.75 10.2-42.55z" />
		</g>
		<g id="Layer">
			<path id="Layer" class="s3" d="m413.75 212.99c0-1.96 10.48-3.56 23.4-3.56c12.92 0 23.4 1.59 23.4 3.56c0 1.97-10.48 3.56-23.4 3.56c-12.92 0-23.4-1.59-23.4-3.56z" />
			<path id="Layer" class="s4" d="m449.39 169.69l9.92 41.72h-19.85l9.92-41.72z" />
			<path id="Layer" class="s5" d="m449.2 169.32c0.31 0.21-4.06 42.51-4.06 42.51l-6.14 0.04c0 0 9.88-42.75 10.2-42.55z" />
		</g>
		<g id="Layer">
			<path id="Layer" class="s3" d="m507.49 333.6c0-2.6 11.09-4.71 24.76-4.71c13.67 0 24.76 2.11 24.76 4.71c0 2.6-11.09 4.71-24.76 4.71c-13.68 0-24.76-2.11-24.76-4.71z" />
			<path id="Layer" class="s4" d="m545.21 276.3l10.5 55.2h-21l10.5-55.2z" />
			<path id="Layer" class="s5" d="m545.01 275.81c0.33 0.27-4.3 56.25-4.3 56.25l-6.49 0.05c0 0 10.46-56.57 10.79-56.3z" />
		</g>
		<g id="Layer">
			<path id="Layer" class="s3" d="m711.78 162.89c0-2.6 11.09-4.71 24.76-4.71c13.68 0 24.76 2.11 24.76 4.71c0 2.6-11.09 4.71-24.76 4.71c-13.67 0-24.76-2.11-24.76-4.71z" />
			<path id="Layer" class="s4" d="m749.5 105.58l10.5 55.2h-21l10.5-55.2z" />
			<path id="Layer" class="s5" d="m749.29 105.1c0.33 0.27-4.3 56.25-4.3 56.25l-6.49 0.05c0 0 10.46-56.57 10.79-56.3z" />
		</g>
		<g id="Layer">
			<path id="Layer" class="s3" d="m699.21 292.71c0-1.96 10.48-3.56 23.4-3.56c12.92 0 23.4 1.59 23.4 3.56c0 1.97-10.48 3.56-23.4 3.56c-12.92 0-23.4-1.59-23.4-3.56z" />
			<path id="Layer" class="s4" d="m734.85 249.41l9.92 41.72h-19.85l9.92-41.72z" />
			<path id="Layer" class="s5" d="m734.66 249.04c0.31 0.21-4.06 42.51-4.06 42.51l-6.13 0.04c0 0 9.88-42.75 10.2-42.55z" />
		</g>
		<path id="Layer" class="s6" d="m498.42 136.31c1.62-7.53 23.73-8.39 49.39-1.92c25.66 6.46 45.15 17.81 43.53 25.33c-1.62 7.53-23.73 8.39-49.39 1.92c-25.66-6.46-45.15-17.81-43.53-25.33z" />
		<path id="Layer" class="s7" d="m252.14 73.99c-0.07-4.63 20.75-8.14 46.49-7.85c25.74 0.29 46.66 4.27 46.73 8.89c0.07 4.63-20.75 8.14-46.49 7.86c-25.74-0.29-46.66-4.27-46.73-8.9z" />
		<g id="Layer">
			<path id="Layer" class="s8" d="m538.8 118.7c0-9.74 2.93-17.64 6.54-17.64c3.61 0 6.54 7.9 6.54 17.64c0 6.54 0.86 13.39-1.12 16.43c-0.97 1.49-3.05 2.02-5.23 1.9c-2.2-0.12-4.57-0.5-5.54-2.28c-1.71-3.13-1.19-9.84-1.19-16.05z" />
			<path id="Layer" class="s1" d="" />
		</g>
		<g id="Layer">
			<path id="Layer" class="s9" d="m564.26 143.11c-0.04-9.74 2.85-17.65 6.46-17.67c3.61-0.02 6.57 7.87 6.61 17.61c0.03 6.22 0.13 12.83-1.66 15.98c-1.01 1.78-3.5 1.68-4.81 1.69c-1.33 0.01-4.09-0.12-5.13-1.95c-1.79-3.15-1.46-9.5-1.48-15.66z" />
			<path id="Layer" class="s1" d="" />
		</g>
		<g id="Layer">
			<path id="Layer" class="s9" d="m578.69 138.94c0-10.64 2.54-19.27 5.67-19.27c2.57 0 4.75 5.82 5.44 13.81c0.15 1.73 0.23 3.57 0.23 5.47c0 7.26 0.15 14.53-1.59 17.82c-0.81 1.53-3.08 1.45-4.08 1.45c-1.2 0-3.79 0.17-4.71-1.99c-1.47-3.48-0.97-10.72-0.97-17.28z" />
			<path id="Layer" class="s1" d="" />
		</g>
		<g id="Layer">
			<path id="Layer" class="s9" d="m524.79 122.74c0-9.74 2.93-17.64 6.54-17.64c3.61 0 6.54 7.9 6.54 17.64c0 6.55 0.86 13.39-1.12 16.43c-0.97 1.49-3.05 2.02-5.23 1.9c-2.2-0.12-4.57-0.5-5.54-2.28c-1.71-3.13-1.19-9.84-1.19-16.05z" />
			<path id="Layer" class="s1" d="" />
		</g>
		<path id="Layer" class="s10" d="m586.95 123.22c1.05 1.2 1.08-0.59 1.45 0.94c0.36 1.5 0.4 1.61 0.52 2.54c0.22 1.7 0.38 3.16-0.54 7.6c-0.22 1.04-1.43 4.01-2.04 4.88c-0.73 1.04-1.54 1.93-2.23 2.54c-0.87 0.77-2.5 1.92-3.51 2.47c-0.14 0.08-1.82 1.04-2 0.79c-0.08-0.11-0.06-0.49-0.06-0.61c0.05-0.8-0.01-7.75-0.01-7.75c0 0 0.04 0.95 0.05-1.08c0-0.82 0.29-2.13 0.03-2.9" />
		<g id="Layer">
			<path id="Layer" class="s9" d="m528.41 101.21c4.31-8.79 21.17-9.13 37.64-0.75c16.48 8.38 26.34 22.3 22.02 31.09c-4.31 8.79-21.17 9.13-37.64 0.75c-1.9-0.97-3.72-2.01-5.44-3.11c-13.13-8.42-20.4-20.2-16.58-27.98z" />
			<path id="Layer" class="s1" d="" />
		</g>
		<path id="Layer" class="s11" d="m589.85 146.82c0.16 0.43 0.05 1.19 0.04 1.65c-0.03 1.34 0.03 4.61-0.81 5.64c-0.3 0.37-0.95 0.49-1.4 0.45c-3.07-0.3-2.88-5.83-1.18-7.59c0.58-0.6 1.42-0.92 2.25-0.93c0.24 0 0.76 0.31 0.76 0.31" />
		<path id="Layer" class="s1" d="m578.66 139.65c3.57-1.08 3.82 5.07 2.33 6.89c-0.12 0.14-2.19 2.11-2.35 1.55" />
		<path id="Layer" class="s1" d="m577.35 147.8c0.05-0.08-0.05 0.42-0.05 0.42l0.02 0.56l-0.08 1.66c0 0-0.07 2.79-0.37 4.37c-0.09 0.47-1.37 0.25-2.48-0.05c-7.33-2.01-4.34-10.12 2.95-7.72" />
		<path id="Layer" class="s1" d="m565.63 138.17c2.07-2.11 3.8 1.56 2.64 3.63c-1.19 2.13-3.37 1.01-3.45-1.07c-0.03-0.79 0.55-1.34 0.61-2.04" />
		<path id="Layer" class="s1" d="m525.3 116.41c-0.01-0.1 1.12 0.61 1.28 0.77c0.62 0.67 1.31 1.54 1.59 2.43c0.62 1.98-0.11 6.75-2.98 6.72c-0.57 0-0.31-1.16-0.4-1.6c-0.18-0.88 0.02-1.99 0.06-2.99c0.04-1.04-0.06-1.97 0.04-2.88c0.07-0.66 0.34-1.33 0.29-1.98" />
		<path id="Layer" class="s1" d="m537.95 135.35c-0.16 2.68-1.17 5-3.86 5.83c-1.29 0.4-2.54-0.09-3.81-0.32c-0.04-0.01-0.56 0.02-0.56 0c0.41-2.4 5.46-7.42 8.11-5.97" />
		<path id="Layer" class="s12" d="m538.36 116.17c0.94 1.91 3.34 3.44 5.04 4.56c3.46 2.26 7.52 4.89 11.57 5.81c2.28 0.52 4.77 0.33 6.89 1.41c1.56 0.79 2.58 2.59 4.11 3.51c1.13 0.67-4.69-2.04-3.7-1.24c0.52 0.42 1.34 0.38 1.64 0.98c0.34 0.68-0.03-0.23 0.37 0.45c0.05 0.09-0.12 0.94-0.15 0.86c-0.13-0.26 2.32 1.85 2.16 1.94c-0.57 0.34-0.71 2.81-1.36 2.92c-0.65 0.11-1.5-0.2-2.26-0.36c-1.89-0.38-4.22-1.18-5.82-1.85c-3.03-1.28-4.93-2.04-7.82-3.6c-3.94-2.12-7.8-4.83-10.01-6.73c-3.32-2.87-3.21-3.24-3.65-6.64" />
		<path id="Layer" class="s12" d="m564.61 133.22c1.2 0.54-3.63-3.42-2.34-3.35c2.89 0.16 8.96 3.01 12.79 3.01c4.88 0 7.08-2.32 8.74-2.79c1.13-0.31 3.07 0.6 3.27 2.25c0.11 0.91-1.05 2.12-2.16 2.97c-0.79 0.6-1.5 0.96-1.96 1.21c-1.64 0.9-4.02 1.57-5.91 1.66c-1.36 0.06-1.93-0.15-3.29-0.23c-1.45-0.09-2.79-0.22-4.24-0.47c-1.21-0.21-2.53-0.09-3.75-0.16c-0.24-0.01-1.1 0.13-1.23-0.03" />
		<path id="Layer" class="s13" d="m530.17 104.86c1.15-0.86 2.82-1.22 4.21-1.38c8.56-0.95 15.5 11.29 10.57 18.42c-2.1 3.04-6.68 1.45-8.78-0.61c-3.93-3.85-0.53-10.53-7.52-11.86c-1.43-0.27 0.73-3.98 1.53-4.58z" />
		<path id="Layer" class="s14" d="m566.73 109.7c3.7 0.63 6.78-3.79 10.03 0.17c2.31 2.82 3.07 8.73-1.61 9.6c-1.08 0.2-2.2-0.31-3.23-0.17c-1.74 0.22-3.2 1.49-5.01 1.12c-7.03-1.43-11.51-14.27-2.59-13.88c2.78 0.12 0.32 2.8 2.42 3.16z" />
		<path id="Layer" class="s14" d="m560.89 99.87c1.12 2.28-3.67 3-4.33 3.89c-0.72 0.98-0.6 3-1.95 3.46c-5.46 1.85-12.01-7.37-7.52-11.37c1.98-1.77 12.59 1.55 13.81 4.02z" />
		<path id="Layer" class="s15" d="m523.12 88.64c-2.4-0.26-4.98-0.73-6.27-2.94c-0.13-0.21-1.07-1.4-0.98-1.59c0.11-0.25 1.38-0.41 1.64-0.45c1.62-0.23 3.23-0.15 4.64 0.78c0.67 0.44 1.18 0.66 1.67 1.35c0.08 0.12 0.35 0.44 0.05 0.41" />
		<path id="Layer" class="s9" d="m528.78 104.37c0.18 0.84-0.81 0.92-1.1 0.78c-0.07-0.03-0.21-0.16-0.37-0.33c-0.31-0.33-0.71-0.8-0.78-0.92c-0.89-1.52-0.58-2.75-2.73-2.55c-2.19 0.2-2.53 0.78-4.27 1.96c-0.78 0.53-0.7 0.59-1.68 0.87c-1.73 0.49-4.88-1.11-5.14-2.96c-0.24-1.76-0.04-2.69 1.53-4.02c0.45-0.38 0.88-0.94 1.38-1.24c1.15-0.69 0.64-0.65 1.99-2.08c1.34-1.43 1.64-1.7 1.77-2.14c0.46-1.5 0.46-1.66 0.99-3.13c0.34-0.95 0.58-2.1 1.45-2.81c0.96-0.78 2.47-0.69 3.06-1.33c1.38-1.5 1.32-2.06 4.13-1.84c2.08 0.16 2.78 1.5 3.85 2.85c1.19 1.5 1.63 1.43 2.81 3.46c0.18 0.31-0.2 1.91 1.04 3.98c1.24 2.07 2.93 2.12 3.76 3.33" />
		<path id="Layer" class="s16" d="m529.25 88.07c1.21-0.08 1.94-0.64 3.39-0.47c0.8 0.09 1.79 0.43 2.52 0.79c0.37 0.18 2.55 2.08 2.46 2.45c-0.02 0.06-1.07 0.93-2.32 1.15c-1.25 0.22-1.1 0.06-2.7-0.28c-1.87-0.39-3.12-1.18-3.42-2.65" />
		<path id="Layer" class="s14" d="m533.4 93.42c1.16 1.05 0.97 2.67 1.56 3.34c0.09 0.11 2.7-0.73 3.26-0.05c2.01 2.41-4.68 3.84-6.01 3.65c-2.2-0.31-2.75-4.55-1.97-6.17c0.43-0.88 1.77-1.72 2.79-1.06" />
		<path id="Layer" class="s17" d="m525.31 90.36c3.25-3.87 4.72 2.37 2.16 4.25c-1.03 0.76-2.46 0.32-2.89-0.92c-0.17-0.51-0.22-0.16-0.05-1.26c0.17-1.1 0.13-0.6 0.25-1.06" />
		<path id="Layer" class="s18" d="m517.2 94.44c0.35-0.27 1.05 1.76 1.05 2.15c0 2.4-4.04 5.38-5.01 2.98c-0.36-0.9 0.07-1.25 0.12-1.47c0.09-0.47 3.37-3.3 3.84-3.66z" />
		<path id="Layer" class="s19" d="m528.05 90.05c1.87 1.61-0.98 5.56-2.7 3.79c-2.05-2.11 0.83-5.39 2.7-3.79z" />
		<path id="Layer" class="s20" d="m519.46 90.24c0.45-3.72 4.26-2.58 3.87 0.05c-0.3 2.06-4.16 2.35-3.87-0.05z" />
		<path id="Layer" class="s1" d="m526.07 91.43c0.29-0.64 1.01-0.91 1.6-0.59c0.6 0.32 0.85 1.1 0.56 1.74c-0.29 0.64-1 0.91-1.6 0.59c-0.6-0.32-0.85-1.1-0.56-1.74z" />
		<path id="Layer" class="s1" d="m521 89.71c0.27-0.61 0.96-0.85 1.53-0.56c0.57 0.3 0.81 1.03 0.53 1.64c-0.27 0.61-0.96 0.85-1.52 0.56c-0.57-0.3-0.81-1.03-0.53-1.64z" />
		<path id="Layer" class="s9" d="m586.03 134.21c0.39-0.42 0.29-0.38 0.46-0.52c0.48-0.37 1.2-1.27 1.28-1.48c0.02-0.06 1.49 0.42 2.97-0.08c2.24-0.76 4.91-2.81 5.85-4.67c0.53-1.04 0.59-2.37 0.37-3.51c-0.14-0.73-0.56-1.51-0.53-2.26c0.04-1.02 0.69-1.74 1.62-0.92c1.01 0.89 1.17 2.56 1.27 3.82c0.41 4.82-3.71 9.36-8.13 10.52c-1.53 0.4-3.13 0.62-4.62-0.05c-0.2-0.09-1.02-0.18-0.98-0.38" />
		<path id="Layer" class="s18" d="m512.98 100.41c0.49-0.31 3.61 1.83 3.05 2.33c-0.18 0.16-0.64-0.18-0.88-0.19c-0.33-0.02-0.4 0.25-0.61 0.37c-0.61 0.34-0.77-0.91-0.95-1.14c-0.15-0.19-0.94-1.15-0.61-1.37z" />
		<path id="Layer" class="s14" d="m527.18 82.7c0.37 1.27 1.16 2.46 0.4 3.88c-0.39 0.73-1.7 1.57-2.43 0.81c-0.32-0.33-0.48-0.87-0.76-1.25c-0.23-0.3-0.67-0.7-0.72-1.11c-0.01-0.05 0.37-0.07 0.7-0.2c0.36-0.14 0.54-0.41 0.62-0.5c0.33-0.37 0.55-0.7 0.97-1.07c0.21-0.18 0.35-0.33 0.66-0.46c0.1-0.04 0.52-0.23 0.56-0.11z" />
		<path id="Layer" class="s21" d="m538.55 94.79c-0.01 0.07-1.43 0.98-1.97 1.31c-1.45 0.91-2.84 1.99-4.07 3.2c-1.31 1.29-2.66 2.54-3.84 3.97c-0.12 0.14-1.21 1.65-1.26 1.65c-0.04 0-0.18-0.2-0.29-0.32c-0.17-0.19-0.35-0.38-0.58-0.71c-0.23-0.32-0.35-0.71-0.48-1.04c-0.06-0.16-0.28-0.79-0.61-1.13c-0.3-0.31-0.71-0.31-0.7-0.35c0.05-0.24 1.84-1 2.04-1.12c1.23-0.71 2.51-1.51 2.51-1.51c0 0 2.52-1.07 3.75-1.67c0.66-0.32 1.05-0.91 1.63-1.25c1.03-0.62 2.12-1.23 3.26-1.48" />
		<path id="Layer" class="s14" d="m549.75 132.33c-0.21-0.99-2.56-4.69-1.47-7.49c1.15-2.93 5.22-2.63 7.61-1.89c3.6 1.12 7.32 3.51 9.49 6.71c4.24 6.27 3.12 8.58-4.05 7.24c-1.6-0.3-3.43-0.84-4.92-1.51c-1.29-0.57-2.71-1.11-2.71-1.11c0 0-3.88-1.68-3.94-1.95z" />
		<path id="Layer" class="s13" d="m587.17 133.35c-0.56 0.29-0.81-0.31-1.36-0.17c-3.57 0.91-3.09-1.23-4.5-3.63c-1.25-2.13-4.26-1.63-0.51-5.45c3.01-3.06 7.34 0.11 8.07 3.46c0.09 0.43 0.47 0.54 0.25 1.6c-0.05 0.25-0.2 1.14-0.59 1.98c-0.45 0.98-1.14 1.91-1.14 1.91" />
		<path id="Layer" class="s9" d="m317.47 51.67c0.51 0.05 0.08 8.6 0.14 9.54c0.24 4.15 0.57 12.96-0.12 13.96c-0.18 0.26-0.8 0.88-1.41 0.88c-0.75 0-1.4-0.62-1.47-0.8c-0.66-1.68-0.33-4.35-0.37-6.17c-0.03-1.83-0.07-3.67-0.16-5.47c-0.13-2.55-1.66-5.55-1.39-8.09" />
		<path id="Layer" class="s9" d="m314.51 53.46c0.61 0.4-1.29 9.1-1.37 9.91c-0.27 2.85-0.71 5.22-0.73 7.61c-0.01 1.37 0.5 4.29-0.07 5.58c-0.55 1.23-1.88 0.48-2.28-0.43c-0.62-1.41-0.09-4.65-0.09-5.07c0.01-1.27 0.03-2.49-0.03-3.77c-0.05-0.99-1.63-6.13-1.8-8.53c-0.19-2.6 1.04-2.48 1.15-3.55" />
		<path id="Layer" class="s9" d="m270.11 53.94c0.51 0.06 0.21 2.46 0.22 2.88c0.08 2.62 0.14 5.15-0.25 7.74c-0.27 1.83 0.48 11.01-1.97 10.95c-2.78-0.08-2.34-3.44-2.2-5.3c0.39-5.04 0.46-10.36 0.37-15.42" />
		<path id="Layer" class="s9" d="m266.62 54.81c-0.44 4.22-0.99 8.81-1.77 12.97c-0.09 0.5-0.16 3.58-0.82 3.51c-1.1-0.12-2.02-0.06-2.29-0.94c-0.32-1.04 0.13-3.08 0.34-4.01c0.6-2.74 0.86-6.7 0.5-10.2c-0.33-3.21-1.28-5.96-0.8-8.5" />
		<path id="Layer" class="s9" d="m310.53 38.73c-0.05-0.49-0.78-1.27-0.98-1.79c-0.64-1.66 0.69-1.63 0.74-2.03c0.06-0.43-0.26-0.8 0-1.26c0.1-0.18 0.13-0.16 0.32-0.26c0.44-0.25 1.04 0 1.38-0.19c0.76-0.43 0.59-1.38 1.75-1.59c0.47-0.08 1.19 0.9 1.36 0.48c0.29-0.71 0.01-1.21 1.18-1.33c0.49-0.05 1.21 0.98 1.39 0.54c0.29-0.71 1.22-1.85 2.33-1.12c0.22 0.14 0.09 0.69 0.35 0.67c0.53-0.03 1.34-0.79 1.98 0c0.91 1.13 0.98 0.05 2.16 0.94c0.35 0.27-0.05 0.84 0.31 0.89c0.46 0.07 1.29-0.13 1.64 0.31c0.27 0.34-0.46 0.76-0.26 1.01c0.2 0.25 0.88 0.13 1.16 0.46c0.71 0.81-0.31 1.33 0.04 1.91c0.19 0.31 0.64 0.43 0.81 0.8c0.04 0.09 0.08 0.18 0.09 0.28c0.04 0.35-0.5 4.5-0.53 4.54c-0.26 0.35-1.1-0.05-1.15 0.27c-0.2 1.23-0.74 2.34-1.8 3.22c-0.64 0.53-1.69 0.47-2.43 1.08c-1.38 1.15-6.27 2.57-7.93 0.81" />
		<path id="Layer" class="s22" d="m313.81 34.75c-0.06 0.2-1.19-0.64-1.28-0.72c-0.17-0.14-0.29-0.33-0.42-0.5c-0.87-1.12-1.24-2.87-0.98-4.4c0.09-0.55 0.32-1.08 0.46-1.62c0.01-0.05 0.01-0.14 0.06-0.15c0.43-0.08 1.21 0.58 1.52 0.8c1.28 0.91 2.68 3.1 2.73 4.86" />
		<path id="Layer" class="s23" d="m262.04 52.5c-0.44-0.29 1.59-1.18 1.86-1.19c1.2-0.02 2.66 0.66 3.7 1.27c0.56 0.33 2.66 2.06 2.89 2.56c0.35 0.76 0.27 3.36 0.09 4.21c-0.11 0.5 0.1 1.47-0.16 1.89c-0.04 0.07-0.25-0.05-0.3-0.06c-0.67-0.2-1.43-0.38-2.15-0.36c-0.34 0.01-0.87 0.06-1.19 0.15c-0.09 0.03-0.25 0.35-0.29 0.33c-0.1-0.05-0.06-2.88-0.09-3.06c-0.02-0.13-0.01-0.11 0-0.23c0.01-0.11 0 0.23-0.01 0.34c-0.02 0.2-0.05 0.39-0.07 0.59c-0.05 0.46-0.09 1.81-0.31 2.1c-0.12 0.16-0.28-0.28-0.44-0.39c-0.21-0.14-0.29 0.02-0.48-0.03c-0.18-0.05-0.26-0.31-0.44-0.39c-0.39-0.17-1.43 0.69-1.69 0.14c-0.27-0.55-0.24-1.16-0.25-1.41c-0.03-1.2 0.01-1.22-0.06-2.59c-0.08-1.37-0.18-1.12-0.26-1.96c-0.08-0.84 0.02-1.16-0.04-1.02" />
		<path id="Layer" class="s22" d="m324.76 34.21c0.32-0.25 0.52-0.9 0.81-1.23c0.99-1.15 1.92-2.16 3.34-2.73c0.23-0.09 1.47-0.67 1.7-0.44c0.39 0.4 0.09 1.87-0.05 2.28c-0.72 2.15-2.61 3.29-4.69 3.71" />
		<path id="Layer" class="s24" d="m308.24 57.31c1.15-1.44 1.3 0.31 2.04 0.18c0.19-0.03 1.38-0.99 1.47-1.2c0.05-0.12 0.13-0.95 0.34-0.9c0.29 0.07 0.62 0.87 1.34 0.3c0.27-0.22-0.09-1.07 0.04-1.43c0.07-0.2 0.43-0.1 0.52-0.26c0.14-0.24-0.05-0.58 0.01-0.83c0.03-0.12 0.29-0.1 0.41-0.16c0.3-0.15 0.38-0.41 0.63-0.61c0.1-0.08 2.6 0.5 2.75 0.67c0.28 0.33 0 2.01-0.05 2.38c-0.11 0.9 0.1 1.86 0.12 2.74c0.03 1.15-0.17 2.36-0.17 3.53c0 0.78-0.08 1.61 0.07 2.38c0.01 0.06 0.09 0.23-0.01 0.27c-0.48 0.19-1.45-0.38-2.03-0.23c-0.34 0.09-0.7 0.14-1.04 0.24c-0.08 0.03-0.44 0.29-0.45 0.25c-0.32-0.84 0.03-1.98-0.39-2.85c-0.04-0.08-0.09-0.73-0.18-0.75c-0.11-0.03-0.06 0.22-0.1 0.33c-0.13 0.37-0.42 2.68-0.49 2.71c-0.03 0.01-1.8-0.56-2-0.6c-0.64-0.14-1.56 0.45-1.84 0.39c-0.2-0.04-0.23-0.91-0.38-1.09c-0.16-0.19-0.76-4.05-0.77-4.42" />
		<path id="Layer" class="s9" d="m317.47 47.39c0.46 0.01 1.18 0.35 1.24 0.9c0.03 0.29-0.75 0.39-0.75 0.39c0 0 1 0.55 0.83 0.94c-0.83 1.86 0.37 0.5 0.12 1.52c-0.06 0.25-0.53 0.3-0.67 0.53c-0.02 0.03-0.04 0.08-0.03 0.11c0.06 0.28 0.46 0.31 0.46 0.7c0 0.23-0.99 1.73-1.1 2.18c-0.1 0.4 0.35 0.7-0.03 1.08c-0.09 0.09-0.54 0.11-0.55 0.13c-0.15 0.24 0.22 0.91-0.38 0.89c-0.43-0.01-0.76-0.79-1.09-0.72c-0.25 0.06-0.47 0.51-0.74 0.44c-0.44-0.11-0.29-0.97-0.84-0.99c-0.4-0.01-0.85-0.19-1.2 0c-0.23 0.13-0.47 0.89-0.64 0.9c-0.18 0-0.34-0.48-0.55-0.36c-0.3 0.19 0.1 0.88-0.3 1.03c-0.22 0.08-0.71-0.22-0.81-0.14c-0.05 0.04 0.16 0.7 0.13 0.83c-0.14 0.56-0.5 0.04-0.75 0.17c-0.34 0.17-0.76 1.41-1.18 1.82c-0.3 0.29-0.55-0.51-0.78-0.2c-0.27 0.38-0.1 1.53-0.76 1.56c-0.27 0.01-0.38-0.71-0.72-0.43c-0.17 0.14-0.32 1.1-0.61 1.05c-0.29-0.05-0.4-0.85-0.76-0.63c-0.12 0.07-0.32 0.6-0.45 0.58c-0.25-0.04-0.46-0.98-0.77-0.68c-0.23 0.22-0.41 1.22-0.72 1.29c-0.35 0.08-0.24-1.4-0.61-1.36c-0.44 0.04-0.54 0.72-0.84 0.94c-0.35 0.26-0.46-0.5-0.74-0.53c-0.46-0.05-0.82 1.05-1.01 0.17c-0.01-0.03-0.06-0.25-0.06-0.25c-0.16-0.11-0.24 0.26-0.29 0.33c-0.04 0.05-0.08 0.09-0.13 0.14c-0.63 0.59-1.57-0.07-2.03 0.03c-0.16 0.04-0.25 0.46-0.4 0.57c-0.05 0.03-0.32 0.17-0.39 0.14c-0.28-0.11-0.39-0.65-0.64-0.82c-0.37-0.24-0.56 0.43-0.92 0.37c-0.37-0.06-0.58-0.85-1.1-0.98c-0.1-0.03-0.04-0.2-0.06-0.31c-0.06-0.26 0.06-0.83-0.47-0.96c-0.19-0.05-0.15 0.4-0.31 0.5c-0.3 0.18-0.78-0.67-0.97-0.37c-0.09 0.15 0.1 0.46-0.07 0.66c-0.27 0.32-0.5-0.28-0.81-0.14c-0.26 0.12-0.3 0.52-0.59 0.67c-0.27 0.14-0.55-0.24-0.75-0.1c-0.27 0.19-0.26 0.65-0.57 0.77c-0.29 0.11-0.64-0.33-0.78-0.2c-0.22 0.22-0.15 0.69-0.53 0.71c-0.27 0.01-0.43-0.38-0.71-0.38c-0.28 0.01-0.48 0.82-0.74 0.7c-0.13-0.06-0.29-0.63-0.49-0.59c-0.37 0.08-0.27 0.76-0.7 0.86c-0.42 0.09-0.68-0.81-0.85-0.77c-0.44 0.1-0.36 0.24-0.79 0.23c-0.21-0.01-0.29 0.7-0.4 0.84c-0.32 0.42-0.92-0.04-1.02 0.12c-0.2 0.33-0.06 1.07-0.47 1.23c-0.58 0.22-1.1-0.91-1.51-0.73c-0.28 0.13-0.34 1.14-0.77 1.03c-0.91-0.23-1.33-1.25-2.2-1.96c-0.43-0.35-1.26 0.05-1.53-0.08c-0.25-0.11 0.14-0.76-0.13-0.83c-0.13-0.03-0.38 0.3-0.57 0.29c-0.06 0-0.12-0.03-0.17-0.07c-0.1-0.08-0.12-0.59-0.18-0.6c-0.19-0.05-0.41 0.19-0.61 0.08c-0.29-0.14-0.98-2.08-1.21-2.46c-0.13-0.22-0.54 0.1-0.67-0.22c-0.37-0.86-0.68-1.85-1.26-2.23c-0.04-0.03-0.19 0.45-0.45 0.32c-0.22-0.11-0.23-0.78-0.5-0.85c-0.18-0.05-0.39 0.33-0.56 0.07c-0.16-0.24-0.01-0.7-0.25-0.91c-0.42-0.37-2.92 0.29-3.52 0.42c-0.36 0.08-0.53-0.69-0.86-0.82c-0.35-0.14-0.46 0.33-0.76 0.33c-0.32 0.01-0.3-0.63-0.53-0.79c-0.25-0.16-0.61-0.02-0.88-0.23c-0.59-0.44-0.1-0.8-0.34-1.1c-0.19-0.24-0.28-0.82-0.59-1.12c-0.25-0.25-0.73-0.24-0.84-0.48c-0.14-0.3 0.14-0.51 0.22-0.8c0.08-0.3-0.65-0.35-0.75-0.63c-0.06-0.16 0.36-0.66 0.35-1.19c-0.01-0.41-0.44-0.86-0.61-1c-0.14-0.13-0.43 0.03-0.63-0.06c-0.2-0.09-0.32-0.42-0.54-0.36c-0.21 0.05-0.27 0.39-0.46 0.51c-0.28 0.17-0.65 0.1-0.79 0.01c-0.11-0.07-0.25-0.27-0.41-0.21c-0.13 0.05-0.27 0.34-0.4 0.34c-0.21 0-0.25-0.36-0.44-0.42c-0.09-0.03-0.34 0.19-0.42 0.21c-0.21 0.06-0.29-0.61-0.48-0.73c-0.19-0.12-0.69 0.25-0.83 0.02c-0.21-0.37-0.52-0.88-0.56-1.64c-0.02-0.45 0.47 0.25 0.36-0.03c-0.17-0.42-0.16-2.38 0.17-2.61c0.21-0.15 0.34 0.19 0.5 0.15c0.44-0.1-0.01-1.01 0.29-1.35c0.29-0.33 0.65 0.06 0.83-0.03c0.28-0.14 0.25-0.68 0.71-0.86c0.28-0.11 0.7 0.59 0.7 0.59c0 0 0.73-0.97 1.1-0.73c0.27 0.18-0.06 1.03 0.26 0.96c0.48-0.11 0.63-0.79 1 0.04c0.06 0.14 0.03 0.56 0.08 0.36c0.17-0.69 0.66 0.28 0.59 0.3c-0.21 0.05-0.48-1.16-0.39-1.36c0.06-0.14 0.37 0.03 0.45-0.1c0.69-1.11-1.01-0.42 0.64-1.43c0.13-0.08-0.15-0.93 0.11-1.2c0.27-0.28 0.94 0.17 0.96 0.1c0.16-0.48-0.27-1.7 0.72-1.5c0.11 0.02 0.57 0.35 0.6 0.35c0.1-0.02-0.04-0.2-0.07-0.31c-0.04-0.18-0.23-1.1 0.18-1.11c0.18 0 0.39 0.51 0.44 0.33c0.12-0.47-0.33-0.91 0.06-1.41c0.14-0.17 0.56 0.52 0.59 0.29c0.03-0.3-0.54-1.06-0.06-1.27c0.18-0.08 0.44 0.51 0.49 0.32c0.07-0.3-0.33-0.83 0.14-1.05c0.05-0.02 0.1-0.03 0.15-0.03c0.18 0 0.27 0.53 0.4 0.39c0.18-0.19-0.08-1 0.19-1.06c0.1-0.02 0.66 0.72 0.71 0.64c0.16-0.26 0.1-1.05 0.48-1.18c0.42-0.15 0.45 0.54 0.78 0.46c0.32-0.07 0.27-0.78 0.77-0.82c0.45-0.04 0.55 0.59 0.91 0.6c0.37 0.01 0.63-0.81 1.18-0.86c0.46-0.04 0.45 0.7 0.62 0.72c0.24 0.02 0.74-0.65 1.05-0.72c0.61-0.14 0.52 0.62 0.71 0.64c0.14 0.02 0.44-0.74 0.72-0.8c0.09-0.02 0.22 0.1 0.24 0.16c0.66 1.26 0.29-0.54 1.13-0.09c0.19 0.1 0.29 0.62 0.4 0.66c0.14 0.06 0.5-0.67 0.68-0.74c0.81-0.31 0.16 0.89 0.84 0.02c0.08-0.1 0.06-0.17 0.22-0.21c0.4-0.09 0.24 0.62 0.4 0.66c0.06 0.01 0.33-0.91 0.64-0.9c0.27 0.01 0.46 0.7 0.46 0.7c0 0 0-0.23 0.03-0.33c0.32-0.83 0.7 0.42 0.72 0.43c0.19 0.02 0.58-0.62 0.86-0.62c0.29-0.01 0.01 1.04 0.24 0.86c0.25-0.21 0.94-0.92 0.98-0.06c0 0-0.07 0.38-0.02 0.38c0.36-0.02 0.67-0.52 1.05-0.45c0.3 0.05-0.17 1.1 0.1 0.94c0.21-0.13 0.57-1.22 0.93-0.53c0 0 0.13 0.45 0.15 0.45c0.38-0.09 0.38-0.78 0.81-0.88c0.4-0.09 0.47 0.64 0.85 0.56c0.3-0.07 0.38-0.75 0.74-0.92c0.32-0.15 0.85 0.83 0.94 0.48c0.16-0.64 0.76-1.35 0.99-0.28c0.06 0.3 0.29-0.96 0.52-0.76c0.1 0.09 0.13 0.41 0.23 0.32c0.25-0.21 0.08-0.67 0.64-0.68c0.21 0 0.3 0.57 0.46 0.43c0.2-0.16 0.03-0.53 0.43-0.69c0.61-0.24 0.52 0.72 0.78 0.73c0.24 0.01 0.49-0.59 0.88-0.52c0.26 0.04 0.1 0.78 0.36 0.72c0.3-0.07 0.26-0.91 0.81-0.88c0.3 0.02 0.31 0.64 0.5 0.64c0.4-0.01 0.35-0.75 0.84-0.72c0.38 0.02 0.58 0.99 0.88 0.92c0.17-0.04 0.25-0.63 0.36-0.78c0.2-0.26 0.78-0.31 1.02-0.13c0.22 0.17 0.05 0.84 0.32 0.78c0.16-0.04 0.31-0.87 0.81-0.88c0.22-0.01 0.04 0.74 0.24 0.64c0.1-0.05 0.22-0.3 0.28-0.39c0.74-0.97 0.59 0.25 0.92 0.38c0.25 0.1 0.82-0.74 1.21-0.7c0.33 0.03 0.28 0.85 0.48 0.8c0.36-0.08 0.6-0.72 1.06-0.67c0.35 0.04 0.17 0.79 0.34 0.83c0.16 0.04 0.95-0.64 1.27-0.66c0.66-0.03 0.39 0.93 0.72 0.91c0.44-0.02 1.33-0.74 1.67-0.27c0.09 0.13 0.1 0.63 0.25 0.69c0.31 0.12 0.91-0.49 1.27-0.4c0.36 0.09 0.12 0.86 0.27 1.01c0.23 0.22 0.93-0.31 1.22-0.17c0.48 0.22-0.27 0.75-0.15 1c0.13 0.27 0.8-0.22 1.04-0.02c0.23 0.19-0.01 0.78 0.07 0.84c0.94 0.61 0.98-0.16 0.66 1.14" />
		<path id="Layer" class="s19" d="m318.56 46.93c0.76-0.13 0.66 1.22 0.62 1.28c-0.16 0.21-1.36 0.59-1.26 0.91c0.12 0.41 0.95 0.84 1 1.33c0.04 0.38-0.58 0.63-0.56 0.96c0.03 0.52 0.51 1.45 0.09 1.86c-0.12 0.11-0.77 0.17-0.78 0.27c-0.19 1.75-1.42 0.46-2.37 0.1c-0.17-0.06-0.37 0.9-0.65 0.97c-0.22 0.05-1.33-0.64-1.47-0.73c-0.16-0.1-0.21-0.6-0.28-0.76c-0.66-1.47 0.07-0.95 0-2c-0.03-0.44-0.47-0.8-0.44-1.25c0.03-0.36 1.76-2.3 1.91-2.71c0.01-0.03 0.01-0.18 0-0.22c-0.34-1.27 0.24-1.48 0.28-2.63c0.01-0.38-0.67-0.48-0.75-0.85c-0.59-2.56-2.18-3.88-3.59-6.01c-0.53-0.81-1.05-3.82 0.41-3.71c0.05 0 0.52-0.07 0.53-0.06c0.73 0.6 0.1 1.48 0.87 1.94c0.09 0.05 0.21 0.11 0.21 0.25c-0.01 0.36-0.52 0.6-0.44 0.96c0.58 2.52 2.55 4.58 3.88 6.6c0.32 0.48 0.93 0.64 1.21 1.11c0.39 0.66 0.97 1.04 1.34 1.68c0.08 0.13 0.13 0.72 0.24 0.7z" />
		<path id="Layer" class="s22" d="m322.06 48.3c-1.45 0.81-3.88-1.22-4.57-2.28c-0.48-0.73-0.51-1.63-0.99-2.38c-1.85-2.83-4.95-6.08-2.53-9.61c0.74-1.08 2.25-1.27 3.45-1.55c4.19-0.99 9.36 1.35 8.92 5.97c-0.1 1-0.48 2-0.94 2.95c-1.23 2.56-0.39 5.23-3.35 6.89z" />
		<path id="Layer" class="s25" d="m270.83 56.03c0.03 0.11-0.18-1.31-0.01-1.75c0.04-0.1 2.55-1.19 3-1.02c1.29 0.49 1.59 3.03 3.19 3.01c0.89-0.01 1.78-2.57 2.93-2.09c0.52 0.22 1.28 2.01 1.52 2.05c1.51 0.3 0.92-1.64 1.94-1.93c0.07-0.02-0.44-2.68 2.19-2.16c0.52 0.1-0.39 0.84-0.38 0.91c0.07 0.57 2.02 1.8 2.64 1.92c1.7 0.34 1.59-0.87 1.89-0.96c0.31-0.09 0.55 0.62 0.91 0.6c0.26-0.01 0.28-0.61 0.56-0.45c0.47 0.27 0.56 0.99 1.14 1.21c0.29 0.11 0.92 0.13 1.17-0.05c0.21-0.14-0.24-0.82 0.01-0.77c0.36 0.07 0.57 0.5 1 0.48c0.53-0.03 0.13-0.85 0.4-1.04c0.37-0.26 1 0.44 1.45-0.06c0.23-0.26-0.14-1.08 0.19-1.01c0.05 0.01 0.3 0.72 0.33 0.77c0.55 0.83 5.02 1.1 5.69 0.64c0.23-0.16 0.27-0.72 0.67-0.64c0.19 0.04 0.46 0.44 0.69 0.35c0.29-0.12 0.05-1.08 0.35-1.12c0.51-0.07 2.19 1.27 2.72 1.52c0.54 0.26 0.53-0.73 0.98-0.86c0.75-0.21 0.71 0.58 1.15 0.79c0.28 0.13 0.8-0.1 1.06 0.21c0.66 0.79-0.5 1.08-0.48 1.1c0.31 0.47 1.19 1.16 0.81 1.84c-0.21 0.37-1.54-0.23-1.76-0.07c-0.16 0.11 0.2 1.42 0.24 1.59c0.07 0.27-0.73 0.22-0.84 0.47c-0.2 0.43-0.18 1.48-0.61 1.77c-0.23 0.16-2.09 0.52-2.28 0.46c-0.05-0.02-0.59-0.48-0.59-0.47c-0.28 0.29 0.1 0.91-0.23 1.22c-0.34 0.31-2.2 1-2.58 0.61c-0.07-0.07-0.16-0.44-0.33-0.42c-0.23 0.03-0.27 0.63-0.54 0.66c-0.52 0.07-0.49-0.78-0.83-1.01c-0.44-0.29-0.58 0.45-1.03-0.34c-0.04-0.06-0.3-0.76-0.33-0.77c-0.35-0.07-0.08 0.89-0.43 0.83c-0.08-0.02-0.84-1.24-0.94-1.17c-0.52 0.36-0.59 1.39-1.3 1.42c-0.8 0.05-1.89-1.71-2.45-1.47c-0.66 0.28-1.84 0.68-1.89 0.96c-0.03 0.14-0.01 0.38-0.14 0.39c-0.9 0.08-1.85-1.46-2.61-1.36c-0.48 0.07-0.5 1.58-0.97 1.49c-0.19-0.04-0.93-0.82-1.1-0.71c-0.98 0.68-1.8 0.74-2.72 1c-0.3 0.09-0.57-0.38-0.83-0.31c-0.32 0.09-0.26 1.28-0.52 1.3c-0.29 0.02-0.51-0.53-0.8-0.09c-0.22 0.33 0.04 1.21-0.46 1.31c-0.43 0.09-2.85-0.32-3.12-0.48c-0.33-0.19 0.2-1.57-0.5-1.71c-0.31-0.06-0.49 0.53-0.84 0.46c-0.29-0.06-0.41-0.61-0.57-0.6c-0.28 0.02-0.47 0.45-0.91 0.45c-1.26 0.01-1.59-2.25-2.09-3.01c-0.39-0.6-1.25-0.67-1.6-1.3c-0.15-0.26-0.03-0.83-0.21-1.02c-0.31-0.31-0.95-0.12-1.28-0.46c-0.12-0.12-0.21-1.16-0.59-1.59c-0.16-0.18-1.19 0.09-1.34 0.22c-0.04 0.04-0.22 0.6-0.25 0.58c-0.39-0.19-0.16-1.02-0.65-1.25c-0.44-0.21-1 0.19-1.41 0.21c-0.55 0.03-3.18-0.41-3.43-1.03c-0.06-0.15 0.36-0.37 0.22-0.45c-0.38-0.22-1.21 0.06-1.6-0.25c-0.36-0.28 1.06-0.73 0.9-1.15c-0.13-0.37-0.58-0.08-0.76-0.29c-0.52-0.59 0.01-1.52-0.09-2.05c-0.17-0.89-1.5-2.69-1.19-3.11c0.01-0.01 0.76-0.88 0.87-0.95c0.62-0.43 0.81 0.76 1.17 0.65c0.45-0.13 1.12-1.23 1.7-0.65c0.36 0.37 0.18 0.78 0.33 1.12c0.26 0.56 1.64-0.03 2.02 0.54c0.16 0.24-0.04 0.68 0.03 0.92c0.13 0.47 1.38 0.52 1.71 0.69c0.8 0.4 0.26 1.01 0.73 1.55c0.34 0.38 0.95 0.2 1.33 0.54c0.3 0.28-0.13 0.6-0.1 0.89c0.05 0.54 0.99 2.14 1.38 2.45c0.18 0.14 0.28 0.19 0.41 0.01" />
		<path id="Layer" class="s26" d="m322.58 45.59c0.4-0.06 0.45 0.05 0.41 0.32c-0.1 0.63-0.83 0.18-1.12 0.51c-0.17 0.19-0.08 0.78-0.16 1.02c-0.11 0.34-0.66 0.27-0.82 0.02c-0.24-0.38 0-0.73-0.19-1.07c-0.16-0.29-0.92-0.03-0.9-0.51c0.02-0.64 0.85-0.19 1.52-0.19c0.17 0 0.83-0.02 1.27-0.1z" />
		<path id="Layer" class="s26" d="m322.89 47.74c-0.76 0.41-1.53 0.65-2.46 0.36c-0.12-0.04-1.26-0.47-0.96-0.73c0.04-0.03 1.42 0.34 1.64 0.35c0.46 0.01 0.92-0.01 1.38 0.01c0.04 0 0.21-0.01 0.21 0.04" />
		<path id="Layer" class="s26" d="m325.86 37.06c0.24 0.06 0.43 0.46 0.41 0.88c-0.02 0.38-0.24 0.78-0.41 0.92c-0.6 0.54-0.94-0.73-1.3-0.5c-0.36 0.24-0.38 0.46-0.6 0.81c-0.22 0.35-0.32 0.8-0.38 0.75c-0.35-0.27 1.72-3.02 2.28-2.88z" />
		<path id="Layer" class="s27" d="m325.71 37.5c0.4 0.23 0.07 1.24-0.34 1.03c-0.32-0.16 0.01-1.22 0.34-1.03z" />
		<path id="Layer" class="s26" d="m316.34 36.64c0.51 0.17 1.9 1.68 1.89 2.87c0 0.55 0.12 0.49-0.03 0.42c-0.12-0.06-0.09-0.69-0.2-1c-0.21-0.58-0.54-1.31-0.89-1.4c-0.08-0.02-0.1 0.41-0.09 0.43c0.06 0.2 0.12 0.43 0.01 0.62c-0.2 0.34-0.56 0.31-0.89 0.2c-0.46-0.16-0.87-0.85-0.8-1.33c0.04-0.22 0.19-0.36 0.36-0.5c0.27-0.24 0.42-0.39 0.63-0.32z" />
		<path id="Layer" class="s27" d="m316.52 37.17c0.31-0.02 0.29 1.1-0.06 1.19c-0.64 0.16-0.67-1.01-0.15-1.23" />
	</g>
</svg>