<svg xmlns="http://www.w3.org/2000/svg" viewBox="0 0 260.44 182.88"><defs><style>.cls-1{fill:#6da275;}.cls-2{fill:#b0e1b8;}.cls-10,.cls-2,.cls-4,.cls-5,.cls-6{fill-opacity:0.99;}.cls-3{fill:#85af8c;}.cls-4{fill:#caa661;}.cls-5,.cls-8{fill:#f2b872;}.cls-6{fill:#e3a964;}.cls-7{fill:#caa662;}.cls-9{fill:#ad8d51;}.cls-10{fill:#a2834a;}</style></defs><g id="Ebene_2" data-name="Ebene 2"><g id="Ebene_1-2" data-name="Ebene 1"><path class="cls-1" d="M115.24,49.05c2.53.84,2.59.66,4.23,1.36a30.54,30.54,0,0,0,5.21,1.91c3.54.76,7.22-.81,10.67-1.9,12.21-3.88,22.77-7.54,35.55-4.62,11.71,2.69,27.7,11.87,38.11,19.82,7.14,5.45,11.63,15.25,17.58,22.52,6.43,7.86,18.1,8,23.94,16.68,8,11.89,12.92,35.56,7.85,52.26-2.29,7.57-10.85,9.67-15.6,12.21-14.48,7.74-30.18,3.47-45.22,7.6C171,184.2,144,183.71,117,181.23c-13-1.19-26.1-1.69-39.15-2.87-14.43-1.3-28.78-3.44-42.81-8.25S-1.36,138.52.07,116.91c.37-5.62,3.14-11.76,5.72-16C14.22,87,28.18,82.48,40.16,77.29,48.13,73.82,56,69.9,64.05,67c12.08-4.36,23.79-11.69,36.14-14.11,5.36-1,9.39-3.8,15-3.8"/><path class="cls-2" d="M219,66.36c7.78,9.38,17,20,24.29,28,3.26,3.6,5.8,8.11,8.79,12,5.05,6.64,5.69,5.79,8.06,24.41.69,5.42-12.76,9.68-16.64,10.77-3.7,1-7.21,2.74-10.9,3.82-10.14,3-21.75,3.6-32.12,4.45-6.23.51-12.37-.94-18.57-.51-7.72.54-15.23-1-22.88-1.66-10.18-.88-20.35-2.15-30.5-3.69-15.4-2.34-31.36.18-46.75-3.17-11.67-2.55-21.36-7.48-32.32-12.43-11.23-5.07-29.5-11.18-34.13-15.71S3.39,104.55,6.7,99.46c.71-1.08,3.69-4.6,7.29-8.55,7.18-7.89,2.09-3.67,13.57-10.26,9.8-5.63,3.32-1.81,13.68-6.28,4.19-1.81,15.15-5.07,19.3-7,12.06-5.63,25-14.78,37.47-18,5.27-1.37,11.27-3.52,16.7-3.6,4,0,7.89,1,11.87,1.11,4.34.15,8.78-.72,13.06-.7,6,0,11.59-3.69,17.5-3.49,18,.6,45.45,10.76,56,18.53"/><path class="cls-3" d="M37.27,115.05c-4.62-2-13,.63-15.88-6-3.52-8,12.21-9.92,15-10.8C52.79,93,71,89.81,88,93.1c2.08.41,4.45.54,6.46,1.44,20,8.89-3.12,18.53-12.74,19.26-5.82.44-12.17-.35-17.9.73"/><path class="cls-4" d="M123.66,22.87c-5.78,5.69-9.93,18.35-7.36,26.8,1.2,3.94,5,12.79,9.88,10.35,1.39-.69,2.63-3.44,3.7-4.72,5.09-6,11.77-17.39,8.4-25.43s-5.27-8.09-8.71-8.95a6.15,6.15,0,0,0-3.78.28A6.8,6.8,0,0,0,123.66,22.87Z"/><path class="cls-3" d="M137.17,110.26a70,70,0,0,1-13.86-.89c-11.88-2.09-16.06-12.58-7.79-22.68,6.33-7.74,20.3-10.1,28.9-10,21.57.16,45.47-7.94,66.56-4.23,4.74.83,14,.94,13.75,12.92s-10.25,13.94-15.86,16.71c-10.76,5.31-22,5-27.54,5.42C163.75,108.94,154.66,109.76,137.17,110.26Z"/><path class="cls-5" d="M116.29,49.43c-.88.72-3.31.13-4.43.36a36.68,36.68,0,0,0-8.45,2.31c-4,1.86-6.49,5.94-9,9.82-1.36,2.14-3.22,3.81-4.75,5.77-2.16,2.76-5,3.34-7.63,5.14-.8.55-1,1.71.1,2,.93.25,2.15-.32,3.06-.54,7.5-1.87,10.17-12.31,15.7-17.68.86-.84,3.16.38,4.55.06,4.13-1,8.47-2.53,12.73-2.34"/><path class="cls-6" d="M125.89,58.89s-.56,1.07-.69,1.29c-.46.8-1.51,3.44-2.55,3.17-.41-.11-.37-.7-.71-1-1.17-1-3.11-3.87-4.75-3.52-.65.14-2.25.35-2.25,1.47,0,1.28,3.07,1.27,3.91,1.76,1.82,1.08,2.4,4.54,4.69,5.08C126.11,67.78,131.16,56.83,125.89,58.89Z"/><path class="cls-7" d="M190.37,44.15c-5.81-1.9-12-2.66-17.9-4.58-1-.33-5.32-1.27-5.44.55-.07,1.16,2.28,2.19,2.91,2.64,3.35,2.4,7.87,2.92,11.7,3.32,1.3.13,2.58.22,3.89.28a11.9,11.9,0,0,0,1.34-.07c.19,0,.75.08.57,0"/><path class="cls-7" d="M186.17,50.1c-.27-.69-1.32-1.19-1.83-1.68"/><path class="cls-4" d="M120.31,28.82c0,.07,0,0,0,.11"/><path class="cls-8" d="M123.05,25.15c-.4.63-1.42,3-1.86,2.51-1.36-1.62,1.09-3.89,1.09-3.89"/><path class="cls-9" d="M19.78,96.38c3.09,3.57,2.07,2.68,4.38,4.55A36.48,36.48,0,0,0,39.61,108c7.7,1.67,15.25,1.92,22.7-1S78.93,92.77,84.17,86c3.44-4.46,11.46-16,9.09-22.63s-9.87-9-14.2-3.17C64.69,79.59,68,83.07,54.3,87.16c-11.2,3.35-18.76-7.61-28.92-7-2.84.16-11,2-10.21,7.36a14.83,14.83,0,0,0,3.13,7.13"/><path class="cls-7" d="M18.93,81.35c1.46-1.57,1.13-1.27,3-1.95a12.37,12.37,0,0,1,7.16,0c2.48.85,3,3.51,2.81,6.29-.34,4.26-2.37,8.62-4.17,12.24-.53,1.08-1.24,3.2-2.43,3.49-2.48.62-6.09-3.83-7.43-5.74a9.39,9.39,0,0,1-1.48-6.37,15.78,15.78,0,0,1,1.8-6.94"/><path class="cls-7" d="M34.07,81.94c-1.12.39-2.06,7-2.47,8.55-.84,3.2-2.34,6-3.38,9.06-.33,1-1.28,2.58-.86,3.7.47,1.3,5.85,3.1,7,3.52s4,1.88,5.27,1.12c2-1.16,2.55-6.61,2.8-8.68.61-5.12,1.21-7.88,1.17-11.74C43.55,83.92,36.67,81,34.07,81.94Z"/><path class="cls-7" d="M46.28,86.71c-1.35.26-1,.15-1.42.47a3.64,3.64,0,0,0-.67,2c-.54,4.6-1.14,9.22-1.87,13.82-.34,2.16-.78,3.77.71,5.63,2,2.5,6.92,1.34,8.69.77s2.5-3.37,2.65-5.12c.43-4.92,1.14-12.59-.72-16.88-.82-1.91-4-1-5.59-.72C47.74,86.77,46.63,86.64,46.28,86.71Z"/><path class="cls-7" d="M56.15,85.9c-1.38.36-1.12.3-1.37,1-.79,2.2,1.27,6.24,1.27,8.72,0,2.26-1.06,11.67-.31,13,.52.92,8.17-1.31,9.15-2.28,2.63-2.6-.13-14.78-1.25-18-.39-1.14-.69-4.13-1.78-4.67-.87-.43-2.29,1.12-3.11,1.39"/><path class="cls-7" d="M62.85,82.29c-.22,1.27.86,2.86,1.33,4,1.52,3.78,2.39,10.46,2.81,13s-1.21,3.53.81,4.78c1.07.67,2.22-.65,3.86-1.75s5.65-4.16,5.88-8.89c.22-4.54-4.6-9.94-7.59-12.13-1-.72-2.11-2.65-3.39-2.65C65,78.67,63.14,80.61,62.85,82.29Z"/><path class="cls-7" d="M69.1,74c-.91,1.81-2.16,2.72-1.59,3.72,1.82,3.24,6,4.73,7.85,7.9,2.22,3.81,2.35,6.89,4.48,6.85s6.63-7.56,6.37-9c-.31-1.75-2.32-3.26-3.39-4.41-2.38-2.57-8.95-11.56-12.17-7.78"/><path class="cls-7" d="M75.65,63.7c.11,0-3.3,3.52-2.9,4.69.23.64,2.85,1.9,3.39,2.29,3.23,2.33,5.06,4.69,8.13,7.51.58.53,2.9,4.34,3.71,3.85s2.87-4.1,3.31-4.85c4.8-8.22.61-8.6-5.31-12.8-1.91-1.36-4.06-3.16-6.27-3.69-.27-.06-2.22-.77-2.11-.29"/><path class="cls-7" d="M81.68,56.32c-.56.09-2.66,1.56-2,2.54,1.7,2.4,6,3.36,8.26,4.66,1,.57,1.91,1.64,2.91,2.32.36.24,3.2,2.8,3.54,2.11,1-2-1.75-8.4-3.46-9.25-.82-.4-.72,1.37-1.63.75-.62-.42-.14-2.56-1-2.29-.55.18-.46,1.73-1.25,1.33-.44-.21-.08-1.24-.33-1.56C85.83,55.69,82.87,56.14,81.68,56.32Z"/><path class="cls-7" d="M132.51,23.24c-.41.11.83-.34,1.11-.38a21.54,21.54,0,0,0,2.42-.15c2.06-.53,5.33.32,7.33.84,6.58,1.7,10.2,9.71,16.63,12.08,10.72,3.95,22.36,7.49,33.56,8.89,6,.74,11.79,3.18,17.8,3.93,6.89.86,17.71-1.05,17.76,10.06,0,3.47-3.44,6.43-5.76,7.79-2.9,1.7-6.23,2.4-9.15,4-.51.27-1,1.8-1.78,2.24-3,1.65-6.59,2.33-9.84,3.17a77.53,77.53,0,0,1-27.2,2.06c-4.77-.6-9.61.44-14.41-.16-15-1.88-25.45-5.58-35.29-19.92"/><path class="cls-5" d="M167.34,40.08a18.33,18.33,0,0,0,3.12-.67c2.45-.56,4.77-1.35,7.17-2.13,8.19-2.67,15.74-7.85,23-12.69,2.33-1.56,6.41-6,9.31-4,3.3,2.21.55,7-1.57,8.85-3.33,2.83-7.34,4.16-10.74,6.85s-6.41,6.07-9.81,8.34"/><path class="cls-9" d="M160.29,35.53c.09-.06.71,4.63.24,5.68-1.44,3.2-6.17,5.5-4.69,9.88,2.67,7.93,13.73,13,20.19,15.46,5.88,2.21,12,4.14,18.09,4.68,6.27.55,4.41,1,9.69.65S214,71.22,219,68.56s17.17-7.15,9.8-16.64c-3.77-4.86-13.06-3.2-18-3.78-10.56-1.25-14.48-3.56-28.83-6.43a104,104,0,0,1-12.86-3.39"/><path class="cls-5" d="M172.82,62.46c-1.59,2-9.14,11-3.2,14,3.73,1.91,11.89-4.33,15.23-6.49,2.42-1.56,4.71-4.37,6.67-6.6s4.2-4.16,6.11-6.48c5.74-7,10.32-15.37,17-21.27,2.81-2.48,5.76-3.7,9-5,.54-.21,2.52-2.24,3-1.83.15.11-.1.86-.12,1a40.52,40.52,0,0,0,.21,10.21c.55,3.55.21,7.79.33,11.45s1.7,7.34,1.91,11c.34,5.67,1.12,11.37,1.55,17,.31,4-.36,8.17.69,11.89.82,2.9,10.62,4.24,11.53,2.1,1.31-3.1-6.47-2.68-7.56-2.45-.31.07-.5.49-.67-.11-.8-2.84,0-5.86-.06-8.8-.22-6.77-2.14-13.38-2.53-20.13-.71-12-1.66-23.88-2.36-35.77-.21-3.58-2.39-3.38-4-4.72-.92-.75-.68-2.18-2.33-2-3.34.27-11.87,11.3-14.37,14.35-5.56,6.75-14,10.89-20.59,16L177.9,58c-1.94,1.52-3.07,2.6-3.07,2.6"/><path class="cls-5" d="M132.06,61.41a3,3,0,0,0-1,.83c-.28.37-.24.33-.41.95a46.94,46.94,0,0,0-.66,6c-.18,4.48-3.05,7.77-3.83,12-.23,1.23.48,2.06.37,3-.25,2.33-3,5-4.24,6.62-3.58,4.71-8.82,10.28-9.85,16.8-.26,1.65-1.17,4-.46,5.69.18.43.83.5.85.94s-.7,1.53-.36,1.83c1,.9,2.39-.33,2.94-1.27s0-2.66.15-3.63a31,31,0,0,1,3.22-9.28c3.36-6.18,8.28-11.11,12-16.93,1.46-2.27,2-6.11,2.58-8.81.64-3,1.09-6.12,1.62-9.18C135.7,62.88,134.09,60.52,132.06,61.41Z"/><path class="cls-4" d="M122.35,25.91a18.94,18.94,0,0,0-.55-2.61c-.66-2.73-1.26-5.41-1.71-8.26-.66-4.2-1.81-8-2.61-12-.11-.59-.56-3-1.07-3-.23,0,.3,2,.34,2.22.45,2.3,1.16,4.61,1.72,6.92.52,2.15.73,4.47,1.16,6.62.74,3.79,1.67,7.52,2.41,11.33"/><path class="cls-5" d="M149.82,71.09c.07.09-1.17-.3-1.59-.37a4.5,4.5,0,0,0-2.55.36,2.64,2.64,0,0,0,0,4.84c4.3,2.2,8.88,2,13.42,3A60.66,60.66,0,0,1,167.89,82c.74.29,6.71,2.7,6.68,3.25a36.29,36.29,0,0,1-3.06,12c-1.93,4.26-4.92,9.28-4.59,14.4.11,1.7,4.62,8.15,5.77,8,.57-.06.26-1.27,1-1.27.43,0,1.08,1.08,1.31.93,1.37-1,0-3.21-.78-3.94-2.78-2.81-5.28-2.58-3.8-7.6,1.62-5.48,3.23-11.12,5-16.53.51-1.55,1.51-3.22,1.73-4.85a28.52,28.52,0,0,0,.48-3.78c0-.7-.89-1.33-.87-1.82a1.67,1.67,0,0,0-.7-1.81c-1.16-.88-2.81-.93-4.13-1.43A91.63,91.63,0,0,0,158.08,74a23,23,0,0,1-5.61-2c-.63-.32-1.34-.48-2-.78C150.31,71.14,149.62,70.81,149.82,71.09Z"/><path class="cls-5" d="M123.83,60.5a3.05,3.05,0,0,0,2.28-.4c1-.41,1.1-.87,2.2-2a40.94,40.94,0,0,0,6.33-10.38c2.46-6.63,4.92-18.52.48-24a8,8,0,0,0-5.87-2.93c-1.49-.13-4-.06-5.24,1.07C119.13,26.24,112.74,40.63,114,48c.66,4,3.6,7.42,6.08,10.07C120.89,59,122.52,60.42,123.83,60.5Z"/><path class="cls-10" d="M130.69,26.54c-1.84.71-4.83,14.35,1.46,11.64C135,37,136,24.46,130.69,26.54Z"/><path class="cls-4" d="M125.45,28.37c.42.43.28.82.47,1.44.93,3-4.09,5.82-4.07,3.42,0-2.6,1.86-4.67,2.67-6.91.73-2,.8-4.4,1.28-6.51.56-2.47,1.22-4.9,1.86-7.36a45.87,45.87,0,0,1,2.78-8.39c.16-.31,1-2.49,1.39-2.06s-1.83,4.41-2,5.18c-1.26,5.14-3.43,10.73-3.72,16.14C126,24.38,124.7,27.62,125.45,28.37Z"/></g></g></svg>