<svg xmlns="http://www.w3.org/2000/svg" viewBox="0 0 249.46 150.48"><defs><style>.cls-1{fill:#caa661;fill-opacity:0.99;}.cls-2{fill:#6da275;}.cls-3{fill:#b0e0b7;}.cls-4{fill:#85af8c;}.cls-5{fill:#7bc0c7;}.cls-6{fill:#7f8485;}.cls-7{fill:#aaafab;}.cls-8{fill:#626763;}.cls-9{fill:#75bbc2;}.cls-10{fill:#8e958f;}.cls-11{fill:#cacaca;}.cls-12{fill:#7a7e7b;}.cls-13{fill:#96dce3;}.cls-14{fill:#d5fbff;}</style></defs><g id="Ebene_2" data-name="Ebene 2"><g id="Ebene_1-2" data-name="Ebene 1"><path class="cls-1" d="M41.62,104.9l.47-.33"/><path class="cls-2" d="M4.3,81.08C1.59,85.86.43,93.11.11,98.58c-1.57,27,14.17,34.65,33.35,41.56,13.72,4.94,30.14,7.49,44.48,8.31,5.55.31,11.1,1.72,16.66,2,7.25.35,14.47-1.61,21.72-1.53,13.27.13,26.4-2.78,39.56-3,17.85-.27,34.52-.74,52.17-4.07,4.19-.79,17.06-1.36,20.87-3.59,7.67-4.5,7.18-4,14-12.25,11.78-14.4,4.46-26.36,2.94-42.43S207.46,50,188.58,37.29C149.23,10.79,94.25,11.23,53,30.77c-6.92,3.28-14.71,6.05-20.94,11C19.33,52,12.45,66.75,4.3,81.08Z"/><path class="cls-3" d="M1.42,85.9c-2,5.84,3.25,11,6.85,15.16,10.76,12.43,30.15,16.1,37.55,14.32,14.84-3.58,38.5,8.7,53.54,5.82,15.84-3,31.38-10,47.34-11.92,13.32-1.64,26.51-1.64,39.9-1.21,17.88.58,42.83,9.89,56.44-6.64,5-6.12,3-21.54-1.1-27-23.83-31.82-47-42.85-72.93-50-33.37-9.24-49.52-13.25-83.39-5.65-14.2,3.19-41,10.81-52.71,20.76C24.33,46.8,18.9,53,13.29,63A95.37,95.37,0,0,1,6.71,73.25"/><path class="cls-4" d="M131.59,100c-9.23,2.13-18.66,1.14-27.92.12-6.33-.7-12.72-.65-19-1.54-4.59-.66-12-2.22-15-6.22C64.9,86,71.65,75.85,76.76,72c12.12-9.1,46.84-8.53,58.44,1.51,2.94,2.54,2.6,5.42,4.06,8.62,1.14,2.5,2.91,4.83,2.91,7.68"/><path class="cls-4" d="M191,91.1c-3.05-.6-6.84.22-10,.22a112.58,112.58,0,0,1-29.9-3.72c-6.65-1.9-22.27-16.32-12.88-23,1.34-1,11.13,1.41,13.6,1.14,2.72-.31,6.61-.17,9.13-1.25,2.86-1.23,5.28-3.34,8.3-4.16,4.93-1.35,18.85,1.57,23.36,3.82"/><path class="cls-4" d="M54.08,96.13c-.36-.37-2.52,0-3.11,0-2.58,0-5.14-.75-7.68-1C33.4,94,25.62,91.14,18.47,84c-3.73-3.73-5.13-10.47-.32-14.22,6.86-5.34,20.79-9.31,29.17-5.73C50,65.21,51.09,69,53.86,70.18,59.8,72.72,66.41,72,72.44,74c4.5,1.49,12.23,3,14.85,7.56,1.13,2,3.56,9.45-1.14,9.45"/><path class="cls-5" d="M159.87,78.63c-2.53,4.19,7.07,10.15,16.08,11.53s19.84,2.55,30.52.23c2-.43,14.43-.18,14.78-8.49.36-8.62-12.43-21.22-19.52-29.18-.31-.35-.44-22.67-1.21-35.6-.64-10.75.63-13.72-1.32-16.5-1-1.48-13.43,0-14.1,1-1.28,1.87-1.16,10.21-.91,19.23.29,10.88-.54,20.63-1.5,31.35C182.55,53.77,164.9,70.29,159.87,78.63Z"/><path class="cls-6" d="M71.66,64.21a44.51,44.51,0,0,0,5.16.18c5-.06,10.84,2,16.38,5.67s7,8.06,4.63,13.72a18.87,18.87,0,0,1-12.5,11.09c-7.36,1.94-30.19,1.51-35-.17s-13.85-3.65-15.08-7a9,9,0,0,1,.77-7c1.28-2.41,1.21-2,2.49-4.39,2-3.76,8.2-22,12.33-23,1.54-.36,10.86,2.23,11.76,3.44,1.4,1.88,2.19,4.41,3.43,6.4C66.54,64.05,68.18,63.92,71.66,64.21Z"/><path class="cls-7" d="M68,64.88c-.69.21,2.08-.46,2.56-.32,1.79.53,6,.71,8.93,1.1s12.7,4.13,16,7.67,3.47,4.07,2,6.44S86.51,82,86.51,82s-18.88.54-27.95-2.13c-3.13-.92-13.23-3.39-12.51-7.75.36-2.22,8.37,3.74,10,3.93,7.17.79,7.77-5.42,12.81-10.26"/><path class="cls-8" d="M66,51.28a12.77,12.77,0,0,1,1.28.09c1.55.26,2.17.06,4.88.22s6.21,1,9.89,1c1.15,0,8.06.48,6.72,1.53s-8,5.78-9.36,6.61c-4.92,2.94-11.3,6.93-12.51,7.53s-7.36.06-12.36-.56c-2-.25-8.22-.36-9-.9-1-.68.57-1.84,7.21-6.6C64.5,51.73,64.46,51.06,66,51.28Z"/><path class="cls-9" d="M159.27,86.09s-.29,3.24-4.84,6.42-8.63,4-12.87,5.25c-11.79,3.53-19.29,3.27-30.52-2.63a10.66,10.66,0,0,1-4.59-4.88s-.54-9.31-1-20.79-1.32-35.4-1.32-35.4-.65-3.51,4.27-6.85c5.14-3.49,8.71-7.19,22.4-7.51a44.14,44.14,0,0,1,19.2,4,10.49,10.49,0,0,1,4.46,3.69c.85,1.22,1.45,8.19,1.47,9.3.14,6.7.73,12.3,1.42,19.1.32,3,.86,7.33,1,10.36.25,4.36,0-.66.52,9.49.27,4.85.17,2.63.25,5.26,0,1.45.22,3.27.18,2.91"/><path class="cls-10" d="M62.68,45.9c-.29-1.36,1.63-1.12,2.76-1.65.7-.32,2.36-2.38,3-1.59.91,1.19,4,9.18,3.78,9.68s-5.39,3-5.82,2.55A66.83,66.83,0,0,1,62.68,45.9Z"/><path class="cls-11" d="M66.47,44.09c.94.17,1.37-.45,2.2.77.61.89,2.89,6.5,2.08,7.06-1.38.95-3-4.78-3.41-5.5-.27-.53-.35-1.17-.61-1.69C66.65,44.59,66.38,44.07,66.47,44.09Z"/><path class="cls-12" d="M50.58,62.26c-3.46-.84-2.24-8.16-1.95-10.48,1.45-11.26.89-13.74,13-18.16,5.38-2,12.74,7.08,11.21,11.57-.8,2.33-4.08-.36-5.47-.09s-.86,2.3-1.66,2.89c-1.08.79-3.23.43-4.08,1.53-.7.92-.49,3.28-.37,4.34.45,3.92-2.71,6-5.93,7.59"/><path class="cls-7" d="M64.17,35.75c-.16-.06.57-.78.77-1.12.29-.5.08-.71.61-.4a11,11,0,0,1,1.87,1.08c1,.71,1.26.94,3.12,3.39.39.51,2.49,3.61,1.85,4.27-1.15,1.18-2.45-3.27-6-6A5,5,0,0,0,64.17,35.75Z"/><path class="cls-7" d="M62.8,36c2-1.49,1.81-2.58,1.81-2.58S57.55,14.17,56.87,13c-.38-.66-2.86-.58-4.65.32s-3,2.68-2.81,3.08c.28.79,2.52,7,3,8.37C53,26.8,57,35.85,57,35.85a5.86,5.86,0,0,0,3.25,1"/><path class="cls-11" d="M54.19,12.92a6.82,6.82,0,0,1,1.33-.2,4.64,4.64,0,0,1,1.2.38s1.37,3.32,3.32,8.72,4.25,11.73,4.25,11.73a3.18,3.18,0,0,1-.48,1.14,1.06,1.06,0,0,1-1.07.45C61.15,30.55,54.19,12.92,54.19,12.92Z"/><path class="cls-9" d="M109.37,32.4c6.19-.58,12.62-3.26,18.46-5.59"/><path class="cls-13" d="M154.24,28.21c-.45,1-2,4-3,4.6C147.22,35.39,138,36.59,138,36.59l-7.6.13-2.21-.2,2,16.19,1.77,27.5,1,11.84,0,6.14s10-2.23,12-3a34.4,34.4,0,0,0,9.49-4.35c4-2.79,4-6.07,4-6.07l-.4-11.2-.89-13.81s-1.24-8-1.37-12.63-.64-6.5-.54-8.55a28.27,28.27,0,0,0,0-3.8"/><path class="cls-13" d="M199.7,52.85c2.56.45,6.09,6,6.09,6l10.75,13.52a24.51,24.51,0,0,1,3.05,6.1c.67,2.64.2,2.52-.39,4.45A5.88,5.88,0,0,1,215.38,87c-4.49,1.13-10.84,2.41-12.71,0C199.45,82.84,198,67.24,198,67.24s-1.67-11.95.66-14.09A1.17,1.17,0,0,1,199.7,52.85Z"/><path class="cls-13" d="M195.49.41a1.83,1.83,0,0,1,1.83.39c1.18,1.29,1.08,10,1.08,10l1.18,31.79s.56,8,.2,8.64a3.92,3.92,0,0,1-1.87,1.51,2.78,2.78,0,0,1-2-.44c-.45-.33-.51-6.33-1-14.34-.66-10.22-.39-16.62-.21-25.85.13-6.7-.24-10,.06-11.18C194.82.49,195.13.5,195.49.41Z"/><path class="cls-14" d="M152.56,34.21c.84-.3.84,7.87,1,9.75.25,3.9.47,7.82.77,11.71.05.63.1,3.24-.47,3.46-2.15.79-2.17-4-2.26-5.14C151.31,50.75,149.23,35.4,152.56,34.21Z"/><path class="cls-14" d="M154.16,63.89c1,.27,1.88,15.76,1.73,18.35,0,.78-.92,5.72-2.2,5.21S152.26,83,152.21,82C152.1,79.46,150.36,62.82,154.16,63.89Z"/><path class="cls-14" d="M197.34,5.09c0,.2.36,5.8.36,6.68.06,5.55.55,11.08.61,16.62,0,.67.33,4.65-.88,4.61s-.55-6.55-.57-7.29c-.2-6,0-12.16-.43-18.1-.1-1.37-.76-4.78.21-5.84C197.41.94,197.53,4,197.34,5.09Z"/><path class="cls-14" d="M200.45,53.94c-.73-1.87,6.11,6.25,6.68,7.23,3,5.17,7.62,9.19,10.41,14.55.59,1.13,2.56,4,1.37,5.4-1.45,1.64-5.89-8.92-6.41-10C209.31,64.87,203,60.5,200.45,53.94Z"/><path class="cls-14" d="M130.17,78.63c-.13-.56-.28,1.12-.35,1.69"/></g></g></svg>