<svg xmlns="http://www.w3.org/2000/svg" viewBox="0 0 250.21 142.06"><defs><style>.cls-1{fill:#6da275;}.cls-2{fill:#b0e0b7;}.cls-3{fill:#85af8c;}.cls-4{fill:#3c7545;}.cls-5{fill:#58a363;}.cls-6{fill:#44834d;}.cls-7{fill:#e9b853;}.cls-8{fill:#c7a152;}.cls-9{fill:#e1df5d;}.cls-10{fill:#c5c352;}</style></defs><g id="Ebene_2" data-name="Ebene 2"><g id="Ebene_1-2" data-name="Ebene 1"><path class="cls-1" d="M177.37,28.21l-1-.07-3-.21-1-.07h0"/><path class="cls-1" d="M231.13,41.05c-1.62,1.5,6.85,4.75,9.44,6.8,6.08,4.81,9.7,14,9.64,21.85-.2,23.92-12.63,44.4-33.75,55.64-13.46,7.16-27.92,11.31-42.8,14.16-22,4.21-43.83,2-66,1.81C65.2,141,14.24,137.53,1,87.43-5.14,64.11,18,58,35.88,49.8,79.83,29.56,116.09,26,163.9,27.59c17.71.57,36.15,5.29,53.94,7.05,2.18.22,13.65,2.42,14.48,4C232.75,39.4,231.79,40.43,231.13,41.05Z"/><path class="cls-2" d="M20.28,82.62c10.8-2.43,31.2,16.4,44.17,18.44,3.36.53,7-.57,10.34-.5,8.51.18,16.46,3.35,25.17,3.18,7.39-.15,14.46-2.58,21.83-2.91,10.59-.47,21.3.91,31.91-.1a355.87,355.87,0,0,0,51.38-8.68c19-4.7,46.29-6.35,43.27-31.93-.6-5.09-5.92-10.39-8.47-14.64-9.95-16.59-28.65-20.31-46.19-25C151,9.18,102.91,9.58,61,24.35c-10.58,3.72-20.17,12.7-30,18.2C20.09,48.57,8.2,59.23,1.81,69.8,0,72.81-.53,85.4,3.54,87.13c1.21.52,7.1-.59,8.33-.49C13.86,86.8,17.59,83.23,20.28,82.62Z"/><path class="cls-3" d="M105,64.62c-.11-.16,2,1,2.62,1.3a17.17,17.17,0,0,0,5.6,1.71c7.51.67,13.7,2,19.17,7.72,2,2.07,4.58,1.42,7,2.56,9.3,4.43,14.24,6.23,24.26,5.77,1.28-.05,2.41,1.35,3.61,1.6,3.42.69,7.13.67,10.66,1.39,3.13.63,7-.92,10.19-1,6.22-.17,15.5,4.36,18-4,1.53-5.11,4.54-12.64,1.18-17.7-2.78-4.19-11.79-5.37-16.33-6.09-15.32-2.44-30.5-4.13-46-3-5.53.41-11.21,1.06-16.75.74-2.32-.13-6.12-1.68-8.19-.31"/><path class="cls-4" d="M230.14,65.59c-1.28-10.06,8.39-3.08,10.11-4.75.84-.81-2.43-3.94-3.21-4.16-1.35-.39-4,1.62-4.22.22-.38-3,10-5.25,9-7.28-2-4.19-7.49,2.18-8.76,1.74-.22-.08.12-.46.23-.66,1.77-3.11,1.61-6.41,4.18-9.36.24-.28,3-2.71,1.8-3.22-2.85-1.25-7.17,5.85-9,7.6-.08.08-.2.26-.29.19-1.48-1.15-.22-6.33-1.84-8.28a24.16,24.16,0,0,0-6.71-5.3c-.35-.21-1.88-1.37-2.25-.81s.22,1.47.32,1.66c.75,1.43,6.09,8.92,3.53,10.14-.39.19-5.46-4.67-8.18-1.17-1,1.25,2.77,3.79,3.42,4.61.39.5,1.91,1.34,1.28,1.42-1.84.23-6.83-4.57-8.88-.46-.28.57,2.85,1.51,3.2,1.65,2,.77,3,2,4.52,3.36.78.68,3.61,1.6,2.59,1.73-1.8.22-7.13-2.15-7.39,1.4-.08,1.1,6,1.63,7.47,3,.32.28,1.11,1,.6,1-1.32.17,1.93.86,2.35,2.39.15.54-.45,1.63.35,1.53,4-.51-.86-7.67-3-8.61s-4.62.18-6.82-.39c-.39-.1-1-1.14-1.4-1.09-2.77.35-3.31,2.33-7.5.48S198.85,45.25,195,42.3c-1.28-1-9.43-6.17-9.68-6.81-.67-1.71,6.15-.29,6.61-.05.82.43,1.7,2.61,2.12,1.78,1-2-7.81-9.08-6.32-10.07,1.76-1.18,5.13,1,6.54,1.85.79.47,1.93,2.68,2.11,1.78.55-2.74-7-10.7-5.44-11.92,2.43-1.91,7.26,4.62,8.13,5.75a22.48,22.48,0,0,1,1.42,2.5c.19.35.36,1.34.6,1s-.19-1.54-.24-1.86c-.12-.95.07-12.11,2.67-10.1,2.22,1.72,2.86,6.7,2.9,9.24,0,0,0,1.41,0,1.42,1.69.59,3.36-9.28,6.89-6.55,2.35,1.83,0,6-.88,8-.07.15-.81,1.56-.42,1.63s2.4-2.5,3-2.74c.77-.31,5.35,0,4.77,1.61-.25.71-6.86,2.94-6.23,4.25.05.12,6.91.17,5.53,2.61-1.49,2.6-8.29-1.16-9,2.4-.21,1.08,6.72-.44,7.06,2.26,0,.17-3.67,1.13-4.18,1.79-1.78,2.3-2.21,5.19-3.94,7.43-2.5,3.22,2.47,3.12,3.8,3.93,1.1.67.23,2.08,1,2.87,2.08,2.14,5.66,2.8,8.19,3.69"/><path class="cls-4" d="M209.87,63.31c-1.27-10.06,8.39-3.07,10.11-4.74.85-.82-2.43-3.94-3.2-4.17-1.36-.39-4.05,1.62-4.23.22-.38-3,10-5.25,9-7.28-2-4.19-7.49,2.18-8.76,1.74-.22-.08.11-.46.23-.66,1.76-3.1,1.6-6.41,4.17-9.36.25-.28,3-2.7,1.8-3.22-2.84-1.25-7.16,5.85-9,7.6-.08.08-.19.26-.29.19-1.47-1.14-.21-6.32-1.83-8.27a24.39,24.39,0,0,0-6.72-5.31c-.35-.2-1.88-1.37-2.25-.81s.22,1.47.32,1.66c.76,1.43,6.09,8.92,3.54,10.15-.4.18-5.47-4.68-8.19-1.18-1,1.25,2.77,3.79,3.42,4.61.4.5,1.92,1.34,1.28,1.42-1.83.23-6.83-4.57-8.88-.45-.28.56,2.86,1.5,3.21,1.64,2,.77,3,2,4.52,3.37.78.68,3.61,1.59,2.58,1.72-1.8.23-7.13-2.15-7.39,1.41-.07,1.1,6,1.62,7.47,3,.32.28,1.12,1,.61,1-1.33.16,1.93.85,2.35,2.38.15.54-.46,1.63.35,1.53,4-.5-.86-7.67-3-8.61s-4.63.18-6.83-.39c-.38-.1-1-1.13-1.4-1.09-2.76.35-3.3,2.33-7.5.48S178.58,43,174.78,40c-1.29-1-9.44-6.16-9.69-6.81-.66-1.71,6.16-.29,6.61-.05.82.43,1.71,2.61,2.12,1.78,1-2-7.8-9.08-6.32-10.07,1.76-1.17,5.13,1,6.54,1.85.79.48,1.94,2.69,2.12,1.78.54-2.74-7-10.7-5.45-11.92,2.43-1.91,7.27,4.62,8.13,5.75a23.42,23.42,0,0,1,1.42,2.5c.19.35.36,1.34.6,1s-.19-1.55-.23-1.86c-.12-.95.06-12.12,2.66-10.11,2.22,1.72,2.86,6.71,2.9,9.24,0,0,0,1.41,0,1.42,1.69.59,3.37-9.28,6.9-6.54,2.35,1.82,0,6-.88,8-.07.14-.81,1.55-.43,1.62s2.4-2.5,3-2.73c.76-.32,5.34,0,4.77,1.6-.25.71-6.87,2.94-6.24,4.25.06.12,6.92.18,5.53,2.61-1.48,2.61-8.29-1.16-9,2.4-.22,1.09,6.72-.44,7.06,2.26,0,.17-3.67,1.13-4.19,1.79-1.78,2.3-2.21,5.19-3.94,7.43-2.5,3.22,2.48,3.12,3.81,3.93,1.09.67.22,2.08,1,2.87,2.07,2.14,5.65,2.8,8.19,3.69"/><path class="cls-4" d="M188.11,55.77c-1.27-10.06,8.39-3.07,10.12-4.74.84-.82-2.43-4-3.21-4.17-1.36-.39-4.05,1.62-4.23.22-.38-3,10-5.25,9-7.28-2-4.19-7.49,2.18-8.76,1.74-.22-.08.11-.46.23-.66,1.76-3.1,1.6-6.41,4.17-9.36.25-.28,3-2.71,1.8-3.22-2.84-1.25-7.16,5.85-9,7.6-.09.08-.2.26-.29.19-1.48-1.14-.22-6.33-1.84-8.27a24.39,24.39,0,0,0-6.72-5.31c-.35-.21-1.88-1.37-2.25-.81s.22,1.47.32,1.66c.76,1.43,6.09,8.92,3.54,10.14-.39.19-5.47-4.67-8.19-1.17-1,1.25,2.78,3.79,3.42,4.61.4.5,1.92,1.34,1.29,1.42-1.84.23-6.83-4.57-8.88-.45-.29.56,2.85,1.5,3.2,1.64,2,.77,3,2,4.52,3.37.78.68,3.61,1.59,2.58,1.72-1.8.22-7.13-2.15-7.38,1.4-.08,1.11,6,1.63,7.47,3,.31.28,1.11,1,.6,1-1.33.16,1.93.85,2.35,2.38.15.54-.46,1.63.35,1.53,4-.5-.86-7.67-3-8.61s-4.63.18-6.83-.39c-.38-.1-1-1.13-1.39-1.09-2.77.35-3.31,2.33-7.51.48S156.82,35.43,153,32.48c-1.29-1-9.44-6.17-9.69-6.81-.66-1.71,6.16-.29,6.62-.05.81.43,1.7,2.61,2.11,1.78,1-2-7.8-9.08-6.32-10.07,1.76-1.18,5.13,1,6.54,1.85.79.47,1.94,2.68,2.12,1.78.54-2.74-7-10.7-5.45-11.92,2.43-1.91,7.27,4.62,8.13,5.75a22.48,22.48,0,0,1,1.42,2.5c.19.35.36,1.34.61,1s-.2-1.55-.24-1.86c-.12-1,.07-12.12,2.66-10.11,2.22,1.72,2.87,6.71,2.9,9.24,0,0,0,1.41,0,1.42,1.68.59,3.36-9.28,6.89-6.55,2.35,1.83,0,6-.88,8-.07.15-.81,1.56-.43,1.63s2.4-2.5,3-2.73c.76-.32,5.35,0,4.77,1.6-.25.71-6.87,2.94-6.24,4.25.06.12,6.92.18,5.53,2.61-1.48,2.61-8.28-1.16-9,2.4-.22,1.09,6.72-.44,7.06,2.26,0,.17-3.67,1.13-4.19,1.79-1.78,2.3-2.2,5.19-3.94,7.43-2.5,3.22,2.48,3.12,3.81,3.93,1.09.67.22,2.08,1,2.87,2.07,2.14,5.66,2.8,8.19,3.69"/><path class="cls-4" d="M169.81,57C168.54,47,178.2,54,179.92,52.28c.85-.81-2.43-3.94-3.2-4.16-1.36-.39-4.05,1.62-4.23.22-.38-3,10-5.25,9-7.29-2-4.18-7.5,2.19-8.77,1.74-.21-.07.12-.45.24-.66,1.76-3.1,1.6-6.41,4.17-9.35.25-.28,3-2.71,1.8-3.22-2.84-1.25-7.16,5.85-9,7.59-.08.09-.19.27-.29.2-1.48-1.15-.22-6.33-1.83-8.28a24.35,24.35,0,0,0-6.72-5.3c-.35-.21-1.88-1.37-2.25-.81s.22,1.47.32,1.66c.75,1.43,6.09,8.92,3.54,10.14-.4.19-5.47-4.67-8.19-1.17-1,1.25,2.77,3.79,3.42,4.61.4.5,1.91,1.33,1.28,1.41-1.84.24-6.83-4.56-8.88-.45-.28.57,2.86,1.51,3.2,1.64,2,.78,3,2,4.53,3.37.78.68,3.61,1.59,2.58,1.72-1.8.23-7.13-2.14-7.39,1.41-.08,1.1,6,1.63,7.47,3,.32.28,1.12,1,.61,1-1.33.17,1.93.86,2.35,2.38.15.55-.46,1.64.35,1.53,4-.5-.86-7.67-3-8.6s-4.63.18-6.83-.4c-.38-.1-1-1.13-1.4-1.08-2.77.35-3.3,2.32-7.5.48s-6.84-8.94-10.64-11.89c-1.29-1-9.44-6.17-9.69-6.81-.66-1.72,6.15-.29,6.61-.05.82.43,1.71,2.6,2.12,1.78,1-2-7.8-9.08-6.32-10.08,1.76-1.17,5.13,1,6.54,1.86.79.47,1.94,2.68,2.12,1.78.54-2.74-7-10.7-5.45-11.92,2.43-1.91,7.27,4.61,8.13,5.75a22.48,22.48,0,0,1,1.42,2.5c.19.35.36,1.34.6,1s-.19-1.54-.23-1.86c-.12-.95.06-12.12,2.66-10.1,2.22,1.72,2.86,6.7,2.9,9.24,0,0,0,1.41,0,1.42,1.69.59,3.36-9.29,6.9-6.55,2.35,1.82,0,6-.88,8-.07.15-.82,1.55-.43,1.63s2.4-2.5,3-2.74c.77-.31,5.35,0,4.78,1.6-.25.72-6.87,2.95-6.24,4.26,0,.11,6.92.17,5.53,2.61-1.48,2.6-8.29-1.16-9,2.4-.22,1.08,6.72-.44,7.06,2.26,0,.17-3.67,1.12-4.19,1.79-1.78,2.3-2.21,5.19-3.94,7.43-2.5,3.22,2.48,3.12,3.8,3.93,1.1.67.23,2.08,1,2.87,2.07,2.14,5.65,2.8,8.19,3.69"/><path class="cls-4" d="M150.19,49.67c-1.28-10.06,8.39-3.08,10.11-4.75.84-.82-2.43-3.94-3.2-4.16-1.36-.39-4,1.61-4.23.21-.38-3,10-5.24,9-7.28-2-4.18-7.49,2.18-8.76,1.74-.22-.08.12-.46.23-.66,1.77-3.1,1.61-6.41,4.18-9.35.24-.28,3-2.71,1.8-3.22-2.85-1.26-7.17,5.85-9,7.59-.08.08-.2.27-.29.19-1.48-1.14-.22-6.32-1.83-8.27a24.17,24.17,0,0,0-6.72-5.3c-.35-.21-1.88-1.38-2.25-.82s.22,1.47.32,1.66c.75,1.43,6.09,8.92,3.54,10.15-.4.19-5.47-4.68-8.19-1.17-1,1.25,2.77,3.78,3.42,4.61.39.5,1.91,1.33,1.28,1.41-1.84.23-6.83-4.57-8.88-.45-.28.56,2.85,1.51,3.2,1.64,2,.78,3,2,4.53,3.37.77.68,3.6,1.59,2.58,1.72-1.8.23-7.13-2.15-7.39,1.41-.08,1.1,6,1.62,7.47,3,.32.29,1.11,1,.6,1-1.32.17,1.93.85,2.35,2.38.15.55-.45,1.63.36,1.53,4-.5-.86-7.67-3-8.6s-4.63.17-6.83-.4c-.38-.1-1-1.13-1.4-1.08-2.77.35-3.3,2.32-7.5.47s-6.84-8.94-10.64-11.89c-1.29-1-9.44-6.16-9.69-6.81-.67-1.71,6.15-.29,6.61,0,.82.43,1.71,2.61,2.12,1.78,1-2-7.81-9.08-6.32-10.07,1.76-1.17,5.13,1,6.54,1.85.79.48,1.93,2.69,2.11,1.78.55-2.74-7-10.7-5.44-11.91,2.43-1.92,7.27,4.61,8.13,5.74a24.44,24.44,0,0,1,1.42,2.5c.19.35.36,1.34.6,1s-.19-1.54-.23-1.86c-.12-.95.06-12.12,2.66-10.11,2.22,1.72,2.86,6.71,2.9,9.25,0,0,0,1.4,0,1.41,1.69.59,3.36-9.28,6.89-6.54,2.35,1.82.05,6-.88,8-.07.14-.81,1.55-.42,1.63s2.4-2.51,3-2.74c.77-.32,5.35,0,4.77,1.6-.25.71-6.86,2.95-6.23,4.26,0,.11,6.92.17,5.53,2.6-1.48,2.61-8.29-1.16-9,2.4-.21,1.09,6.72-.44,7.07,2.26,0,.17-3.68,1.13-4.19,1.79-1.78,2.3-2.21,5.2-3.94,7.43-2.5,3.23,2.47,3.12,3.8,3.94,1.1.66.23,2.07,1,2.86,2.07,2.14,5.65,2.8,8.18,3.69"/><path class="cls-4" d="M139.66,61.06C138.39,51,148.05,58,149.78,56.31c.84-.81-2.43-3.94-3.21-4.16-1.36-.39-4,1.62-4.23.22-.38-3,10-5.25,9-7.29-2-4.18-7.49,2.19-8.76,1.74-.22-.08.11-.46.23-.66,1.76-3.1,1.6-6.41,4.17-9.35.25-.28,3-2.71,1.8-3.22-2.84-1.25-7.16,5.85-9,7.59-.08.08-.19.27-.29.2-1.47-1.15-.21-6.33-1.83-8.28A24.17,24.17,0,0,0,131,27.8c-.35-.21-1.88-1.38-2.25-.81s.22,1.46.32,1.65c.76,1.43,6.09,8.92,3.54,10.15-.4.19-5.47-4.67-8.19-1.17-1,1.25,2.78,3.78,3.42,4.61.4.5,1.92,1.33,1.29,1.41-1.84.23-6.84-4.57-8.89-.45-.28.57,2.86,1.51,3.21,1.64,2,.78,3,2,4.52,3.37.78.68,3.61,1.59,2.58,1.72-1.8.23-7.13-2.15-7.38,1.41-.08,1.1,5.95,1.62,7.46,3,.32.29,1.12,1,.61,1-1.33.17,1.93.85,2.35,2.38.15.55-.46,1.63.35,1.53,4-.5-.86-7.67-3-8.6s-4.63.17-6.83-.4c-.38-.1-1-1.13-1.39-1.08-2.77.35-3.31,2.32-7.51.47s-6.84-8.94-10.64-11.89c-1.29-1-9.44-6.16-9.69-6.81-.66-1.71,6.16-.29,6.61,0,.82.43,1.71,2.6,2.12,1.78,1-2-7.8-9.08-6.32-10.08,1.76-1.17,5.13,1,6.54,1.85.79.48,1.94,2.69,2.12,1.78.54-2.74-7-10.7-5.45-11.91,2.43-1.91,7.27,4.61,8.13,5.74a24.44,24.44,0,0,1,1.42,2.5c.19.35.36,1.34.6,1s-.19-1.54-.23-1.86c-.12-.95.06-12.12,2.66-10.11,2.22,1.72,2.86,6.71,2.9,9.25,0,0,0,1.4,0,1.41,1.69.6,3.37-9.28,6.9-6.54,2.35,1.82,0,6-.88,8-.07.14-.81,1.55-.43,1.63s2.4-2.51,3-2.74c.76-.32,5.34,0,4.77,1.6-.25.71-6.87,2.95-6.24,4.26.06.11,6.92.17,5.53,2.61-1.48,2.6-8.29-1.17-9,2.39-.22,1.09,6.72-.43,7.06,2.26,0,.17-3.67,1.13-4.19,1.79-1.78,2.3-2.21,5.2-3.94,7.44-2.5,3.22,2.48,3.11,3.81,3.93,1.09.67.22,2.07,1,2.86,2.07,2.14,5.65,2.81,8.19,3.7"/><path class="cls-4" d="M123.19,54.79c-1.27-10.06,8.39-3.08,10.11-4.75.85-.81-2.43-3.94-3.2-4.16-1.36-.39-4,1.62-4.23.22-.38-3,10-5.25,9-7.28-2-4.19-7.5,2.18-8.77,1.73-.21-.07.12-.45.24-.65,1.76-3.11,1.6-6.41,4.17-9.36.25-.28,3-2.71,1.8-3.22-2.84-1.25-7.16,5.85-9,7.6-.08.08-.2.26-.29.19-1.48-1.15-.22-6.33-1.83-8.28a24.35,24.35,0,0,0-6.72-5.3c-.35-.21-1.88-1.37-2.25-.81s.22,1.47.32,1.66c.75,1.43,6.09,8.92,3.54,10.14-.4.19-5.47-4.67-8.19-1.17-1,1.25,2.77,3.79,3.42,4.61.4.5,1.92,1.34,1.28,1.42-1.84.23-6.83-4.57-8.88-.46-.28.57,2.86,1.51,3.2,1.65,2,.77,3,2,4.53,3.36.78.68,3.6,1.6,2.58,1.73-1.8.22-7.13-2.15-7.39,1.4-.08,1.1,6,1.63,7.47,3,.32.28,1.12,1,.61,1-1.33.17,1.93.86,2.35,2.39.15.54-.46,1.63.35,1.53,4-.51-.86-7.68-3-8.61s-4.63.18-6.83-.4c-.38-.1-1-1.13-1.4-1.08-2.76.35-3.3,2.33-7.5.48S91.9,34.45,88.1,31.5c-1.29-1-9.44-6.17-9.69-6.81-.66-1.71,6.15-.29,6.61-.05.82.43,1.71,2.61,2.12,1.78,1-2-7.8-9.08-6.32-10.07,1.76-1.18,5.13,1,6.54,1.85.79.47,1.94,2.68,2.12,1.78.54-2.74-7-10.7-5.45-11.92,2.43-1.91,7.27,4.61,8.13,5.75a22.48,22.48,0,0,1,1.42,2.5c.19.35.36,1.34.6,1S94,15.79,94,15.47c-.12-.94.06-12.11,2.66-10.1,2.22,1.72,2.86,6.7,2.9,9.24,0,0,0,1.41,0,1.42,1.69.59,3.36-9.28,6.9-6.55,2.35,1.82,0,6-.88,8-.07.15-.82,1.56-.43,1.63s2.4-2.5,3-2.74c.77-.31,5.35,0,4.78,1.61-.25.71-6.87,2.94-6.24,4.25,0,.12,6.92.17,5.53,2.61-1.48,2.6-8.29-1.16-9,2.4-.22,1.08,6.72-.44,7.06,2.26,0,.17-3.67,1.13-4.19,1.79-1.78,2.3-2.21,5.19-3.94,7.43-2.5,3.22,2.48,3.12,3.8,3.93,1.1.67.23,2.08,1,2.87,2.07,2.14,5.65,2.8,8.19,3.69"/><path class="cls-4" d="M188.84,76c-1.28-10.06,8.39-3.08,10.11-4.75.84-.82-2.43-3.94-3.2-4.16-1.36-.39-4.05,1.62-4.23.22-.38-3,10-5.25,9-7.29-2-4.18-7.49,2.19-8.76,1.74-.22-.08.12-.46.23-.66,1.77-3.1,1.61-6.41,4.18-9.35.24-.28,3-2.71,1.8-3.22-2.85-1.25-7.17,5.85-9,7.59-.08.08-.2.27-.29.2-1.48-1.15-.22-6.33-1.84-8.28a24,24,0,0,0-6.71-5.3c-.35-.21-1.88-1.37-2.25-.81s.22,1.46.32,1.65c.75,1.43,6.09,8.92,3.53,10.15-.39.19-5.46-4.67-8.18-1.17-1,1.25,2.77,3.78,3.42,4.61.39.5,1.91,1.33,1.28,1.41-1.84.23-6.83-4.57-8.88-.45-.28.57,2.85,1.51,3.2,1.64,2,.78,3,2,4.52,3.37.78.68,3.61,1.59,2.59,1.72-1.8.23-7.13-2.15-7.39,1.41-.08,1.1,6,1.62,7.47,3,.32.29,1.11,1,.6,1-1.32.17,1.93.85,2.35,2.38.15.55-.45,1.64.35,1.53,4-.5-.85-7.67-3-8.6s-4.62.17-6.82-.4c-.39-.1-1-1.13-1.4-1.08-2.77.35-3.3,2.32-7.5.47s-6.84-8.94-10.65-11.89c-1.28-1-9.43-6.16-9.68-6.81-.67-1.71,6.15-.29,6.61,0,.82.42,1.71,2.6,2.12,1.78,1-2-7.81-9.08-6.32-10.08,1.76-1.17,5.13,1,6.54,1.85.79.48,1.93,2.69,2.11,1.79.55-2.74-7-10.71-5.44-11.92,2.43-1.91,7.27,4.61,8.13,5.74a24.44,24.44,0,0,1,1.42,2.5c.19.35.36,1.34.6,1s-.19-1.54-.23-1.86c-.13-1,.06-12.12,2.66-10.11,2.22,1.72,2.86,6.71,2.9,9.25,0,0,0,1.4,0,1.41,1.69.6,3.36-9.28,6.89-6.54,2.35,1.82.05,6-.88,8-.07.14-.81,1.55-.42,1.63s2.4-2.51,3-2.74c.77-.32,5.35,0,4.77,1.6-.25.71-6.86,2.95-6.23,4.26,0,.11,6.92.17,5.53,2.61-1.48,2.6-8.29-1.17-9,2.4-.21,1.08,6.72-.44,7.07,2.25,0,.17-3.68,1.13-4.19,1.79-1.78,2.3-2.21,5.2-3.94,7.44-2.5,3.22,2.47,3.11,3.8,3.93,1.1.66.23,2.07,1,2.86,2.07,2.14,5.65,2.81,8.18,3.7"/><path class="cls-5" d="M220.52,77.6c-1.27-10,8.39-3.07,10.11-4.74.85-.82-2.42-3.94-3.2-4.17-1.36-.38-4.05,1.62-4.23.22-.38-3,10-5.24,9-7.28-2-4.18-7.49,2.18-8.76,1.74-.22-.08.11-.46.23-.66,1.76-3.1,1.6-6.41,4.17-9.35.25-.28,3-2.71,1.8-3.22-2.84-1.26-7.16,5.84-9,7.59-.08.08-.19.27-.29.19-1.47-1.14-.21-6.32-1.83-8.27a24.17,24.17,0,0,0-6.72-5.3c-.35-.21-1.88-1.38-2.25-.82s.22,1.47.32,1.66c.76,1.43,6.09,8.92,3.54,10.15-.4.19-5.47-4.68-8.19-1.17-1,1.25,2.77,3.78,3.42,4.61.4.5,1.92,1.33,1.29,1.41-1.84.23-6.84-4.57-8.89-.45-.28.56,2.86,1.5,3.21,1.64,2,.78,3,2,4.52,3.37.78.68,3.61,1.59,2.58,1.72-1.8.23-7.13-2.15-7.39,1.41-.07,1.1,6,1.62,7.47,3,.32.29,1.12,1,.61,1-1.33.17,1.93.85,2.35,2.38.15.55-.46,1.63.35,1.53,4-.5-.86-7.67-3-8.6s-4.63.17-6.83-.4c-.38-.1-1-1.13-1.4-1.08-2.76.35-3.3,2.32-7.5.47s-6.84-8.94-10.64-11.89c-1.29-1-9.44-6.16-9.69-6.81-.66-1.71,6.16-.29,6.61,0,.82.43,1.71,2.61,2.12,1.78,1-2-7.8-9.08-6.32-10.07,1.76-1.17,5.13,1,6.54,1.85.79.48,1.94,2.69,2.12,1.78.54-2.74-7-10.7-5.45-11.91,2.43-1.92,7.27,4.61,8.13,5.74a24.44,24.44,0,0,1,1.42,2.5c.19.35.36,1.34.6,1s-.19-1.54-.23-1.86c-.12-.95.06-12.12,2.66-10.11,2.22,1.72,2.86,6.71,2.9,9.25,0,0,0,1.4,0,1.41,1.69.59,3.37-9.28,6.9-6.54,2.35,1.82,0,6-.88,8-.07.14-.81,1.55-.43,1.63s2.4-2.51,3-2.74c.76-.32,5.34,0,4.77,1.6-.25.71-6.87,2.95-6.24,4.26.06.11,6.92.17,5.53,2.6-1.48,2.61-8.29-1.16-9,2.4-.22,1.09,6.72-.44,7.06,2.26,0,.17-3.67,1.13-4.19,1.79-1.78,2.3-2.21,5.2-3.94,7.43-2.5,3.23,2.48,3.12,3.81,3.93,1.09.67.22,2.08,1,2.87,2.07,2.14,5.65,2.8,8.19,3.69"/><path class="cls-5" d="M198.15,81.42c-1.27-10,8.39-3.07,10.12-4.74.84-.82-2.43-3.94-3.21-4.17-1.35-.38-4.05,1.62-4.22.22-.38-3,10-5.25,9-7.28-2-4.18-7.49,2.18-8.76,1.74-.22-.08.12-.46.23-.66,1.77-3.1,1.6-6.41,4.17-9.36.25-.28,3-2.7,1.8-3.22-2.84-1.25-7.16,5.85-9,7.6-.09.08-.2.26-.29.19-1.48-1.14-.22-6.32-1.84-8.27a24.39,24.39,0,0,0-6.72-5.31c-.35-.2-1.88-1.37-2.25-.81s.23,1.47.33,1.66c.75,1.43,6.08,8.92,3.53,10.15-.39.18-5.47-4.68-8.18-1.17-1,1.24,2.77,3.78,3.42,4.61.39.49,1.91,1.33,1.28,1.41-1.84.23-6.83-4.57-8.88-.45-.29.56,2.85,1.5,3.2,1.64,2,.77,3,2,4.52,3.37.78.68,3.61,1.59,2.58,1.72-1.79.23-7.13-2.15-7.38,1.41-.08,1.1,6,1.62,7.47,3,.31.29,1.11,1,.6,1-1.33.16,1.93.85,2.35,2.38.15.55-.46,1.63.35,1.53,4-.5-.86-7.67-3-8.6s-4.63.17-6.82-.4c-.39-.1-1-1.13-1.4-1.09-2.77.35-3.31,2.33-7.51.48s-6.83-8.94-10.64-11.89c-1.29-1-9.43-6.16-9.69-6.81-.66-1.71,6.16-.29,6.62,0,.81.43,1.7,2.61,2.11,1.78,1-2-7.8-9.08-6.31-10.07,1.75-1.17,5.12,1,6.53,1.85.79.48,1.94,2.69,2.12,1.78.54-2.74-7-10.7-5.45-11.92,2.43-1.91,7.27,4.62,8.14,5.75a21.75,21.75,0,0,1,1.41,2.5c.19.35.36,1.34.61,1s-.2-1.55-.24-1.86c-.12-1,.07-12.12,2.66-10.11,2.22,1.72,2.87,6.71,2.91,9.25,0,0,0,1.4,0,1.41,1.68.59,3.36-9.28,6.89-6.54,2.35,1.82.05,6-.88,8-.07.14-.81,1.55-.42,1.63s2.39-2.51,3-2.74c.76-.32,5.35,0,4.77,1.6-.25.71-6.87,2.95-6.24,4.25.06.12,6.92.18,5.53,2.61-1.48,2.61-8.28-1.16-9,2.4-.22,1.09,6.72-.44,7.06,2.26,0,.17-3.67,1.13-4.18,1.79-1.79,2.3-2.21,5.2-3.95,7.43-2.5,3.22,2.48,3.12,3.81,3.93,1.09.67.23,2.08,1,2.87,2.07,2.14,5.66,2.8,8.19,3.69"/><path class="cls-5" d="M184.33,66.69c-1.27-10,8.39-3.07,10.12-4.74.84-.82-2.43-3.94-3.21-4.17-1.35-.38-4.05,1.62-4.23.22-.37-3,10-5.25,9-7.28-2-4.18-7.49,2.18-8.76,1.74-.22-.08.11-.46.23-.66,1.77-3.1,1.6-6.41,4.17-9.35.25-.28,3-2.71,1.8-3.23-2.84-1.25-7.16,5.85-9,7.6-.09.08-.2.26-.29.19-1.48-1.14-.22-6.32-1.84-8.27a24.39,24.39,0,0,0-6.72-5.31c-.35-.2-1.88-1.37-2.25-.81s.23,1.47.33,1.66c.75,1.43,6.08,8.92,3.53,10.15-.39.19-5.47-4.68-8.18-1.17-1,1.24,2.77,3.78,3.42,4.61.39.49,1.91,1.33,1.28,1.41-1.84.23-6.83-4.57-8.88-.45-.29.56,2.85,1.5,3.2,1.64,2,.77,3,2,4.52,3.37.78.68,3.61,1.59,2.58,1.72-1.79.23-7.13-2.15-7.38,1.41-.08,1.1,6,1.62,7.47,3,.31.29,1.11,1,.6,1-1.33.16,1.93.85,2.35,2.38.15.55-.46,1.63.35,1.53,4-.5-.86-7.67-3-8.6s-4.63.17-6.83-.4c-.38-.1-1-1.13-1.39-1.09-2.77.36-3.31,2.33-7.51.48s-6.83-8.94-10.64-11.89c-1.29-1-9.44-6.16-9.69-6.81-.66-1.71,6.16-.29,6.62-.05.81.43,1.7,2.61,2.11,1.78,1-2-7.8-9.08-6.31-10.07,1.75-1.17,5.12,1,6.53,1.85.79.48,1.94,2.69,2.12,1.78.54-2.74-7-10.7-5.45-11.91,2.43-1.92,7.27,4.61,8.13,5.74a23.42,23.42,0,0,1,1.42,2.5c.19.35.36,1.34.61,1s-.2-1.55-.24-1.86c-.12-.95.07-12.12,2.66-10.11C160,19,160.62,24,160.66,26.52c0,0,0,1.4,0,1.41,1.68.59,3.36-9.28,6.89-6.54,2.35,1.82.05,6-.88,8-.07.14-.81,1.55-.42,1.63s2.39-2.51,3-2.74c.76-.32,5.35,0,4.77,1.6-.25.71-6.87,2.95-6.24,4.25.06.12,6.92.18,5.53,2.61-1.48,2.61-8.28-1.16-9,2.4-.22,1.09,6.72-.44,7.06,2.26,0,.17-3.67,1.13-4.18,1.79-1.79,2.3-2.21,5.2-4,7.43-2.5,3.22,2.48,3.12,3.81,3.93,1.09.67.23,2.08,1,2.87,2.07,2.14,5.66,2.8,8.19,3.69"/><path class="cls-5" d="M162,70.7c-1.28-10.06,8.39-3.08,10.11-4.75.84-.82-2.43-3.94-3.21-4.17-1.35-.38-4.05,1.62-4.22.22-.38-3,10-5.25,9-7.28-2-4.18-7.49,2.18-8.76,1.74-.22-.08.12-.46.23-.66,1.77-3.1,1.6-6.41,4.18-9.35.24-.28,3-2.71,1.79-3.23-2.84-1.25-7.16,5.85-9,7.6-.08.08-.2.27-.29.19-1.48-1.14-.22-6.32-1.84-8.27a24,24,0,0,0-6.72-5.3c-.35-.21-1.87-1.38-2.24-.82s.22,1.47.32,1.66c.75,1.43,6.08,8.92,3.53,10.15-.39.19-5.47-4.68-8.18-1.17-1,1.25,2.77,3.78,3.42,4.61.39.5,1.91,1.33,1.28,1.41-1.84.23-6.83-4.57-8.88-.45-.28.56,2.85,1.5,3.2,1.64,2,.78,3,2,4.52,3.37.78.68,3.61,1.59,2.58,1.72-1.79.23-7.13-2.15-7.38,1.41-.08,1.1,6,1.62,7.47,3,.31.29,1.11,1,.6,1-1.33.17,1.93.85,2.35,2.38.15.55-.45,1.63.35,1.53,4-.5-.86-7.67-3-8.6s-4.62.17-6.82-.4c-.39-.1-1-1.13-1.4-1.08-2.77.35-3.31,2.32-7.5.47s-6.84-8.94-10.65-11.89c-1.28-1-9.43-6.16-9.68-6.81-.67-1.71,6.15-.29,6.61-.05.81.43,1.7,2.61,2.11,1.78,1-2-7.8-9.08-6.31-10.07,1.75-1.17,5.13,1,6.54,1.85.79.48,1.93,2.69,2.11,1.78.54-2.74-7-10.7-5.45-11.91,2.44-1.92,7.27,4.61,8.14,5.74a23.42,23.42,0,0,1,1.42,2.5c.18.35.36,1.34.6,1s-.2-1.54-.24-1.86c-.12-.95.07-12.12,2.66-10.11,2.22,1.72,2.87,6.71,2.91,9.25,0,0,0,1.4,0,1.41,1.69.59,3.36-9.28,6.89-6.54,2.35,1.82.05,6-.88,8-.07.14-.81,1.55-.42,1.63s2.39-2.51,3-2.74c.76-.32,5.35,0,4.77,1.6-.25.71-6.86,3-6.23,4.26,0,.11,6.91.17,5.53,2.6-1.49,2.61-8.29-1.16-9,2.4-.21,1.09,6.72-.44,7.06,2.26,0,.17-3.67,1.13-4.18,1.79-1.79,2.3-2.21,5.2-3.95,7.43-2.49,3.22,2.48,3.12,3.81,3.93,1.09.67.23,2.08,1,2.87,2.08,2.14,5.66,2.8,8.19,3.69"/><path class="cls-5" d="M151.78,60.87c-1.27-10,8.39-3.07,10.12-4.74.84-.82-2.43-3.94-3.21-4.17-1.36-.38-4.05,1.62-4.23.22-.38-3,10-5.25,9-7.28-2-4.18-7.49,2.18-8.76,1.74-.22-.08.11-.46.23-.66,1.77-3.1,1.6-6.41,4.17-9.35.25-.28,3-2.71,1.8-3.22-2.84-1.26-7.16,5.84-9,7.59-.09.08-.2.27-.3.19-1.47-1.14-.21-6.32-1.83-8.27a24.17,24.17,0,0,0-6.72-5.3c-.35-.21-1.88-1.38-2.25-.82s.22,1.47.33,1.66c.75,1.43,6.08,8.92,3.53,10.15-.39.19-5.47-4.68-8.18-1.17-1,1.25,2.77,3.78,3.42,4.61.39.5,1.91,1.33,1.28,1.41-1.84.23-6.83-4.57-8.88-.45-.29.56,2.85,1.5,3.2,1.64,2,.78,3,2,4.52,3.37.78.68,3.61,1.59,2.58,1.72-1.8.23-7.13-2.15-7.38,1.41-.08,1.1,6,1.62,7.47,3,.31.29,1.11,1,.6,1-1.33.17,1.93.85,2.35,2.38.15.55-.46,1.63.35,1.53,4-.5-.86-7.67-3-8.6s-4.63.17-6.83-.4c-.38-.1-1-1.13-1.39-1.08-2.77.35-3.31,2.32-7.51.47s-6.84-8.94-10.64-11.89c-1.29-1-9.44-6.16-9.69-6.81-.66-1.71,6.16-.29,6.62-.05.81.43,1.7,2.61,2.11,1.78,1-2-7.8-9.08-6.32-10.07,1.76-1.17,5.13,1,6.54,1.85.79.48,1.94,2.69,2.12,1.78.54-2.74-7-10.7-5.45-11.91,2.43-1.92,7.27,4.61,8.13,5.74a24.44,24.44,0,0,1,1.42,2.5c.19.35.36,1.34.61,1s-.2-1.54-.24-1.86c-.12-.95.07-12.12,2.66-10.11,2.22,1.72,2.87,6.71,2.9,9.25,0,0,0,1.4,0,1.41,1.68.59,3.36-9.28,6.89-6.54,2.35,1.82,0,6-.88,8-.07.14-.81,1.55-.43,1.63s2.4-2.51,3-2.74c.76-.32,5.34,0,4.77,1.6-.25.71-6.87,2.95-6.24,4.26.06.11,6.92.17,5.53,2.6-1.48,2.61-8.28-1.16-9,2.4-.22,1.09,6.72-.44,7.06,2.26,0,.17-3.67,1.13-4.19,1.79-1.78,2.3-2.2,5.2-3.94,7.43-2.5,3.23,2.48,3.12,3.81,3.93,1.09.67.22,2.08,1,2.87,2.07,2.14,5.65,2.8,8.19,3.69"/><path class="cls-5" d="M131.42,65.24c-1.28-10.06,8.38-3.08,10.11-4.75.84-.81-2.43-3.94-3.21-4.16-1.35-.39-4,1.62-4.22.22-.38-3,10-5.25,9-7.29-2-4.18-7.49,2.19-8.76,1.74-.22-.07.12-.45.23-.66,1.77-3.1,1.6-6.41,4.18-9.35.24-.28,3-2.71,1.79-3.22-2.84-1.25-7.16,5.85-9,7.59-.08.09-.2.27-.29.2-1.48-1.15-.22-6.33-1.84-8.28a24.21,24.21,0,0,0-6.72-5.3c-.35-.21-1.87-1.37-2.24-.81s.22,1.47.32,1.66c.75,1.43,6.08,8.92,3.53,10.14-.39.19-5.47-4.67-8.18-1.17-1,1.25,2.77,3.79,3.42,4.61.39.5,1.91,1.33,1.28,1.41-1.84.24-6.83-4.57-8.88-.45-.28.57,2.85,1.51,3.2,1.65,2,.77,3,2,4.52,3.36.78.68,3.61,1.59,2.58,1.72-1.79.23-7.13-2.14-7.38,1.41-.08,1.1,6,1.63,7.47,3,.31.28,1.11,1,.6,1-1.33.17,1.93.86,2.35,2.38.15.55-.46,1.64.35,1.54,4-.51-.86-7.68-3-8.61s-4.62.18-6.82-.4c-.39-.1-1-1.13-1.4-1.08-2.77.35-3.31,2.32-7.5.48S100.13,44.9,96.32,42c-1.28-1-9.43-6.17-9.68-6.81-.67-1.71,6.15-.29,6.61,0,.81.43,1.7,2.6,2.11,1.78,1-2-7.8-9.08-6.31-10.07,1.75-1.18,5.13,1,6.53,1.85.8.47,1.94,2.68,2.12,1.78.54-2.74-7-10.7-5.45-11.92,2.44-1.91,7.27,4.61,8.14,5.75a22.48,22.48,0,0,1,1.42,2.5c.18.35.36,1.34.6,1s-.2-1.54-.24-1.86c-.12-1,.07-12.12,2.66-10.1,2.22,1.72,2.87,6.7,2.91,9.24,0,0,0,1.41,0,1.42,1.68.59,3.36-9.29,6.89-6.55,2.35,1.82,0,6-.88,8-.07.15-.81,1.55-.42,1.63s2.39-2.5,3-2.74c.76-.31,5.35,0,4.77,1.6-.25.72-6.86,2.95-6.23,4.26.05.11,6.91.17,5.52,2.61-1.48,2.6-8.28-1.16-9,2.4-.21,1.08,6.72-.44,7.06,2.26,0,.17-3.67,1.12-4.18,1.79-1.79,2.3-2.21,5.19-4,7.43-2.49,3.22,2.48,3.12,3.81,3.93,1.09.67.23,2.08,1,2.87,2.08,2.14,5.66,2.8,8.19,3.69"/><path class="cls-6" d="M212.34,86.88c-1.28-10.06,8.39-3.08,10.11-4.75.84-.81-2.43-3.94-3.2-4.16-1.36-.39-4.05,1.62-4.23.22-.38-3,10-5.25,9-7.29-2-4.18-7.49,2.19-8.76,1.74-.22-.07.12-.45.23-.66,1.77-3.1,1.61-6.41,4.18-9.35.24-.28,3-2.71,1.8-3.22-2.85-1.25-7.17,5.85-9,7.59-.08.09-.2.27-.29.2-1.48-1.15-.22-6.33-1.83-8.28a24.35,24.35,0,0,0-6.72-5.3c-.35-.21-1.88-1.37-2.25-.81s.22,1.47.32,1.66c.75,1.43,6.09,8.92,3.53,10.14-.39.19-5.46-4.67-8.18-1.17-1,1.25,2.77,3.79,3.42,4.61.39.5,1.91,1.33,1.28,1.41-1.84.24-6.83-4.56-8.88-.45-.28.57,2.86,1.51,3.2,1.64,2,.78,3,2,4.53,3.37.77.68,3.6,1.59,2.58,1.72-1.8.23-7.13-2.14-7.39,1.41-.08,1.1,6,1.63,7.47,3,.32.28,1.11,1,.6,1-1.32.17,1.93.85,2.35,2.38.15.55-.45,1.64.35,1.53,4-.5-.85-7.67-3-8.6s-4.63.18-6.83-.4c-.38-.1-1-1.13-1.4-1.08-2.77.35-3.3,2.32-7.5.48s-6.84-8.94-10.65-11.89c-1.28-1-9.43-6.17-9.68-6.81-.67-1.71,6.15-.29,6.61-.05.82.43,1.71,2.6,2.12,1.78,1-2-7.81-9.08-6.32-10.08,1.76-1.17,5.13,1,6.54,1.86.79.47,1.93,2.68,2.11,1.78.55-2.74-7-10.7-5.44-11.92,2.43-1.91,7.27,4.61,8.13,5.75a22.48,22.48,0,0,1,1.42,2.5c.19.35.36,1.34.6,1s-.19-1.54-.23-1.86c-.12-1,.06-12.12,2.66-10.1,2.22,1.72,2.86,6.7,2.9,9.24,0,0,0,1.41,0,1.42,1.69.59,3.36-9.29,6.89-6.55,2.35,1.82.05,6-.88,8-.06.15-.81,1.55-.42,1.63s2.4-2.5,3-2.74c.77-.31,5.35,0,4.77,1.6-.25.72-6.86,3-6.23,4.26,0,.11,6.92.17,5.53,2.61-1.48,2.6-8.29-1.16-9,2.4-.21,1.08,6.72-.44,7.07,2.26,0,.17-3.68,1.12-4.19,1.79-1.78,2.3-2.21,5.19-3.94,7.43-2.5,3.22,2.47,3.12,3.8,3.93,1.1.67.23,2.08,1,2.87,2.07,2.14,5.65,2.8,8.18,3.69"/><path class="cls-6" d="M190.88,76.51c-1.27-10.05,8.39-3.07,10.11-4.74.85-.82-2.43-3.94-3.2-4.17-1.36-.38-4,1.62-4.23.22-.38-3,10-5.25,9-7.28-2-4.19-7.5,2.18-8.77,1.74-.21-.08.12-.46.24-.66,1.76-3.1,1.6-6.41,4.17-9.35.25-.29,3-2.71,1.8-3.23-2.84-1.25-7.16,5.85-9,7.6-.08.08-.2.26-.29.19-1.48-1.14-.22-6.32-1.83-8.27a24.39,24.39,0,0,0-6.72-5.31c-.35-.2-1.88-1.37-2.25-.81s.22,1.47.32,1.66c.75,1.43,6.09,8.92,3.54,10.15-.4.18-5.47-4.68-8.19-1.17-1,1.24,2.77,3.78,3.42,4.6.4.5,1.91,1.34,1.28,1.42-1.84.23-6.83-4.57-8.88-.45-.28.56,2.86,1.5,3.2,1.64,2,.77,3,2,4.53,3.37.78.68,3.61,1.59,2.58,1.72-1.8.23-7.13-2.15-7.39,1.41-.08,1.1,6,1.62,7.47,3,.32.29,1.11,1,.61,1-1.33.16,1.93.85,2.35,2.38.15.55-.46,1.63.35,1.53,4-.5-.86-7.67-3-8.61s-4.63.18-6.83-.39c-.38-.1-1-1.13-1.4-1.09-2.77.35-3.3,2.33-7.5.48s-6.84-8.94-10.64-11.89c-1.29-1-9.44-6.16-9.69-6.81-.66-1.71,6.15-.29,6.61,0,.82.43,1.71,2.61,2.12,1.78,1-2-7.8-9.08-6.32-10.07,1.76-1.18,5.13,1,6.54,1.85.79.47,1.94,2.69,2.12,1.78.54-2.74-7-10.7-5.45-11.91,2.43-1.92,7.27,4.61,8.13,5.74a23.42,23.42,0,0,1,1.42,2.5c.19.35.36,1.34.6,1s-.19-1.54-.23-1.86c-.12-1,.06-12.12,2.66-10.11,2.22,1.72,2.86,6.71,2.9,9.24,0,0,0,1.41,0,1.42,1.69.59,3.36-9.28,6.9-6.54,2.35,1.82,0,6-.88,8-.07.14-.82,1.55-.43,1.62s2.4-2.5,3-2.73c.77-.32,5.35,0,4.78,1.6-.25.71-6.87,3-6.24,4.25.05.12,6.92.18,5.53,2.61-1.48,2.61-8.29-1.16-9,2.4-.22,1.09,6.72-.44,7.06,2.26,0,.17-3.68,1.13-4.19,1.79-1.78,2.3-2.21,5.19-3.94,7.43-2.5,3.22,2.48,3.12,3.8,3.93,1.1.67.23,2.08,1,2.87,2.07,2.14,5.65,2.8,8.19,3.69"/><path class="cls-6" d="M174.88,82.7C173.6,72.64,183.27,79.62,185,78c.84-.82-2.43-3.94-3.2-4.16-1.36-.39-4,1.62-4.23.22-.38-3,10-5.25,9-7.29-2-4.18-7.49,2.19-8.76,1.74-.22-.08.12-.46.23-.66,1.77-3.1,1.61-6.41,4.18-9.35.24-.28,3-2.71,1.8-3.22-2.85-1.25-7.17,5.85-9,7.59-.08.08-.2.27-.29.2-1.48-1.15-.22-6.33-1.84-8.28a24,24,0,0,0-6.71-5.3c-.35-.21-1.88-1.37-2.25-.81s.22,1.46.32,1.65c.75,1.43,6.09,8.92,3.53,10.15-.39.19-5.46-4.67-8.18-1.17-1,1.25,2.77,3.78,3.42,4.61.39.5,1.91,1.33,1.28,1.41-1.84.23-6.83-4.57-8.88-.45-.28.57,2.85,1.51,3.2,1.64,2,.78,3,2,4.52,3.37.78.68,3.61,1.59,2.59,1.72-1.8.23-7.13-2.15-7.39,1.41-.08,1.1,6,1.62,7.47,3,.32.29,1.11,1,.6,1-1.32.17,1.93.85,2.35,2.38.15.55-.45,1.63.35,1.53,4-.5-.85-7.67-3-8.6s-4.62.17-6.82-.4c-.38-.1-1-1.13-1.4-1.08-2.77.35-3.31,2.32-7.5.47s-6.84-8.94-10.65-11.89c-1.28-1-9.43-6.16-9.68-6.81-.67-1.71,6.15-.29,6.61-.05.82.43,1.71,2.61,2.12,1.79,1-2-7.81-9.08-6.32-10.08,1.75-1.17,5.13,1,6.54,1.85.79.48,1.93,2.69,2.11,1.78.55-2.74-7-10.7-5.44-11.91,2.43-1.91,7.27,4.61,8.13,5.74a24.44,24.44,0,0,1,1.42,2.5c.19.35.36,1.34.6,1s-.19-1.54-.24-1.86c-.11-1,.07-12.12,2.67-10.11,2.22,1.72,2.86,6.71,2.9,9.25,0,0,0,1.4,0,1.41,1.69.6,3.36-9.28,6.89-6.54,2.35,1.82,0,6-.88,8-.07.14-.81,1.55-.42,1.63s2.4-2.51,3-2.74c.77-.32,5.35,0,4.77,1.6-.25.71-6.86,3-6.23,4.26.05.11,6.91.17,5.53,2.61-1.49,2.6-8.29-1.17-9,2.4-.21,1.08,6.72-.44,7.06,2.25,0,.17-3.67,1.13-4.18,1.79-1.78,2.3-2.21,5.2-3.95,7.44-2.49,3.22,2.48,3.11,3.81,3.93,1.09.66.23,2.07,1,2.86,2.08,2.14,5.66,2.81,8.19,3.7"/><path class="cls-6" d="M155.05,79.61c-1.27-10.06,8.4-3.08,10.12-4.75.84-.82-2.43-3.94-3.21-4.16-1.35-.39-4.05,1.61-4.22.21-.38-3,10-5.24,9-7.28-2-4.18-7.49,2.18-8.76,1.74-.22-.08.12-.46.23-.66,1.77-3.1,1.6-6.41,4.18-9.35.24-.28,3-2.71,1.8-3.22-2.85-1.26-7.17,5.84-9,7.59-.09.08-.2.27-.29.19-1.48-1.14-.22-6.32-1.84-8.27a24,24,0,0,0-6.72-5.3c-.35-.21-1.87-1.38-2.24-.82s.22,1.47.32,1.66c.75,1.43,6.08,8.92,3.53,10.15-.39.19-5.47-4.68-8.18-1.17-1,1.25,2.77,3.78,3.42,4.61.39.5,1.91,1.33,1.28,1.41-1.84.23-6.83-4.57-8.88-.45-.28.56,2.85,1.5,3.2,1.64,2,.78,3,2,4.52,3.37.78.68,3.61,1.59,2.59,1.72-1.8.23-7.14-2.15-7.39,1.41-.08,1.1,6,1.62,7.47,3,.31.29,1.11,1,.6,1-1.32.17,1.93.85,2.35,2.38.15.55-.45,1.63.35,1.53,4-.5-.86-7.67-3-8.6s-4.62.17-6.82-.4c-.39-.1-1-1.13-1.4-1.08-2.77.35-3.31,2.32-7.5.47S123.77,59.26,120,56.31c-1.28-1-9.43-6.16-9.68-6.81-.67-1.71,6.15-.29,6.61,0,.81.43,1.7,2.61,2.11,1.78,1-2-7.8-9.08-6.31-10.07,1.75-1.17,5.13,1,6.53,1.85.8.48,1.94,2.69,2.12,1.78.55-2.74-7-10.7-5.45-11.91,2.44-1.92,7.27,4.61,8.14,5.74a24.44,24.44,0,0,1,1.42,2.5c.18.35.36,1.34.6,1s-.2-1.54-.24-1.86c-.12-.95.07-12.12,2.66-10.11,2.22,1.72,2.87,6.71,2.91,9.25,0,0,0,1.4,0,1.41,1.69.59,3.36-9.28,6.89-6.54,2.35,1.82.05,6-.88,8-.07.14-.81,1.55-.42,1.63s2.4-2.51,3-2.74c.76-.32,5.35,0,4.77,1.6-.25.71-6.86,2.95-6.24,4.26.06.11,6.92.17,5.54,2.61-1.49,2.6-8.29-1.17-9,2.39-.21,1.09,6.72-.44,7.06,2.26,0,.17-3.67,1.13-4.18,1.79-1.79,2.3-2.21,5.2-4,7.43-2.49,3.23,2.48,3.12,3.81,3.93,1.09.67.23,2.08,1,2.87,2.08,2.14,5.66,2.8,8.19,3.69"/><path class="cls-6" d="M149.6,67.6c-1.27-10.06,8.39-3.07,10.11-4.74.85-.82-2.43-3.94-3.2-4.17-1.36-.39-4,1.62-4.23.22-.38-3,10-5.25,9-7.28-2-4.19-7.5,2.18-8.76,1.74-.22-.08.11-.46.23-.66,1.76-3.1,1.6-6.41,4.17-9.36.25-.28,3-2.7,1.8-3.22-2.84-1.25-7.16,5.85-9,7.6-.08.08-.2.26-.29.19-1.48-1.14-.22-6.33-1.83-8.27a24.39,24.39,0,0,0-6.72-5.31c-.35-.2-1.88-1.37-2.25-.81s.22,1.47.32,1.66c.76,1.43,6.09,8.92,3.54,10.15-.4.18-5.47-4.68-8.19-1.18-1,1.25,2.77,3.79,3.42,4.61.4.5,1.92,1.34,1.28,1.42-1.84.23-6.83-4.57-8.88-.45-.28.56,2.86,1.5,3.2,1.64,2,.77,3,2,4.53,3.37.78.68,3.61,1.59,2.58,1.72-1.8.23-7.13-2.15-7.39,1.41-.07,1.1,6,1.62,7.47,3,.32.28,1.12,1,.61,1-1.33.16,1.93.85,2.35,2.38.15.54-.46,1.63.35,1.53,4-.5-.86-7.67-3-8.61s-4.63.18-6.83-.39c-.38-.1-1-1.13-1.4-1.09-2.76.35-3.3,2.33-7.5.48s-6.84-8.94-10.64-11.89c-1.29-1-9.44-6.16-9.69-6.81-.66-1.71,6.15-.29,6.61,0,.82.43,1.71,2.61,2.12,1.78,1-2-7.8-9.08-6.32-10.07,1.76-1.17,5.13,1,6.54,1.85.79.48,1.94,2.69,2.12,1.78.54-2.74-7-10.7-5.45-11.92,2.43-1.91,7.27,4.62,8.13,5.75a23.42,23.42,0,0,1,1.42,2.5c.19.35.36,1.34.6,1s-.19-1.55-.23-1.86c-.12-.95.06-12.12,2.66-10.11,2.22,1.72,2.86,6.71,2.9,9.24,0,0,0,1.41,0,1.42,1.69.59,3.37-9.28,6.9-6.54,2.35,1.82,0,6-.88,8-.07.14-.82,1.55-.43,1.62s2.4-2.5,3-2.73c.77-.32,5.35,0,4.78,1.6-.25.71-6.87,2.94-6.24,4.25.05.12,6.92.18,5.53,2.61-1.48,2.61-8.29-1.16-9,2.4-.22,1.09,6.72-.44,7.06,2.26,0,.17-3.67,1.13-4.19,1.79-1.78,2.3-2.21,5.19-3.94,7.43-2.5,3.22,2.48,3.12,3.81,3.93,1.09.67.22,2.08,1,2.87,2.07,2.14,5.65,2.8,8.19,3.69"/><path class="cls-6" d="M128.87,66.33c-1.27-10.06,8.39-3.08,10.11-4.75.85-.81-2.43-3.94-3.2-4.16-1.36-.39-4.05,1.62-4.23.22-.38-3,10-5.25,9-7.29-2-4.18-7.5,2.19-8.76,1.74-.23-.07.11-.45.23-.66,1.76-3.1,1.6-6.4,4.17-9.35.25-.28,3-2.71,1.8-3.22-2.85-1.25-7.16,5.85-9,7.6-.08.08-.2.26-.29.19-1.48-1.15-.22-6.33-1.83-8.28a24.35,24.35,0,0,0-6.72-5.3c-.35-.21-1.88-1.37-2.25-.81s.22,1.47.32,1.66c.75,1.43,6.09,8.92,3.54,10.14-.4.19-5.47-4.67-8.19-1.17-1,1.25,2.77,3.79,3.42,4.61.4.5,1.91,1.34,1.28,1.41-1.84.24-6.83-4.56-8.88-.45-.28.57,2.86,1.51,3.2,1.65,2,.77,3,2,4.53,3.36.78.68,3.61,1.6,2.58,1.73-1.8.22-7.13-2.15-7.39,1.4-.08,1.1,6,1.63,7.47,3,.32.28,1.11,1,.61,1-1.33.17,1.93.86,2.34,2.39.16.54-.45,1.63.36,1.53,4-.51-.86-7.68-3-8.61s-4.63.18-6.83-.4c-.38-.1-1-1.13-1.4-1.08-2.77.35-3.3,2.32-7.5.48S97.58,46,93.78,43c-1.29-1-9.44-6.17-9.69-6.81-.66-1.71,6.15-.29,6.61,0,.82.43,1.71,2.6,2.12,1.78,1-2-7.8-9.08-6.32-10.07,1.76-1.18,5.13,1,6.54,1.85.79.47,1.94,2.68,2.12,1.78.54-2.74-7-10.7-5.45-11.92,2.43-1.91,7.27,4.61,8.13,5.75a22.48,22.48,0,0,1,1.42,2.5c.19.35.36,1.34.6,1s-.19-1.54-.23-1.86c-.12-1,.06-12.12,2.66-10.1,2.22,1.72,2.86,6.7,2.9,9.24,0,0,0,1.41,0,1.42,1.69.59,3.36-9.29,6.9-6.55,2.35,1.82,0,6-.88,8-.07.15-.82,1.56-.43,1.63s2.4-2.5,3-2.74c.77-.31,5.35,0,4.78,1.61-.25.71-6.87,2.94-6.24,4.25,0,.12,6.92.17,5.53,2.61-1.48,2.6-8.29-1.16-9,2.4-.22,1.08,6.72-.44,7.06,2.26,0,.17-3.68,1.13-4.19,1.79-1.78,2.3-2.21,5.19-3.94,7.43-2.5,3.22,2.48,3.12,3.8,3.93,1.1.67.23,2.08,1,2.87,2.07,2.14,5.65,2.8,8.19,3.69"/><path class="cls-6" d="M112,58.29c-1.31-8.13,8.61-2.48,10.38-3.83.86-.66-2.5-3.19-3.29-3.37-1.39-.32-4.16,1.31-4.34.17C114.39,48.84,125,47,124,45.37c-2.06-3.38-7.69,1.77-9,1.41-.22-.06.12-.37.24-.54,1.81-2.5,1.64-5.18,4.28-7.56.25-.23,3-2.19,1.85-2.61-2.92-1-7.35,4.74-9.2,6.15-.09.06-.21.21-.3.16-1.52-.93-.22-5.12-1.88-6.7a25,25,0,0,0-6.9-4.29c-.36-.17-1.92-1.11-2.3-.66s.23,1.19.33,1.35c.77,1.15,6.24,7.21,3.62,8.2-.4.15-5.61-3.78-8.39-.94-1,1,2.84,3.06,3.51,3.72.4.41,2,1.08,1.31,1.15-1.89.19-7-3.7-9.11-.37-.29.46,2.93,1.22,3.28,1.33,2,.63,3.08,1.65,4.64,2.72.8.56,3.71,1.29,2.65,1.4-1.84.18-7.31-1.74-7.57,1.14-.09.89,6.11,1.31,7.66,2.42.32.23,1.14.78.62.83-1.36.13,2,.69,2.41,1.92.15.45-.47,1.33.36,1.24,4.07-.4-.88-6.2-3.06-7s-4.75.14-7-.32c-.4-.08-1-.91-1.44-.87-2.84.28-3.39,1.88-7.69.38s-7-7.23-10.92-9.62c-1.32-.8-9.68-5-9.94-5.51-.68-1.38,6.31-.23,6.78,0,.84.35,1.75,2.11,2.17,1.45,1-1.59-8-7.35-6.48-8.15,1.8-.95,5.26.81,6.71,1.49.81.39,2,2.18,2.17,1.45.56-2.22-7.17-8.66-5.59-9.64,2.5-1.55,7.46,3.73,8.35,4.64a18.23,18.23,0,0,1,1.45,2c.2.28.37,1.08.62.83s-.2-1.25-.24-1.51c-.12-.77.07-9.8,2.73-8.17,2.28,1.39,2.94,5.42,3,7.47,0,0,0,1.14,0,1.15,1.73.48,3.45-7.51,7.07-5.3,2.41,1.48,0,4.88-.9,6.47-.07.12-.83,1.25-.44,1.32s2.46-2,3-2.22c.79-.26,5.49,0,4.9,1.3-.26.57-7,2.38-6.4,3.44.06.09,7.1.14,5.67,2.11s-8.5-.94-9.22,1.94c-.22.88,6.89-.36,7.24,1.83,0,.13-3.77.91-4.29,1.44-1.83,1.86-2.27,4.21-4.05,6-2.56,2.6,2.54,2.52,3.91,3.18,1.12.54.23,1.68,1,2.32,2.13,1.73,5.81,2.26,8.41,3"/><path class="cls-6" d="M111.48,63.75c-1.3-8.14,8.61-2.49,10.38-3.84.87-.66-2.49-3.19-3.29-3.37-1.39-.31-4.15,1.31-4.33.18-.39-2.43,10.24-4.25,9.24-5.89-2.07-3.39-7.69,1.76-9,1.4-.23-.06.12-.37.23-.53,1.82-2.51,1.65-5.18,4.29-7.56.25-.23,3-2.2,1.84-2.61-2.92-1-7.35,4.73-9.2,6.14-.08.07-.2.22-.3.16-1.51-.93-.22-5.12-1.88-6.7a24.66,24.66,0,0,0-6.89-4.28c-.36-.17-1.93-1.11-2.31-.66s.23,1.19.33,1.34c.77,1.16,6.25,7.22,3.63,8.21-.41.15-5.61-3.78-8.4-1-1,1,2.84,3.06,3.51,3.73.4.4,2,1.08,1.31,1.14-1.88.19-7-3.69-9.11-.36-.29.46,2.93,1.22,3.29,1.33,2,.62,3.07,1.64,4.64,2.72.8.55,3.7,1.29,2.65,1.39-1.85.19-7.32-1.73-7.58,1.14-.08.89,6.11,1.32,7.66,2.42.33.23,1.14.78.62.83-1.36.14,2,.69,2.41,1.93.16.44-.47,1.32.36,1.24,4.08-.41-.88-6.21-3-7s-4.75.14-7-.32c-.39-.08-1-.92-1.43-.88-2.84.28-3.39,1.88-7.7.39s-7-7.23-10.92-9.62c-1.32-.81-9.68-5-9.94-5.51-.68-1.39,6.32-.24,6.79,0,.83.35,1.75,2.11,2.17,1.44,1-1.59-8-7.34-6.48-8.15,1.8-.95,5.26.82,6.7,1.5.82.38,2,2.17,2.17,1.44.56-2.22-7.17-8.66-5.58-9.64,2.49-1.55,7.45,3.73,8.34,4.65a18.19,18.19,0,0,1,1.46,2c.19.28.37,1.08.61.83s-.2-1.25-.24-1.5c-.12-.77.07-9.81,2.73-8.18,2.28,1.39,2.94,5.43,3,7.48,0,0,0,1.14,0,1.14,1.73.48,3.45-7.5,7.08-5.29,2.41,1.47,0,4.88-.91,6.46-.07.12-.83,1.26-.43,1.32s2.46-2,3-2.21c.78-.26,5.48,0,4.89,1.29-.25.58-7,2.39-6.4,3.44.06.1,7.1.14,5.68,2.12s-8.5-1-9.23,1.94c-.22.87,6.9-.36,7.25,1.82,0,.14-3.77.91-4.3,1.45-1.83,1.86-2.27,4.2-4,6-2.57,2.61,2.54,2.52,3.9,3.18,1.12.54.23,1.68,1,2.32,2.13,1.73,5.8,2.27,8.4,3"/><path class="cls-5" d="M89.56,56.2c-4.08,4.24-8-5.89-9.69-7.68C78.56,47.12,76.14,46,74.51,45c-1.31-.77-4.66-2.37-4.67-4.27,0-1.68,6.06,1.08,6.4-.77.23-1.29-4.43-5.28-3.54-6.34,1.37-1.6,5.32-.21,6.66.45.33.16,2.21,1.85,2.37,1S75.63,25.45,77.09,25c4-1.34,6.86,8.76,9.45,8.28.76-.14,3.18-9,4.65-8.3,3.07,1.52-2.51,8.51.27,10.51,1.61,1.16,8.05-5.37,9.32-1.62.61,1.8-8,3.53-8,7,0,2,7,1.05,8.3,4.87a.52.52,0,0,1-.43.66c-2.64.67-5.48.83-7.34,3.14-3.2,4,2.09,1.15,1.9,3.67C95,55.45,90.46,55.27,89.56,56.2Z"/><path class="cls-5" d="M98.92,58.59c.06-.48.35,0-.13-.61-1.38-1.71-5.53-2.89-5.89-5.1-.78-4.76,4.8-1.74,5.45-4.19S92.2,44.28,95,40.6c1.61-2.09,9.4,4.57,10.09,4.12,2.36-1.52-6-13.18-3.66-15.58s8,8.89,8.68,10.52c.13.31,1.66,3.33,2.11,3.23,1.87-.41.82-5.72,1.64-7.06.6-1,5.34-5,6.24-3.58.78,1.21-3.71,9.2-2.18,10,1.1.54,8.35-3.29,10.24-1.28,1.5,1.6-9.1,4.09-9.3,6.66,0,.23.62.6.79.61,2.22.09,6.79-.91,8.11,1.93.71,1.52-8.71,2.16-10.27,4-.26.3.21.59.4.75,1.18,1,7.66,3.31,4.23,6.24a79.44,79.44,0,0,1-9.62,3.55C109.83,64.93,98.5,62.17,98.92,58.59Z"/><path class="cls-5" d="M132.89,69.07c-1.63-2.29-14.1-8.89-11.19-13.75,1.27-2.12,8.76,3.44,8.76-.12,0-1.66-9.11-10.41-6.57-12.53s13,7,13.26,6.93.06-2.38.12-2.67A11.93,11.93,0,0,1,140,41.7c1.54-1.54,3.74,2.93,3.65,4-.06.74-1.75,3.89-1.34,4.5.12.18,3.4-2.19,3.77-2.31,1.56-.52,6.49-.52,7.42,1.34,1,2.07-11.28,7.21-12,9.49-.69,2.05,12.28-3.53,12.28,1.21,0,.25-8.26,3.65-9.36,4.75-1.37,1.36.46,1.8-.25,3-1,1.74-5.23-.17-6.32,1.58-.33.53.82,5.93-1.58,3.53"/><path class="cls-5" d="M148.34,77.58c-4.94,0-7.14-5.12-8-9.12-.12-.56-1.4-3.21-1-3.53,1.54-1.16,4.87.56,6.2,1.34.37.21,2.31,2.27,2.31,1.46,0-3.68-5.52-14.57-3.16-16.54,3.66-3,9.18,13.07,13.14,10.09,1.15-.86-1.54-4.42-2-5.23-1-2.08-3.61-13.83-.85-15.2.88-.44,2.59,3.76,2.8,4.25.85,2,1.34,10.66,3.89,11.68,1.62.65,2-16.23,7.91-13.26,4,2-4.64,10.48-3.28,13.87.36.91,3.82-2.77,4-2.92a11.9,11.9,0,0,1,9.37-2.19c.33.08,1,0,1,.37,0,1.42-12.91,6.73-11.31,9.12.62.94,7.56-3.6,8.27,1.34.46,3.24-13.38,3.63-13.63,4.62-.47,1.89,8.15.69,8.15,4.14,0,1.75-7.72,1.88-9.61,3.77-1.34,1.34,4.78,1.49,3.53,3.16,0,.06-11.58,1.42-11.92,1.34-.7-.18-2.24-1.82-3.16-2.19"/><path class="cls-3" d="M68.14,73.28c-4.18,1.63-10.28,1-14.75.84-3.8-.11-7.57-.21-11.38-.4-5-.25-20.86-4.86-10.16-11.46,7.85-4.84,29.29-9.13,37.38-3.85"/><path class="cls-5" d="M178.14,80.14c-.32.65-2.75,1.17-3.52,1.34C168.83,82.72,164.16,75,164.16,70c0-.46,1-.24,1.21-.24,1.24,0,7.81,4.5,8.76,2.92s-9.63-9.95-6.81-12.78c2.63-2.62,8.49,7.38,12.16,6.33,1.45-.41-.29-3.23-.73-3.89-1.92-2.9-4.86-8.22-2.55-11.68,2.56-3.84,7.18,8.58,9.61,8.88,1.52.19-.25-6.6,0-7.66s4.9-2.13,5.72-1.59c3.54,2.36-1,10.08-1,13,0,.12-.11.31,0,.36,1.46.74,4.24-3.84,6.33-2.79,5.24,2.62-8.07,8.14-8.64,9.85s6,.8,5.23,3-2.51,2.28-3.53,3.89c-.55.88-.13,2.45-.6,3.17-1.71,2.55-7.15.61-9.37.61-1.19,0-3.13,2.26-5.23,1.21-.63-.31.66-1.69-1.83-2.31"/><path class="cls-5" d="M201.32,82.27c2-.63-2.5.31-3.71-.43-2-1.22-3.63-4.26-4-6.57-1.12-6.77,6.27.58,7.3-1,1.33-2-3.19-5.61-1.46-7.06,3.23-2.69,5.37,1.79,7.67,3.17.38.22,1.87,0,1.94.12.3.39-.38,2.06-.48,2.43a9.8,9.8,0,0,0-.37,1.09c.91-1.81,4.33-4.22,5.84-1.7,1,1.64-2,3.88-1.7,4.14,2,1.54,5.39-.87,5.84,3.16.27,2.46-1.9,2.15-3.41,3.41S216.51,87.88,210,87C208.47,86.73,200,82.7,201.32,82.27Z"/><path class="cls-7" d="M46.13,71s-9.32-1.08-12.4-4.55c-4.36-4.9,9.22-19.8,12-23.34C49.07,38.93,59,27.18,65,29.05c2.44.76,5.36,5.87,6.76,7.83,5.24,7.28,12.49,13.24,15.38,22,1,3.17,2.91,6.74-.37,9.22-5.19,3.92-18.36,5.44-25,4.36-1.59-.26-7.7-.72-7.7-.72"/><path class="cls-8" d="M73,81.83c2.48,0,.88,0,4.76-.48"/><path class="cls-3" d="M99.79,74.24c-.16-2.73,3.58-3.28,5.85-3.41,4.6-.28,11.7,3.42,10,8.72-1,3.26-11,5-13.69,5.29-10.82,1-24,.85-34.36-2.76C64.23,80.91,59,79.73,57.48,76c-2.84-7.08,15.75-7.86,18.75-7.63a42.68,42.68,0,0,1,4.51.54c2.16.38,4.35.83,6.47,1.4"/><path class="cls-6" d="M101.93,52.64c1.43,0,1.61-1.36,1.68-2.57,0-.63-2.12-2.66.21-2.33s2.07,2.73,4.49.83.79,1.7,1.08,1.85c.78.39,2-.75,2.78,0,.4.39,0,1.28.22,1.55.83.83,2.68-.7,3.56.9.58,1-.48,2-.66,2.89-.23,1.12,2.31,1.16,1.44,2.89-.37.76-7,4.79-8,4.79-.53,0-2-.9-2.45-.55s.12,1-.11,1.22-.56-1.4-.56-1.56"/><path class="cls-8" d="M63.63,30.24C66,29,68,33.66,69,35.37c3.84,6.39,11.22,11.37,13.76,18.47.69,1.93,4,7,1.38,8.62-.75.45-5.75-.94-6.41-1.81-1-1.29-.13-1.73-.17-3,0-.06-2.14-3.66-2.35-3.92-.76-.93-2.44-.7-3.26-1.52-1.3-1.3-1.11-4.67-1.92-6.44-1.75-3.8-4,0-4-5.93a17.44,17.44,0,0,0-.57-3.37c-.37-.62-1.39-.49-1.88-1C62.69,34.6,62.5,30.84,63.63,30.24Z"/><path class="cls-9" d="M66.29,79.25s5.9,2.34,8.49,2.64c9.93,1.16,17.74,2.51,27.74.42,2.06-.43,5.29-.87,6.82-2.54,10.1-11-7-27.12-14-35.13-2.68-3.08-6.16-10-11-9.08-3.42.63-5.67,5-8,7.13C70.67,48,52.27,71.8,63.21,77.81"/><path class="cls-10" d="M86,39.36C85,33.64,94.08,46,94.09,46c5.15,5.72,13.91,15.1,15.15,23,.33,2.12,1.89,6.26-.23,7.95-3.32,2.65-2.27-7.32-2.38-7.9-.44-2.33-1.88-1.81-2.94-3.38s-1.58-4.05-2.56-5.88-4.46-.72-5.18-2.68c-.82-2.23-.41-5.14-1.62-7.27-.27-.47-1.45-.46-1.9-.88C89.8,46.49,86.53,42.68,86,39.36Z"/><path class="cls-6" d="M123.08,65.36a5.67,5.67,0,0,1-2.1-2.09c-.62-.79-.45-1.72-.45-2.68,0-.43-.52-1.47-.44-1.78.24-1,2.37-.14,2.78,0,1.32.44,7.31,2.59,8.46,2s-1.09-6.09,1.12-6.46c1.25-.21,2.7,2.59,2.89,3.56.16.79-.25,1.8,0,2.56.55,1.64,3.62-.65,4.34.56s-2.39,1.55-2.56,2.56c-.1.63,1.48.61,1.78,1.23.59,1.17-3.14,2.91-3.78,3.34-.37.24-.14.58-.33.77-1.11,1.11-6.83-1.58-6.83-1.58"/><path class="cls-6" d="M153,78c-2.23-1.71-3.61-4.1-2.51-6.85.34-.85,1.12-1.27,1.22-2.22a8.07,8.07,0,0,0-.66-2.79c-.19-.64-1.62-4.54-1.45-4.67.53-.43,2.14.88,2.45,1.11a8.3,8.3,0,0,1,2.78,2.9c.47,1,.29,3.89,1.67,4.12.58.09,4.12-4.85,5.68-2.9.6.74-2,4-1.89,4.45s1.78-.33,2.11.12c.74,1-2.16,3.2-2.67,3.89a1.48,1.48,0,0,0,.11,1.9c-.75,1.25-3.74.5-4.9.89-.22.07-1,.73-1.33.55A3.69,3.69,0,0,1,153,78Z"/><path class="cls-6" d="M175.58,81.26c2.08,1-1.56-4.13-1-5.35.42-.83,3.79.43,4.9-2.22,1-2.41-1.53-3.51-1.23-5,.13-.64,2.34-1.32,2.9-.9a45.82,45.82,0,0,1,4.45,5.57c.21,1-.54,2.5,0,3.45.29.5,1,.4,1.45.34.12,0,.37-.23.33-.11-.38,1.16-2.91,2.61-3.78,3.56-.33.36-.22,1.45-.22,1.45s-1.34,0-2-.12c-1.48-.18-3-.56-4.45-.78a13.06,13.06,0,0,1-1.89-.11c-.11,0-.32-.26-.23-.22C175.11,80.93,175.32,81.13,175.58,81.26Z"/><path class="cls-6" d="M200.13,81.48a5,5,0,0,1-1.34-1.78,2.45,2.45,0,0,1-.44-1.56c-.26-3.9,4-1.32,5.34-2.45.28-.23.39-.84.67-1.11s1-.27,1.33-.78c.1-.16.21-1.35.45-1.23.68.34,1.52,2.69,1.89,3.34,0,0,1.21,1.92,1,2.12s-1,.11-.66.89c.16.41,1.11.49,1.11.89,0,1-3.09,1.38-3.68,1.56-1,.29-.58.5-.77.89C204.48,83.35,200.71,81.88,200.13,81.48Z"/><path class="cls-10" d="M99.16,71.17c1-1,2.6.75,1.58,1.77C99.47,74.21,97.66,72.64,99.16,71.17Z"/><path class="cls-10" d="M88.08,55.35c.77-.23,2,.1,1.3,1.1C87.82,58.52,87.94,55.39,88.08,55.35Z"/><path class="cls-10" d="M87.24,69.22c.05.13.2-.18.41-.31.69-.43,1.94,0,1.53,1-.17.43-.19.41-.57.72C86.08,72.69,87,68.68,87.24,69.22Z"/><path class="cls-10" d="M73.48,53.62c.48-1.14,3.57-.65,3.1,1A1.63,1.63,0,1,1,73.48,53.62Z"/><path class="cls-10" d="M70.51,68.87c1.3-1.25,3.2,1.08,2,2.2C70.75,72.68,69.07,70.26,70.51,68.87Z"/><path class="cls-10" d="M67,61c1.14-1.33,2.32.61,1.39,1.7S66.26,61.88,67,61Z"/><path class="cls-10" d="M82.86,61.48c1.14-.47,1.5.83.57,1.35C82.8,63.17,81.87,61.89,82.86,61.48Z"/><path class="cls-10" d="M81.42,43.12c1.17-.8,2,.82,1,1.68C81.57,45.51,80.57,43.7,81.42,43.12Z"/><path class="cls-10" d="M80.87,76.82c2.36-.67,3,1.54,1.12,2.26C80.91,79.48,78.82,77.41,80.87,76.82Z"/><path class="cls-8" d="M62.85,49.58c4.26,0-1.87,4-.71.54"/><path class="cls-8" d="M56.14,39.87c.32-.63,1.59-.11,1.2.57C56.76,41.45,55.66,40.82,56.14,39.87Z"/><path class="cls-8" d="M48,45.54c.7-.7,1.36,1.12.68,1.81s-1.53-.93-1.18-.93"/><path class="cls-8" d="M50.9,53.58c1,0,2.15,1.58.71,1.76-.33,0-2-.73-1.26-1.09"/><path class="cls-8" d="M55.76,62.12c1-.66,2.13.67,1.24,1.31S54.56,62.92,55.76,62.12Z"/><path class="cls-8" d="M44.18,58.46c.22-.61,2.45-.31,2,.5C45.58,60.25,43.69,59.85,44.18,58.46Z"/><path class="cls-8" d="M37.62,58.33c.92-1.35,1.64.36,1,1S36.87,59.42,37.62,58.33Z"/><path class="cls-8" d="M41.72,65c1.08-1,1.91.24,1,1.18C42.19,66.67,40.87,65.75,41.72,65Z"/><path class="cls-8" d="M52.52,68.29c1-.15,2.38,1.32.65,1.54C52.29,69.93,51.43,68.44,52.52,68.29Z"/></g></g></svg>