<svg version="1.2" baseProfile="tiny-ps" xmlns="http://www.w3.org/2000/svg" viewBox="0 0 842 350" width="842" height="350"><title>why-svg</title><style>tspan { white-space:pre }.shp0 { fill: #b0e1b8 } .shp1 { fill: #b8eac0 } .shp2 { fill: #568459 } .shp3 { fill: #abe3e4 } .shp4 { fill: #81b7ed } .shp5 { fill: #7cb474 } .shp6 { fill: #4e7847 } .shp7 { fill: #6b96e0 } </style><g id="Layer 1"><path id="Layer" class="shp0" d="m460.69-558.41c-0.22-0.36-0.43-0.72-0.65-1.08" /><path id="Layer" class="shp0" d="m927.81 325.84c-15.85-1.84-33.95 11.18-48.47 16.6c-29.34 10.96-62.34 16.21-93.07 21.81c-33.8 6.16-68.21 8.22-102.27 12.52c-91.14 11.52-181.96 23.81-272.04 42.1c-76.48 15.52-154.33 25.95-231.77 35.78c-46.38 5.88-116.51 25.86-161.48 4.06c-15.76-7.64-34.2-20.94-42.21-37.18c-4.21-8.53-6.25-18.5-10.73-27.24c-12.13-23.62-26.68-45.53-35.52-70.86c-11.79-33.78-12.78-71.29-14.68-106.63c-1.38-25.64-1.33-74.86 16.26-96.14c15.17-18.35 39.04-26.01 60.52-33.94c37.31-13.77 74.14-26.41 112.72-35.85c44.09-10.78 90.02-20.27 136.04-25.05c21.06-2.19 42.14-3.39 63.08-3.29c51.85 0.27 102.28 3.18 153.82 5.68c60.55 2.94 122.9 12.91 181.43 29.2c23.98 6.67 48.9 10.48 72.76 17.77c30.36 9.28 58.59 22.68 86.24 37.95c8.12 4.48 39.78 14.31 42.29 21.96" /><path id="Layer" class="shp1" d="m495.15 106.33c0 0-34.46-10.49-48.53-19.79c-14.79-9.78-31.54-27.67-13.44-41.09c4.81-3.56 8.64-5.78 14.72-6.5c33.83-4.04 66.26 5.33 99.91 7.25c57.17 3.25 109.77 24.37 162.59 43.34c35.48 12.75 69.84 27.75 102.83 46.05c27.12 15.04 53.29 30.22 72.09 55.59c4.58 6.17 15.5 18.03 13.42 26.61c-5.76 23.74-31.07 19.65-49.01 18.05c-8.03-0.71-16.33-0.68-24.19-2.87c-12.77-3.56-23.81-12.53-36.16-17.32c-26.65-10.32-51.01-24.77-77.16-36.08c-29.88-12.92-59.56-27.44-89.09-41.11c-23.41-10.84-52.55-20.84-78.14-24.64c-9.52-1.42-18.68-3.5-28.23-4.92c-3.15-0.47-6.11-0.91-9.21-1.37c-0.24-0.04-2.47 0.14-2.47 0.14c0 0-8.01-0.75-5.72-0.41" /><path id="Layer" class="shp1" d="m-35.3 130.61c-8.52-5.07 29.61-28.67 36.08-33.43c10.51-7.72 29.73-17.29 42.35-20.5c13.71-3.48 28.54-7.99 42.19-11.7c10.86-2.95 46.22-11.53 46.22-11.53c0 0 29.9-12.05 62.81-2.61c14.25 4.09 46.19 17.47 47.92 33.6c3.11 29.01-42.34 47.15-63.7 54.76c-72.19 25.75-148.15 39.61-224.25 47.75" /><path id="Layer" class="shp2" d="m705.69 211.49c-5.25-3.89 1.34-6.01 5.94-6.7c6.83-1.02 14.85-1.06 21.58 0.53c2.22 0.52 8.6 1.51 6.86 5.72c-1.03 2.5-6.1 3.41-8.37 3.38c-5.95-0.1-21.15 0.66-26-2.93z" /><path id="Layer" class="shp2" d="m787.01 162.94c-0.49-1.1-19.09-1.07-15.68-6.62c2.03-3.31 26.67-1.37 30.95-0.1c2.99 0.88 11.55 4.13 4.85 7.08" /><path id="Layer" class="shp2" d="m694.97 106.27c-0.32-3.41 7.18-2.93 9.5-2.84c5.52 0.2 12.96-0.5 18.16 1.79c7.51 3.3 1.41 5.23-4.01 4.84c-1.88-0.14-3.74-0.08-5.61-0.31c-3.15-0.4-6.65-0.19-9.71-0.91" /><path id="Layer" class="shp2" d="m635.74 147.15c-4.65-1.57-9.24-5.25-0.91-6.22c4.56-0.53 10.93 0.68 15.37 2.01c11.95 3.58 16.22 11.37-0.66 7.91c-2.96-0.61-6.19-1.4-9.18-1.72" /><path id="Layer" class="shp2" d="m561.55 59.23c4.26 3.29-10.94 3.56-12.48 3.47c-5.89-0.33-14.88-1.97-19.99-4.56c-7.72-3.92 3.32-5.12 7.28-4.97c3.09 0.11 3.17 0.12 6.3 0.41c3.58 0.33 7.1 0.87 10.62 1.51" /><path id="Layer" class="shp2" d="m415.23 107.48c-7.01-1.8-0.89-4.01 4.15-5.36c6.55-1.76 42.35-1.82 19.26 4.33c-2.25 0.6-4.41 0.73-6.73 0.97c-3.85 0.4-7.65 0.53-11.52 0.6" /><path id="Layer" class="shp2" d="m480.02 58.22c14.05 8.83-22.18 4.39-24.71 3.87c-1.42-0.29-8.8-3.41-3.86-4.88c2.46-0.73 5.28-0.19 7.79-1" /><path id="Layer" class="shp2" d="m526.67 120.15c7.65 1.3-9.77 5.59-10.77 5.72c-6.06 0.82-14.37 1.99-20.39 0.64c-7.03-1.57-9.03-5.92 0.09-7.2c2.38-0.34 4.8-0.46 7.21-0.66c3.49-0.3 7.01-0.59 10.51-0.77" /><path id="Layer" class="shp3" d="m88.96 359.55c-0.58-0.85-1.16-1.7-1.74-2.54" /><path id="Layer" class="shp4" d="m233.11 26.93l5.36-0.7c0 0 7.72 5.21 9.89 7.16c2.17 1.95 4.59 6.13 6.52 9.58c3.04 5.43 5.41 10.71 10.11 14.81c9.77 8.51 20.76 8.79 32.48 13.5c9.45 3.79 20.25 8.33 30.52 9.02c6.01 0.4 12.46-1.23 18.45 0.16c11.29 2.61 24.63-0.96 34.69 6.14c21.76 15.34 31.05 41.66 53.95 56.11c21 13.25 49.03 14.12 72.73 16.3c10.92 1 29.8 3.41 39.68-2.12c4.54-2.54 6.05-8.09 11.91-8.97c27.19-4.06 54.73 4.31 77.94 18.18c9.5 5.68 40.16 24.91 32.41 40.09c-4.67 9.15-16.51 12-26.1 14.08c-29.22 6.34-61.08 0.03-88.93-9.51c-8.67-2.97-18.09-4.61-26.37-8.83c-14.86-7.59-25.39-15.45-42.57-19.42c-21.78-5.03-48.02-1.55-67.52-14.41c-12.58-8.29-24.51-17.45-33.72-29.95c-8.29-11.25-17.27-28.04-31.23-33.32c-18.38-6.95-37.8-11.54-56.9-16.31c-15.91-3.98-33.39-6.29-47.06-15.93c-11.44-8.06-16.36-20.58-31-24.7c-3.43-0.97-25.1-8.03-29.89-13.98c-0.62-0.77 14.54-3 14.54-3c0 0 14.02-1.87 23.37-3.26c2.89-0.43 6.74-0.68 6.74-0.68z" /><path id="Layer" class="shp2" d="m311.72 34.19c-0.77 1.24 5.01 0.01 5.23 0c1.11-0.07 12.7 1.3 8.82 5.45c-5.03 5.39-19.58 3.13-26.21 2.95c-0.84-0.02-6.9-1.43-6.83-2.23c0.27-2.94 4.99-3.71 6.96-4.41" /><path id="Layer" class="shp5" d="m66.55-73.99c0.72 0.67 3.08 2.39 2.17 2.01c-2.5-1.04-4.71-2.7-7.06-4.05" /><path id="Layer" class="shp2" d="m408.77 37.51c4.02 2.37 10.53-2.42 14.78 1.77c3.34 3.29-7.29 5.34-8.16 5.39c-6.88 0.39-14.49 1-21.37 0.21c-7.94-0.91-7.13-4.96 0.52-6.41c1.56-0.29 3.14-0.54 4.67-0.94" /><path id="Layer" class="shp5" d="m302.86 36.69c-3.75-1.95 7.06-20.62 9.44-25.59c0.29-0.6 2.76-6.36 3.04-6.34c0.65 0.05 3.21 10.57 3.58 11.6c1.81 4.96 8.27 15.61 7.84 20.75c-0.07 0.79-4.01-0.49-4.98-0.57c-3.47-0.29-7.31 1.15-10.93 1.13c-2.96-0.02-5.2 0.47-8-0.98z" /><path id="Layer" class="shp5" d="m397.79 40.24c4.76-7.82 6.72-18.48 11.04-26.87c0.28-0.54 2.37-6.07 3.46-5.68c2.07 0.76 2.22 6.46 2.77 8.24c1.33 4.36 9.33 21.67 9.07 24.78" /><path id="Layer" class="shp5" d="m458.22 57.38c4.18-2.62 11.08-20.88 14.27-26.13c0.39-0.63 3.81-8.09 4.43-7.95c1.47 0.34 1.31 8.81 1.37 9.85c0.58 9.03 2.92 19.36 5.03 28.06" /><path id="Layer" class="shp5" d="m419.62 102.47c1.3 0.34 4.07-6.25 4.58-7.21c2.35-4.42 3.19-14.78 7.55-18.45c0.99-0.84 1.27 2.76 1.38 3.07c0.66 2.02 1.71 4.03 2.89 5.87c3.21 5.03 5.42 12.78 10.22 16.83" /><path id="Layer" class="shp5" d="m533.18 54.7c5.12-3.21 10.96-24.04 14-30.39c0.4-0.83 3.29-8.83 4.5-8.73c1.41 0.12 2.16 10.62 2.32 11.66c1.38 8.79 3.54 25.38 8.24 32.88" /><path id="Layer" class="shp5" d="m500.19 121.31c-0.6 1.27 1.44-2.41 2.11-3.64c1.6-2.92 3.09-6.09 4.34-9.17c3.1-7.62 5.55-15.81 9.05-23.2c0.3-0.63 0.2-1.88 0.9-1.9c0.63-0.01 0.5 1.19 0.5 1.4c0.09 4.33 1.89 9.69 3.11 13.86c2.25 7.71 5.84 14.87 8.46 22.2" /><path id="Layer" class="shp5" d="m598.47 71.93c-0.16 1.95 2.07-2.67 2.3-3.11c1.57-3.01 3.06-6.05 4.68-9.03c0.86-1.59 15.42-26.4 15.72-26.48c0.13-0.03 1.38 12.29 1.41 13.15c0.31 7.5 2.18 21.45 6.29 28" /><path id="Layer" class="shp5" d="m636.71 144.03c-0.44 0.88-1.32 2.64-1.32 2.64c0 0 3.01-5.82 4.39-8.79c2.7-5.79 5.84-11.28 8.35-17.14c0.13-0.3 1.43-2.89 2.2-2.64c1.43 0.48 2.16 9.12 2.64 10.55c2.27 6.81 4.8 14.88 7.91 21.09" /><path id="Layer" class="shp2" d="m275.54 154.28c2.17-0.04 4.36-0.91 6.53-0.42c4.48 1.02-2.19 6.34-3.74 6.89c-5.82 2.07-13.9 1.8-20.04 1.73c-2.23-0.03-6.11 0.38-8.15-0.59c-2.24-1.06 3.04-5.53 3.95-5.86c3.72-1.32 8.57-1.5 12.47-1.58" /><path id="Layer" class="shp5" d="m699.55 105.8c5.02-5.02 11.71-25.08 14.5-32.51c0.42-1.13 1.17-4.59 2.2-5.27c0.54-0.36 3.5 12.98 3.95 14.5c2.46 8.21 6.15 16.68 8.79 24.61" /><path id="Layer" class="shp5" d="m709.21 209.94c4.1-2.74 13.99-28.36 16.26-34.27c0.31-0.8 2.94-9.67 3.51-9.67c1.22 0 1.65 12.01 1.76 12.74c0.72 5.02 6.52 26.73 10.11 30.32" /><path id="Layer" class="shp5" d="m779.52 157.65c7.55-7.55 8.87-24.13 13.18-33.83c0.47-1.05 2.38-8.35 3.51-8.35c1.57 0 2.92 9.54 3.08 10.11c3.23 11.29 5.4 24.85 10.55 35.15" /><path id="Layer" class="shp5" d="m256.63 155.77c-0.11 0.75 1.52-4.02 5.15-11.33c3.5-7.06 7.17-14.05 10.12-21.34c0.45-1.13 0.16-3.55 1.36-3.38c1.66 0.23 2.22 8.44 2.66 9.74c0.6 1.79 7.71 25.93 7.96 26.09" /><path id="Layer" class="shp2" d="m147.51 79.11c3.73-1.7 23.11-1.72 14.17 4.37c-4.85 3.3-21.09 6.41-26.83 5.4c-2.62-0.46-11.46-1.04-8.43-5.95c1.1-1.78 3.49-1.33 5.12-2.34" /><path id="Layer" class="shp2" d="m88.41 171.83c5.99-4.26 32.03-1.4 17.88 4.93c-11.02 4.92-22.95 5.35-34.63 5.94c-1.61 0.08-9.92 0.2-10.85-1.54c-2.82-5.24 13.49-8.9 16.57-9.2" /><path id="Layer" class="shp5" d="m130.87 82c4.36-4.9 7.09-14.12 9.5-20.09c1.42-3.52 2.3-7.12 3.72-10.63c1.12-2.76 2.44-5.68 3.41-8.45c0.59-1.69 0.27-6.32 1.61-5.13c6.75 6 5.64 36.01 13.82 41.63" /><path id="Layer" class="shp2" d="m24.44 98.53c-26.18-3.63 14.19-10.68 21.86-10.35c13.33 0.57 8.41 7.86-1.77 9.75c-2.86 0.53-5.77 1.07-8.68 1.62" /><path id="Layer" class="shp5" d="m72.86 174.73c-0.43 0.63 5.32-10.88 6.27-12.95c3.28-7.14 6.53-23.33 13.34-28.47c1.06-0.8 6.03 13.23 6.48 14.29c3.59 8.44 8.24 17.03 11.14 25.65" /><path id="Layer" class="shp5" d="m20.37 93.79c-0.57 0.83 2.53-8.25 3.72-10.63c3.85-7.76 8.07-15.22 12.11-22.85c1.33-2.5 2.57-4.91 3.73-7.51c0.3-0.69 0.12-2.55 0.74-2.13c2.89 1.99 7.47 26.7 9.79 32.15c0.78 1.85 2.7 8.06 4.77 7.36" /><path id="Layer" class="shp0" d="m131.67 12.15c0.39 0.34 0.77 0.68 1.16 1.02" /><path id="Layer" class="shp0" d="m3.41 163.65c-0.21 0.33-0.42 0.67-0.62 1" /><path id="Layer" class="shp6" d="m40.34 55.83l-1.85 10.09c0 0-3.29 13.1-5.11 19.59c-0.38 1.33-1.24 6.21-1.24 6.21c0 0-5.57 0.93-8.06 1.19c-2.49 0.26-2.54 0.14-2.54 0.14l0.87-3.38c1.39-3.52 4.6-10.29 4.6-10.29c0 0 2.82-5.41 6.16-11.73c2.94-5.57 6.36-11.78 7.43-16.39c0.47-2.01-0.26 4.56-0.26 4.56z" /><path id="Layer" class="shp6" d="m149.18 52.54l-1.86 19.14l-0.29 8.49l-8.76 0.8l-4.04 0.39l-2.61 0.3c0 0 2.79-3.85 3.19-4.52c1.84-3.06 2.55-5.8 3.87-9.14c1.5-3.8 2.42-6.62 3.92-10.41c0.45-1.15 1.32-4.08 2.14-6.11c0.82-2.02 1.87-4.82 2.87-8.18c0.95-3.2 0.58-3.72 0.66-4.24c0.03-0.22 0.02-0.62 0.35-1.04c1.68-2.11 0.57 14.5 0.57 14.5z" /><path id="Layer" class="shp6" d="m74.18 173.25c-0.06 0.35 0.29-0.58 0.4-0.75c0.57-0.88 0.98-1.86 1.61-2.71c1.52-2.06 2.36-4.99 3.34-7.37c3-7.31 4.88-15.09 8.65-22.11c0.28-0.53 3.84-6.03 4.18-5.97c0.22 0.04-0.01 1.03-0.04 1.19c-0.4 2.3-1.36 4.47-1.92 6.74c-0.03 0.12-0.08 0.24-0.12 0.36c-0.04 0.14-0.08 0.28-0.13 0.41c-0.04 0.12-0.08 0.24-0.12 0.36c-0.04 0.12-0.09 0.24-0.12 0.36c-1.58 6.52-3.1 13.06-4.68 19.59c-0.55 2.27-0.95 4.58-1.35 6.89c-0.14 0.81-0.23 1.64-0.37 2.44c-0.03 0.2-0.21 0.97-0.08 0.8" /><path id="Layer" class="shp6" d="m257.35 155.23c0.27 0.89 0.73-1.71 1.2-2.51c1.01-1.7 1.92-3.7 2.69-5.52c2.49-5.86 6.3-11.26 8.39-17.31c0.76-2.21 1.74-4.38 2.59-6.55c0.28-0.72 0.45-2.72 0.92-3.24c0.03-0.04 0.1-0.07 0.14-0.05c0.29 0.21-0.88 7.45-1.01 8.31c-1.02 6.33-2.56 12.69-4.06 18.92c-0.5 2.09-0.4 6.37-1.65 8.13" /><path id="Layer" class="shp6" d="m310.58 37.03c-0.16 0.58-8.13 1.33-7.71-2.76c0.7-6.84 5.64-12.35 8.04-18.6c0.87-2.27 2.04-4.47 3-6.69c0.09-0.22 1.35-3.26 1.4-3.22c0.14 0.13-1.04 6.43-1.16 7.11c-0.91 4.87-1.82 9.72-2.69 14.6c-0.5 2.79-0.01 6.09-0.74 8.75" /><path id="Layer" class="shp6" d="m407.92 39.64c-0.16 0.23-8.7 0.4-8.98 0.13c-0.04-0.04 1.46-2.22 1.57-2.47c0.73-1.63 1.44-3.27 2.15-4.91c3.06-7.04 4.25-18.52 9.57-24.09" /><path id="Layer" class="shp6" d="m427.21 102.38c-1.93 0.3-3.98-0.08-5.88 0.01c-0.3 0.01-0.93 0.31-0.9 0.07c0.12-0.93 3.55-4.38 4.02-6.1c1.41-5.09 3.15-10.12 4.56-15.19c0.51-1.86 2.2-3.17 2.91-4.78" /><path id="Layer" class="shp6" d="m471.37 59.06c-0.01 0.03-2.32-0.16-2.67-0.19c-2.48-0.21-4.94-0.97-7.42-1.18c-0.3-0.02-2.3-0.14-2.33-0.51c-0.02-0.28 1.6-1.48 1.85-1.74c1.32-1.35 2.33-3.4 3.16-5.09c3.17-6.42 5.81-13.09 9.19-19.4c0.47-0.87 3.17-6.59 3.75-6.84" /><path id="Layer" class="shp6" d="m543.09 56.43c-1.33-0.34-9.14-1.55-9.31-1.74c-0.2-0.23 1.29-1.25 1.49-1.41c0.67-0.5 1.39-1.98 1.7-2.77c1.26-3.18 2.82-6.25 4.16-9.39c2.41-5.62 3.9-11.66 6.67-17.09c1.3-2.54 1.72-5.83 3.62-8.02" /><path id="Layer" class="shp6" d="m612.78 72.7c-3.18 0.07-6.3-1.11-9.45-1.04c-0.52 0.01-3.2 0.58-3.55 0.24c-0.14-0.13 1.66-2.54 1.79-2.81c0.94-1.99 1.74-4.05 2.69-6.06c4.76-10.04 11.95-18.83 16.71-28.86" /><path id="Layer" class="shp6" d="m711.3 105.84c-2.54 0.82-5.35-0.81-7.95-0.51c-0.38 0.05-2.64 0.73-2.89 0.47c-0.24-0.24 1.78-1.91 1.93-2.12c1.04-1.44 1.65-3.23 2.45-4.8c2.44-4.78 4.42-10 6.11-15.1c1.12-3.37 2.7-6.72 3.5-10.18c0.29-1.26 0.53-4.36 1.64-5.17" /><path id="Layer" class="shp6" d="m791.17 158.31c-2.63-0.51-5.55-0.72-8.22-0.81c-0.25-0.01-2.44 0.1-2.5-0.03c-0.04-0.08 2.05-2.35 2.25-2.69c1.19-1.99 2.32-4.2 3.2-6.35c4.15-10.06 6.17-20.97 9.72-31.26" /><path id="Layer" class="shp6" d="m721.43 209.1c-1.55-0.67-7.03-0.32-8.64-0.03c-0.25 0.05-2.43 0.56-2.47 0.52c-0.09-0.1 2.05-2.2 2.28-2.52c1.42-1.99 2.09-4.41 2.89-6.68c2.9-8.29 7.43-15.99 10.24-24.32c1.1-3.28 1.87-6.79 3.24-9.96" /><path id="Layer" class="shp6" d="m647.5 146.01c-0.22 0.16-0.49 0.04-0.72-0.04c-2.04-0.68-4.4-1.42-6.57-1.8c-0.67-0.12-2.14 0-2.69-0.28c-0.06-0.03 1.21-2.21 1.35-2.43c0.83-1.25 1.36-3.08 1.95-4.46c1.82-4.29 4.07-8.53 6.16-12.7c0.7-1.41 1.38-2.85 2.08-4.25c0.33-0.67 1.35-1.78 1.35-1.78c0 0-0.91 1.85-1.22 2.82c-0.56 1.75-0.99 3.59-1.39 5.39c-1.33 5.98-2.32 11.23-1.55 17.32" /><path id="Layer" class="shp6" d="m510.11 120.25c-0.25 0.64-4.76-0.02-5.47 0c-0.81 0.02-1.75 0.2-2.55 0.33c-0.16 0.03-1.07 0.3-0.98 0.06c0.62-1.56 2.16-2.94 2.93-4.51c1.56-3.2 2.23-6.8 3.71-10.05c1.92-4.21 4.06-8.72 5.21-13.21c0.25-0.98 3.17-9.15 3.63-9.19" /><path id="Layer" class="shp0" d="m312.38-114.78c-1.03-1.72-2.06-3.44-3.09-5.16" /><path id="Layer" class="shp2" d="m595.19 73.18c-0.41-0.59-1.22-2.84-0.92-3.53c0.81-1.89 5.78-1.79 7.52-1.8c5.82-0.01 19.28 0.21 23.62 5.57c3.46 4.28-6.19 3.99-7.65 3.92c-5.44-0.28-19.35 0.49-22.56-4.16z" /><path id="Layer" class="shp7" d="m648.75 217.58c-0.04-0.04 3.25-2.74 3.42-2.99c2.04-2.92 7.37-8.72 5.85-13.14c-3.28-9.54-11.6-15.04-19.16-21.3c-14.5-12.02-34.82-20.13-51.98-27.21c-1.09-0.45-6.79-2.2-12.3-2.96c-6.61-0.92-13.11-0.85-13.38-1.16c-0.62-0.72 9.24-0.66 10.19-0.68c2.17-0.05 9.09 0.58 11.22 0.89c6.54 0.95 8.02 0.93 14.49 2.47c23.47 5.59 44.52 15.95 61.99 32.49c5.06 4.79 11.12 11.44 10.68 16.94c-0.22 2.73-0.91 6.61-4.82 9.15c-4.07 2.65-6.13 5.04-11.12 6.05c-0.22 0.05-4.82 1.75-5.09 1.44z" /></g></svg>