<svg version="1.2" baseProfile="tiny-ps" xmlns="http://www.w3.org/2000/svg" viewBox="0 0 842 248" width="842" height="248">
	<title>Why, footer-svg</title>
	<defs>
		<radialGradient id="grd1" gradientUnits="userSpaceOnUse"  cx="585.1" cy="95.1" r="314.7">
			<stop offset="0" stop-color="#b0e1b8"  />
			<stop offset="1" stop-color="#b0e1b8"  />
		</radialGradient>
		<linearGradient id="grd2" gradientUnits="userSpaceOnUse"  x1="641.7" y1="192.8" x2="252.8" y2="20.2">
			<stop offset="0" stop-color="#81b7ed"  />
			<stop offset="1" stop-color="#d2e8ff"  />
		</linearGradient>
		<linearGradient id="grd3" gradientUnits="userSpaceOnUse"  x1="675.6" y1="195.2" x2="535.8" y2="101.7">
			<stop offset="0" stop-color="#6b96e0"  />
			<stop offset="1" stop-color="#b6d3ff"  />
		</linearGradient>
	</defs>
	<style>
		tspan { white-space:pre }
		.s0 { fill: #b0e1b8 } 
		.s1 { fill: url(#grd1) } 
		.s2 { fill: #b8eac0 } 
		.s3 { fill: #abe3e4 } 
		.s4 { fill: url(#grd2) } 
		.s5 { fill: url(#grd3) } 
		.s6 { fill: #568459 } 
		.s7 { fill: #7cb474;stroke: #7db474;stroke-linejoin:round;stroke-width: 2.7 } 
		.s8 { fill: #4e7847;stroke: #4e7847;stroke-linejoin:round;stroke-width: 1.3 } 
	</style>
	<g id="Layer 1">
		<path id="Layer" class="s0" d="m467.69-657.41c-0.22-0.36-0.43-0.72-0.65-1.08" />
		<path id="Layer" class="s1" d="m936.74 305.83c-15.85-1.84-33.95 11.18-48.47 16.6c-29.34 10.96-62.34 16.21-93.07 21.81c-33.8 6.16-68.21 8.22-102.27 12.52c-91.14 11.52-181.96 23.81-272.04 42.1c-76.48 15.52-154.34 25.95-231.77 35.78c-46.38 5.88-116.51 25.86-161.48 4.06c-15.76-7.64-34.2-20.94-42.21-37.18c-4.21-8.53-6.25-18.5-10.73-27.24c-12.13-23.62-26.68-45.54-35.52-70.86c-11.79-33.78-12.78-71.29-14.67-106.63c-1.38-25.64-1.34-74.86 16.26-96.14c15.17-18.35 39.04-26.01 60.52-33.94c37.31-13.77 74.14-26.41 112.72-35.85c44.09-10.78 90.02-20.27 136.04-25.05c21.06-2.19 42.14-3.39 63.08-3.29c51.85 0.27 102.28 3.18 153.82 5.68c60.55 2.94 122.9 12.91 181.43 29.2c23.98 6.67 48.9 10.48 72.76 17.77c30.36 9.28 58.59 22.68 86.24 37.95c8.12 4.48 39.78 14.31 42.29 21.96" />
		<path id="Layer" class="s2" d="m504.07 86.32c0 0-34.46-10.49-48.53-19.79c-14.79-9.78-31.54-27.67-13.44-41.09c4.81-3.56 8.65-5.77 14.72-6.5c33.83-4.03 66.26 5.33 99.91 7.25c57.17 3.25 109.77 24.37 162.59 43.34c35.48 12.75 69.84 27.75 102.83 46.05c27.12 15.04 53.29 30.23 72.09 55.6c4.58 6.17 15.5 18.03 13.42 26.61c-5.77 23.74-31.07 19.65-49.01 18.05c-8.03-0.71-16.33-0.68-24.19-2.87c-12.77-3.56-23.81-12.54-36.16-17.32c-26.64-10.32-51.01-24.77-77.16-36.08c-29.88-12.92-59.56-27.44-89.09-41.11c-23.41-10.84-52.55-20.84-78.14-24.64c-9.52-1.42-18.68-3.5-28.22-4.92c-3.15-0.47-6.11-0.91-9.21-1.37c-0.24-0.03-2.47 0.14-2.47 0.14c0 0-8.01-0.76-5.72-0.41" />
		<path id="Layer" class="s2" d="m-26.38 110.6c-8.52-5.07 29.61-28.67 36.08-33.43c10.51-7.72 29.73-17.29 42.35-20.5c13.71-3.48 28.55-7.99 42.19-11.7c10.86-2.95 46.22-11.53 46.22-11.53c0 0 29.9-12.06 62.81-2.61c14.25 4.09 46.19 17.47 47.92 33.6c3.11 29.01-42.34 47.15-63.7 54.76c-72.19 25.75-148.15 39.61-224.25 47.75" />
		<path id="Layer" class="s3" d="m97.88 339.54c-0.58-0.85-1.16-1.7-1.74-2.54" />
		<path id="Layer" class="s4" d="m242.03 6.92l5.36-0.7c0 0 7.72 5.21 9.89 7.16c2.17 1.95 4.59 6.13 6.52 9.58c3.04 5.43 5.41 10.71 10.11 14.81c9.77 8.51 20.76 8.79 32.48 13.5c9.45 3.79 20.25 8.33 30.52 9.02c6.01 0.4 12.46-1.23 18.45 0.16c11.29 2.61 24.63-0.96 34.69 6.13c21.76 15.34 31.05 41.66 53.95 56.11c21 13.25 49.03 14.12 72.73 16.3c10.92 1 29.8 3.41 39.68-2.12c4.54-2.54 6.05-8.09 11.91-8.97c27.19-4.06 54.73 4.31 77.94 18.18c9.5 5.68 40.16 24.91 32.41 40.09c-4.67 9.15-16.51 12-26.1 14.08c-29.22 6.34-61.08 0.03-88.93-9.51c-8.67-2.97-18.09-4.61-26.37-8.83c-14.86-7.59-25.39-15.45-42.57-19.42c-21.78-5.03-48.02-1.55-67.52-14.41c-12.58-8.29-24.51-17.45-33.72-29.95c-8.29-11.25-17.27-28.04-31.23-33.32c-18.38-6.95-37.8-11.54-56.9-16.32c-15.91-3.98-33.39-6.29-47.06-15.93c-11.44-8.06-16.36-20.58-31-24.7c-3.43-0.97-25.1-8.03-29.89-13.98c-0.62-0.77 14.54-3 14.54-3c0 0 14.02-1.87 23.37-3.26c2.89-0.43 6.74-0.68 6.74-0.68z" />
		<path id="Layer" class="s0" d="m140.6-7.86c0.39 0.34 0.77 0.68 1.16 1.03" />
		<path id="Layer" class="s0" d="m12.33 191.64c-0.21 0.33-0.42 0.67-0.62 1" />
		<path id="Layer" class="s0" d="m319.38-213.78c-1.03-1.72-2.06-3.44-3.09-5.16" />
		<path id="Layer" class="s5" d="m657.68 197.57c-0.04-0.04 3.25-2.74 3.42-2.99c2.04-2.92 7.37-8.72 5.85-13.14c-3.28-9.54-11.6-15.04-19.16-21.3c-14.5-12.02-34.82-20.13-51.98-27.21c-1.09-0.45-6.79-2.2-12.3-2.96c-6.61-0.92-13.11-0.85-13.38-1.16c-0.62-0.72 9.24-0.66 10.19-0.68c2.17-0.05 9.09 0.58 11.22 0.89c6.54 0.95 8.02 0.93 14.49 2.47c23.47 5.59 44.51 15.95 61.99 32.49c5.06 4.79 11.12 11.44 10.68 16.94c-0.22 2.73-0.91 6.61-4.82 9.15c-4.07 2.65-6.13 5.04-11.12 6.05c-0.22 0.05-4.82 1.75-5.09 1.45z" />
		<g id="Layer">
			<path id="Layer" class="s6" d="m323.5 42.94c0-3.44 29.44-4.84 42.3-4.84c12.86 0 23.29 2.79 23.29 6.23c0 3.44-7.29 7.94-20.15 7.94c-12.86 0-45.43-5.89-45.43-9.33z" />
			<path id="Layer" class="s7" d="m373.31 1.69l14.39 41.05h-28.79l14.4-41.05z" />
			<path id="Layer" class="s8" d="m372.74 1.24l-2.63 42.14l-12.15 0.04l14.78-42.18z" />
		</g>
		<g id="Layer">
			<path id="Layer" class="s6" d="m431.72 88.93c0-3.44 29.44-4.84 42.3-4.84c12.86 0 23.29 2.79 23.29 6.23c0 3.44-7.29 7.94-20.15 7.94c-12.86 0-45.43-5.89-45.43-9.33z" />
			<path id="Layer" class="s7" d="m481.53 47.68l14.4 41.05h-28.79l14.4-41.05z" />
			<path id="Layer" class="s8" d="m480.95 47.23l-2.63 42.14l-12.15 0.04l14.78-42.18z" />
		</g>
		<g id="Layer">
			<path id="Layer" class="s6" d="m522.06 60.75c0-4.52 33.62-6.36 48.3-6.36c14.69 0 26.59 3.67 26.59 8.19c0 4.52-8.33 10.43-23.01 10.43c-14.68 0-51.88-7.74-51.88-12.26z" />
			<path id="Layer" class="s7" d="m578.93 6.55l16.44 53.93h-32.87l16.44-53.93z" />
			<path id="Layer" class="s8" d="m578.28 5.96l-3.01 55.37l-13.87 0.05l16.88-55.42z" />
		</g>
		<g id="Layer">
			<path id="Layer" class="s6" d="m640.48 133.12c0-3.44 29.44-4.84 42.3-4.84c12.86 0 23.29 2.79 23.29 6.23c0 3.44-7.29 7.94-20.15 7.94c-12.86 0-45.43-5.89-45.43-9.33z" />
			<path id="Layer" class="s7" d="m690.29 91.87l14.39 41.05h-28.79l14.4-41.05z" />
			<path id="Layer" class="s8" d="m689.71 91.42l-2.63 42.14l-12.15 0.04l14.78-42.18z" />
		</g>
		<g id="Layer">
			<path id="Layer" class="s6" d="m710.56 210.04c0-4.16 23.95-5.86 34.41-5.86c10.46 0 18.94 3.37 18.94 7.53c0 4.16-5.93 9.6-16.39 9.6c-10.46 0-36.95-7.12-36.95-11.28z" />
			<path id="Layer" class="s7" d="m751.08 160.17l11.71 49.62h-23.42l11.71-49.62z" />
			<path id="Layer" class="s8" d="m750.61 159.63l-2.14 50.95l-9.88 0.04l12.02-50.99z" />
		</g>
		<g id="Layer">
			<path id="Layer" class="s6" d="m762.87 125.68c0-3.44 29.44-4.84 42.3-4.84c12.86 0 23.29 2.79 23.29 6.23c0 3.44-7.29 7.94-20.15 7.94c-12.86 0-45.43-5.89-45.43-9.33z" />
			<path id="Layer" class="s7" d="m812.68 84.43l14.4 41.05h-28.79l14.39-41.05z" />
			<path id="Layer" class="s8" d="m812.1 83.98l-2.63 42.14l-12.15 0.04l14.78-42.18z" />
		</g>
		<g id="Layer">
			<path id="Layer" class="s6" d="m376.83 184.53c0-3.44 29.44-4.84 42.3-4.84c12.86 0 23.29 2.79 23.29 6.23c0 3.44-7.29 7.94-20.15 7.94c-12.86 0-45.43-5.89-45.43-9.33z" />
			<path id="Layer" class="s7" d="m426.64 143.28l14.4 41.05h-28.79l14.4-41.05z" />
			<path id="Layer" class="s8" d="m426.07 142.83l-2.63 42.14l-12.15 0.04l14.78-42.18z" />
		</g>
		<g id="Layer">
			<path id="Layer" class="s6" d="m271.96 120.5c0-4.96 26.59-6.97 38.21-6.97c11.62 0 21.03 4.02 21.03 8.97c0 4.95-6.59 11.43-18.2 11.43c-11.62 0-41.04-8.48-41.04-13.43z" />
			<path id="Layer" class="s7" d="m316.95 61.1l13 59.1h-26l13-59.1z" />
			<path id="Layer" class="s8" d="m316.43 60.45l-2.38 60.68l-10.97 0.05l13.35-60.73z" />
		</g>
		<g id="Layer">
			<path id="Layer" class="s6" d="m132.61 180.67c0-4.87 34.85-6.85 50.08-6.85c15.22 0 27.57 3.95 27.57 8.81c0 4.87-8.63 11.23-23.86 11.23c-15.22 0-53.79-8.33-53.79-13.19z" />
			<path id="Layer" class="s7" d="m191.58 122.33l17.04 58.04h-34.09l17.04-58.04z" />
			<path id="Layer" class="s8" d="m190.9 121.7l-3.12 59.59l-14.38 0.05l17.5-59.64z" />
		</g>
		<g id="Layer">
			<path id="Layer" class="s6" d="m45.33 88.43c0-3.44 29.44-4.84 42.3-4.84c12.86 0 23.29 2.79 23.29 6.23c0 3.44-7.29 7.94-20.15 7.94c-12.86 0-45.43-5.89-45.43-9.33z" />
			<path id="Layer" class="s7" d="m95.14 47.18l14.4 41.05h-28.79l14.4-41.05z" />
			<path id="Layer" class="s8" d="m94.56 46.73l-2.63 42.14l-12.15 0.04l14.78-42.18z" />
		</g>
		<g id="Layer">
			<path id="Layer" class="s6" d="m23.8 168.8c0-3.44 21.1-4.84 30.31-4.84c9.22 0 16.69 2.79 16.69 6.23c0 3.44-5.23 7.94-14.44 7.94c-9.22 0-32.56-5.89-32.56-9.33z" />
			<path id="Layer" class="s7" d="m59.5 127.55l10.32 41.05h-20.63l10.32-41.05z" />
			<path id="Layer" class="s8" d="m59.08 127.1l-1.89 42.14l-8.7 0.04l10.59-42.17z" />
		</g>
		<g id="Layer">
			<path id="Layer" class="s6" d="m193.8 65.19c0-4.85 29.44-6.82 42.3-6.82c12.86 0 23.29 3.93 23.29 8.77c0 4.84-7.29 11.18-20.15 11.18c-12.86 0-45.44-8.29-45.44-13.13z" />
			<path id="Layer" class="s7" d="m243.61 7.11l14.4 57.78h-28.79l14.39-57.78z" />
			<path id="Layer" class="s8" d="m243.04 6.49l-2.63 59.32l-12.15 0.05l14.78-59.37z" />
		</g>
	</g>
</svg>