<?xml version="1.0" encoding="UTF-8" standalone="no"?> <!-- Created with Vectornator for iOS (http://vectornator.io/) --><!DOCTYPE svg PUBLIC "-//W3C//DTD SVG 1.1//EN" "http://www.w3.org/Graphics/SVG/1.1/DTD/svg11.dtd">
<svg height="100%" style="fill-rule:nonzero;clip-rule:evenodd;stroke-linecap:round;stroke-linejoin:round;" xmlns:xlink="http://www.w3.org/1999/xlink" xmlns="http://www.w3.org/2000/svg" xml:space="preserve" width="100%" xmlns:vectornator="http://vectornator.io" version="1.1" viewBox="0 0 841.995 595.35">
<metadata>
<vectornator:setting key="RulersVisible" value="1"/>
<vectornator:setting key="SnapToGuides" value="1"/>
<vectornator:setting key="PencilOnly" value="0"/>
<vectornator:setting key="doHistoryDisabled" value="0"/>
<vectornator:setting key="SnapToPoints" value="0"/>
<vectornator:setting key="IsolateActiveLayer" value="0"/>
<vectornator:setting key="DisplayWhiteBackground" value="0"/>
<vectornator:setting key="CMYKEnabledKey" value="0"/>
<vectornator:setting key="SnapToEdges" value="0"/>
<vectornator:setting key="GuidesVisible" value="1"/>
<vectornator:setting key="DimensionsVisible" value="1"/>
<vectornator:setting key="SnapToGrid" value="0"/>
<vectornator:setting key="DynamicGuides" value="0"/>
<vectornator:setting key="Units" value="Millimeters"/>
<vectornator:setting key="TimeLapseWatermarkDisabled" value="0"/>
<vectornator:setting key="OutlineMode" value="0"/>
</metadata>
<defs/>
<g id="Layer 1" vectornator:layerName="Layer 1">
<path d="M467.694-309.413C467.478-309.773+467.263-310.134+467.048-310.494" opacity="1" fill="#b0e1b8"/>
<path d="M847.72+384.119C845.211+376.462+813.546+366.638+805.428+362.156C777.772+346.886+749.548+333.482+719.185+324.203C695.327+316.912+670.405+313.105+646.428+306.433C587.899+290.148+525.555+280.178+465.003+277.234C413.459+274.728+363.03+271.818+311.182+271.552C290.249+271.445+269.167+272.649+248.104+274.838C202.083+279.62+156.153+289.105+112.065+299.887C73.4841+309.323+36.6562+321.96-0.65213+335.733C-22.1255+343.66-46.0016+351.326-61.1701+369.672C-78.7636+390.952-78.8051+440.17-77.4286+465.813C-75.5316+501.153-74.5449+538.662-62.7535+572.441C-53.9148+597.762-39.3649+619.678-27.2368+643.296C-22.7523+652.029-20.7141+662.003-16.5037+670.533C-8.48651+686.775+9.949+700.08+25.7095+707.717C70.6798+729.509+140.813+709.536+187.191+703.653C264.63+693.829+342.488+683.398+418.965+667.874C509.043+649.589+599.863+637.294+691+625.778C725.061+621.474+759.467+619.413+793.268+613.255C823.999+607.656+857.007+602.399+886.342+591.443C900.86+586.021+918.96+572.995+934.811+574.839" opacity="1" fill="#b0e1b8"/>
<path d="M502.148+355.329C502.148+355.329+467.686+344.842+453.615+335.539C438.825+325.761+422.073+307.869+440.175+294.451C444.982+290.888+448.82+288.676+454.895+287.951C488.726+283.915+521.154+293.281+554.804+295.196C611.971+298.45+664.571+319.562+717.396+338.541C752.873+351.287+787.233+366.293+820.226+384.588C847.35+399.628+873.514+414.813+892.319+440.183C896.895+446.357+907.822+458.212+905.739+466.79C899.974+490.533+874.671+486.441+856.726+484.844C848.694+484.129+840.396+484.164+832.54+481.973C819.773+478.415+808.73+469.439+796.384+464.656C769.738+454.334+745.375+439.886+719.219+428.577C689.342+415.658+659.663+401.139+630.134+387.468C606.725+376.631+577.585+366.629+551.994+362.826C542.469+361.411+533.311+359.326+523.768+357.908C520.622+357.441+517.661+357.001+514.56+356.54C514.321+356.504+512.093+356.681+512.093+356.681C512.093+356.681+504.079+355.927+506.37+356.267" opacity="1" fill="#b8eac0"/>
<path d="M-28.3023+379.61C-36.8234+374.538+1.30668+350.937+7.7811+346.18C18.2888+338.459+37.5108+328.886+50.1312+325.684C63.8395+322.205+78.6762+317.692+92.3254+313.981C103.184+311.029+138.543+302.451+138.543+302.451C138.543+302.451+168.443+290.397+201.349+299.843C215.598+303.934+247.543+317.309+249.27+333.443C252.375+362.457+206.926+380.59+185.573+388.206C113.38+413.954+37.4238+427.816-38.673+435.961" opacity="1" fill="#b8eac0"/>
<path d="M712.693+460.492C707.438+456.602+714.033+454.48+718.63+453.793C725.463+452.773+733.48+452.729+740.207+454.321C742.426+454.845+748.804+455.832+747.062+460.046C746.027+462.549+740.961+463.46+738.691+463.421C732.742+463.321+717.538+464.078+712.693+460.492Z" opacity="1" fill="#568459"/>
<path d="M794.015+411.939C793.529+410.835+774.926+410.87+778.333+405.316C780.364+402.006+805.003+403.947+809.286+405.212C812.276+406.095+820.831+409.339+814.132+412.29" opacity="1" fill="#568459"/>
<path d="M701.966+355.273C701.647+351.864+709.149+352.348+711.463+352.433C716.981+352.634+724.42+351.937+729.622+354.222C737.136+357.522+731.03+359.45+725.612+359.06C723.732+358.924+721.871+358.983+720.004+358.747C716.849+358.349+713.35+358.552+710.296+357.842" opacity="1" fill="#568459"/>
<path d="M642.736+396.147C638.084+394.581+633.5+390.898+641.821+389.928C646.378+389.396+652.755+390.604+657.19+391.934C669.144+395.518+673.413+403.306+656.534+399.841C653.57+399.232+650.347+398.44+647.349+398.121" opacity="1" fill="#568459"/>
<path d="M568.546+308.232C572.809+311.525+557.606+311.792+556.068+311.706C550.179+311.379+541.186+309.74+536.076+307.143C528.357+303.221+539.397+302.022+543.361+302.168C546.449+302.282+546.531+302.287+549.665+302.574C553.244+302.901+556.765+303.442+560.286+304.082" opacity="1" fill="#568459"/>
<path d="M422.231+356.482C415.221+354.683+421.341+352.474+426.378+351.121C432.924+349.363+468.729+349.3+445.634+355.453C443.386+356.052+441.221+356.18+438.906+356.418C435.053+356.816+431.253+356.951+427.386+357.015" opacity="1" fill="#568459"/>
<path d="M487.018+307.216C501.068+316.047+464.84+311.604+462.311+311.082C460.889+310.789+453.514+307.671+458.446+306.197C460.903+305.463+463.727+306.002+466.233+305.2" opacity="1" fill="#568459"/>
<path d="M533.672+369.152C541.323+370.455+523.898+374.739+522.901+374.874C516.844+375.697+508.528+376.862+502.513+375.518C495.48+373.945+493.479+369.597+502.601+368.314C504.984+367.979+507.404+367.858+509.809+367.652C513.299+367.355+516.821+367.059+520.321+366.879" opacity="1" fill="#568459"/>
<path d="M95.9566+608.551C95.3759+607.704+94.7952+606.856+94.2145+606.009" opacity="1" fill="#abe3e4"/>
<path d="M240.107+275.927L245.471+275.226C245.471+275.226+253.192+280.436+255.36+282.386C257.528+284.336+259.948+288.512+261.884+291.967C264.927+297.399+267.293+302.679+271.997+306.781C281.763+315.296+292.754+315.575+304.474+320.276C313.921+324.065+324.72+328.605+334.99+329.297C340.998+329.701+347.451+328.069+353.437+329.453C364.727+332.062+378.065+328.494+388.128+335.588C409.887+350.925+419.175+377.25+442.075+391.695C463.078+404.944+491.101+405.813+514.806+407.99C525.724+408.993+544.602+411.404+554.487+405.866C559.026+403.323+560.541+397.771+566.4+396.897C593.586+392.839+621.134+401.211+644.343+415.081C653.845+420.76+684.5+439.992+676.749+455.171C672.075+464.324+660.24+467.167+650.649+469.248C621.434+475.586+589.568+469.279+561.719+459.733C553.051+456.763+543.625+455.126+535.351+450.901C520.493+443.314+509.964+435.451+492.778+431.479C470.997+426.445+444.757+429.925+425.258+417.072C412.681+408.782+400.748+399.618+391.536+387.117C383.244+375.864+374.269+359.08+360.303+353.8C341.92+346.851+322.499+342.265+303.406+337.485C287.501+333.503+270.019+331.199+256.345+321.56C244.904+313.496+239.982+300.98+225.346+296.855C221.915+295.888+200.246+288.823+195.452+282.873C194.829+282.1+209.991+279.871+209.991+279.871C209.991+279.871+224.014+278.004+233.364+276.609C236.251+276.178+240.107+275.927+240.107+275.927Z" opacity="1" fill="#81b7ed"/>
<path d="M318.717+283.185C317.948+284.429+323.731+283.196+323.945+283.182C325.053+283.108+336.642+284.485+332.767+288.636C327.736+294.023+313.187+291.761+306.553+291.591C305.709+291.569+299.649+290.165+299.722+289.358C299.988+286.414+304.713+285.65+306.678+284.949" opacity="1" fill="#568459"/>
<path d="M73.5542+175.014C74.2766+175.685+76.632+177.405+75.7213+177.027C73.2164+175.987+71.0147+174.33+68.6613+172.981" opacity="1" fill="#7cb474"/>
<path d="M415.775+286.509C419.794+288.875+426.305+284.093+430.559+288.275C433.903+291.563+423.273+293.613+422.403+293.662C415.521+294.047+407.914+294.659+401.036+293.873C393.1+292.966+393.906+288.908+401.559+287.462C403.115+287.168+404.695+286.923+406.228+286.525" opacity="1" fill="#568459"/>
<path d="M309.859+285.693C306.104+283.742+316.915+265.074+319.3+260.105C319.589+259.501+322.062+253.742+322.342+253.765C322.994+253.819+325.549+264.336+325.925+265.369C327.73+270.329+334.197+280.981+333.767+286.123C333.701+286.91+329.754+285.63+328.791+285.549C325.32+285.259+321.485+286.701+317.863+286.677C314.898+286.657+312.659+287.148+309.859+285.693Z" opacity="1" fill="#7cb474"/>
<path d="M404.79+289.236C409.55+281.42+411.509+270.754+415.829+262.368C416.105+261.832+418.199+256.294+419.287+256.691C421.358+257.446+421.508+263.151+422.053+264.93C423.387+269.288+431.388+286.599+431.128+289.711" opacity="1" fill="#7cb474"/>
<path d="M465.219+306.379C469.398+303.758+476.298+285.5+479.493+280.253C479.879+279.619+483.302+272.159+483.927+272.302C485.401+272.64+485.235+281.111+485.301+282.152C485.876+291.178+488.223+301.515+490.334+310.207" opacity="1" fill="#7cb474"/>
<path d="M426.623+351.47C427.923+351.813+430.695+345.224+431.206+344.263C433.555+339.843+434.394+329.487+438.757+325.816C439.751+324.98+440.031+328.575+440.132+328.885C440.789+330.904+441.845+332.913+443.022+334.759C446.232+339.793+448.439+347.537+453.242+351.588" opacity="1" fill="#7cb474"/>
<path d="M540.18+303.698C545.295+300.491+551.136+279.661+554.183+273.31C554.582+272.479+557.476+264.479+558.682+264.58C560.091+264.697+560.843+275.203+561.004+276.236C562.379+285.021+564.546+301.617+569.246+309.112" opacity="1" fill="#7cb474"/>
<path d="M507.193+370.315C506.592+371.585+508.632+367.902+509.306+366.67C510.902+363.755+512.394+360.579+513.648+357.5C516.75+349.88+519.195+341.695+522.696+334.3C522.996+333.668+522.895+332.418+523.595+332.403C524.22+332.39+524.09+333.592+524.094+333.801C524.187+338.128+525.987+343.486+527.209+347.663C529.463+355.373+533.047+362.53+535.667+369.861" opacity="1" fill="#7cb474"/>
<path d="M605.469+320.934C605.305+322.885+607.544+318.262+607.769+317.829C609.337+314.822+610.832+311.782+612.45+308.8C613.311+307.213+627.869+282.396+628.167+282.323C628.296+282.292+629.544+294.615+629.579+295.473C629.886+302.972+631.762+316.921+635.873+323.477" opacity="1" fill="#7cb474"/>
<path d="M643.712+393.026C643.272+393.905+642.393+395.663+642.393+395.663C642.393+395.663+645.402+389.842+646.787+386.875C649.487+381.089+652.627+375.593+655.136+369.738C655.265+369.436+656.565+366.846+657.333+367.102C658.761+367.578+659.495+376.223+659.969+377.647C662.237+384.452+664.772+392.526+667.879+398.738" opacity="1" fill="#7cb474"/>
<path d="M282.539+403.276C284.708+403.233+286.894+402.364+289.064+402.861C293.54+403.884+286.872+409.201+285.321+409.753C279.505+411.823+271.419+411.55+265.284+411.482C263.054+411.457+259.177+411.861+257.13+410.889C254.891+409.825+260.165+405.361+261.083+405.034C264.808+403.709+269.654+403.536+273.549+403.457" opacity="1" fill="#568459"/>
<path d="M706.546+354.798C711.571+349.773+718.258+329.718+721.046+322.283C721.469+321.155+722.219+317.693+723.243+317.01C723.779+316.652+726.742+329.991+727.197+331.51C729.661+339.723+733.343+348.189+735.985+356.117" opacity="1" fill="#7cb474"/>
<path d="M716.212+458.936C720.316+456.2+730.198+430.571+732.47+424.663C732.776+423.868+735.413+414.996+735.985+414.996C737.209+414.996+737.638+427.007+737.743+427.739C738.46+432.754+744.264+454.472+747.849+458.057" opacity="1" fill="#7cb474"/>
<path d="M786.516+406.648C794.063+399.101+795.385+382.518+799.698+372.814C800.166+371.761+802.073+364.465+803.213+364.465C804.781+364.465+806.128+374.007+806.289+374.571C809.514+385.859+811.686+399.425+816.835+409.723" opacity="1" fill="#7cb474"/>
<path d="M263.634+404.773C263.529+405.524+265.159+400.754+268.784+393.447C272.285+386.388+275.957+379.399+278.901+372.107C279.356+370.981+279.062+368.561+280.265+368.729C281.929+368.961+282.483+377.169+282.92+378.468C283.525+380.263+290.633+404.394+290.877+404.561" opacity="1" fill="#7cb474"/>
<path d="M154.512+328.11C158.24+326.408+177.625+326.392+168.685+332.483C163.836+335.787+147.598+338.895+141.852+337.885C139.234+337.425+130.388+336.841+133.427+331.934C134.529+330.155+136.917+330.601+138.544+329.598" opacity="1" fill="#568459"/>
<path d="M95.4127+420.828C101.406+416.571+127.445+419.432+113.291+425.757C102.275+430.68+90.3438+431.106+78.6612+431.701C77.0482+431.783+68.7453+431.897+67.8138+430.164C64.9952+424.922+81.3015+421.266+84.3825+420.962" opacity="1" fill="#568459"/>
<path d="M137.867+331.004C142.224+326.103+144.955+316.882+147.363+310.916C148.783+307.4+149.66+303.797+151.078+300.282C152.194+297.518+153.521+294.605+154.488+291.836C155.079+290.144+154.757+285.516+156.096+286.707C162.846+292.707+161.739+322.719+169.913+328.34" opacity="1" fill="#7cb474"/>
<path d="M31.4384+347.528C5.25367+343.9+45.6238+336.847+53.2987+337.176C66.6309+337.746+61.7081+345.035+51.5241+346.931C48.6614+347.464+45.75+348.006+42.8484+348.546" opacity="1" fill="#568459"/>
<path d="M79.8641+423.729C79.4313+424.358+85.1807+412.852+86.1338+410.774C89.4096+403.635+92.6622+387.447+99.4774+382.301C100.542+381.498+105.508+395.529+105.959+396.59C109.545+405.031+114.199+413.622+117.1+422.235" opacity="1" fill="#7cb474"/>
<path d="M27.3691+342.791C26.7952+343.625+29.9025+334.539+31.0843+332.156C34.9319+324.4+39.1552+316.933+43.196+309.311C44.5219+306.81+45.7679+304.404+46.9212+301.801C47.2254+301.114+47.0454+299.249+47.6642+299.674C50.5525+301.66+55.1373+326.374+57.4518+331.822C58.2364+333.67+60.1567+339.877+62.2241+339.18" opacity="1" fill="#7cb474"/>
<path d="M138.672+261.149C139.059+261.491+139.446+261.832+139.834+262.174" opacity="1" fill="#b0e1b8"/>
<path d="M10.4054+460.65C10.1974+460.984+9.98938+461.317+9.78137+461.65" opacity="1" fill="#b0e1b8"/>
<path d="M47.5988+300.262C46.5245+304.872+43.1075+311.088+40.1692+316.657C36.8352+322.976+34.0119+328.39+34.0119+328.39C34.0119+328.39+30.797+335.157+29.4086+338.676L28.538+342.056C28.538+342.056+28.5815+342.178+31.0736+341.914C33.5657+341.649+39.1366+340.72+39.1366+340.72C39.1366+340.72+39.9968+335.842+40.3721+334.508C42.1979+328.018+45.4857+314.921+45.4857+314.921L47.3361+304.827C47.3361+304.827+48.068+298.248+47.5988+300.262Z" opacity="1" fill="#4e7847"/>
<path d="M155.609+287.038C155.28+287.451+155.294+287.859+155.26+288.075C155.18+288.587+155.552+289.11+154.603+292.311C153.606+295.673+152.557+298.473+151.738+300.495C150.919+302.518+150.055+305.451+149.601+306.6C148.103+310.389+147.187+313.209+145.684+317.011C144.362+320.356+143.65+323.095+141.811+326.151C141.413+326.814+138.62+330.669+138.62+330.669L141.23+330.365L145.272+329.974L154.036+329.17L154.324+320.682L156.18+301.539C156.18+301.539+157.289+284.929+155.609+287.038Z" opacity="1" fill="#4e7847"/>
<path d="M81.1766+422.247C81.1161+422.598+81.4663+421.671+81.5772+421.5C82.1508+420.615+82.5594+419.639+83.1866+418.786C84.7034+416.724+85.5487+413.792+86.5216+411.42C89.5197+404.11+91.4046+396.327+95.1697+389.307C95.4542+388.776+99.009+383.278+99.3519+383.337C99.5759+383.376+99.337+384.371+99.3102+384.527C98.9144+386.825+97.9478+388.998+97.3884+391.266C97.3581+391.388+97.3096+391.506+97.2719+391.626C97.2289+391.764+97.1893+391.902+97.1463+392.04C97.1086+392.16+97.0687+392.28+97.0298+392.4C96.991+392.521+96.943+392.638+96.9134+392.761C95.3372+399.284+93.8118+405.824+92.235+412.35C91.6862+414.621+91.2822+416.935+90.8851+419.241C90.7452+420.053+90.6572+420.88+90.5195+421.68C90.4854+421.878+90.3103+422.652+90.4359+422.482" opacity="1" fill="#4e7847"/>
<path d="M264.345+404.226C264.615+405.116+265.077+402.512+265.549+401.715C266.556+400.017+267.465+398.018+268.237+396.199C270.725+390.338+274.539+384.936+276.623+378.891C277.384+376.685+278.358+374.51+279.213+372.341C279.495+371.624+279.663+369.62+280.136+369.105C280.169+369.068+280.236+369.031+280.276+369.06C280.565+369.274+279.401+376.513+279.263+377.369C278.238+383.696+276.698+390.063+275.202+396.289C274.699+398.382+274.803+402.663+273.553+404.422" opacity="1" fill="#4e7847"/>
<path d="M317.58+286.032C317.421+286.612+309.447+287.362+309.865+283.27C310.564+276.432+315.507+270.918+317.908+264.666C318.779+262.396+319.949+260.192+320.911+257.974C321.005+257.756+322.265+254.709+322.313+254.752C322.454+254.878+321.277+261.181+321.151+261.861C320.245+266.733+319.329+271.585+318.461+276.457C317.964+279.249+318.447+282.543+317.72+285.202" opacity="1" fill="#4e7847"/>
<path d="M414.917+288.636C414.756+288.862+406.22+289.037+405.941+288.771C405.902+288.734+407.402+286.549+407.515+286.297C408.249+284.669+408.955+283.027+409.666+281.39C412.721+274.353+413.912+262.874+419.236+257.302" opacity="1" fill="#4e7847"/>
<path d="M434.211+351.379C432.285+351.683+430.23+351.3+428.336+351.386C428.036+351.399+427.407+351.696+427.437+351.458C427.552+350.528+430.983+347.078+431.46+345.357C432.872+340.269+434.613+335.24+436.021+330.167C436.536+328.311+438.22+326.995+438.927+325.391" opacity="1" fill="#4e7847"/>
<path d="M478.365+308.055C478.358+308.083+476.042+307.898+475.694+307.869C473.213+307.662+470.758+306.897+468.275+306.69C467.979+306.666+465.977+306.548+465.946+306.181C465.924+305.905+467.545+304.699+467.795+304.443C469.116+303.094+470.121+301.039+470.954+299.351C474.12+292.933+476.761+286.261+480.146+279.948C480.614+279.075+483.318+273.358+483.899+273.11" opacity="1" fill="#4e7847"/>
<path d="M550.085+305.428C548.758+305.086+540.944+303.878+540.774+303.688C540.571+303.461+542.06+302.438+542.268+302.282C542.941+301.777+543.661+300.299+543.971+299.515C545.228+296.337+546.788+293.268+548.136+290.122C550.543+284.505+552.036+278.466+554.804+273.028C556.099+270.487+556.523+267.195+558.428+265.005" opacity="1" fill="#4e7847"/>
<path d="M619.779+321.703C616.6+321.77+613.482+320.594+610.333+320.659C609.808+320.67+607.132+321.236+606.782+320.9C606.642+320.765+608.444+318.363+608.575+318.085C609.52+316.094+610.314+314.033+611.264+312.029C616.027+301.987+623.218+293.2+627.977+283.166" opacity="1" fill="#4e7847"/>
<path d="M718.301+354.838C715.765+355.66+712.954+354.029+710.352+354.332C709.969+354.377+707.711+355.063+707.458+354.806C707.22+354.565+709.237+352.9+709.389+352.689C710.432+351.244+711.036+349.464+711.842+347.886C714.284+343.104+716.263+337.89+717.951+332.789C719.066+329.418+720.647+326.068+721.446+322.612C721.736+321.355+721.98+318.257+723.084+317.443" opacity="1" fill="#4e7847"/>
<path d="M798.173+407.315C795.546+406.807+792.626+406.596+789.952+406.504C789.703+406.496+787.512+406.609+787.447+406.476C787.406+406.393+789.493+404.129+789.699+403.784C790.888+401.79+792.014+399.581+792.901+397.435C797.053+387.38+799.066+376.466+802.623+366.179" opacity="1" fill="#4e7847"/>
<path d="M728.435+458.101C726.889+457.434+721.409+457.776+719.794+458.07C719.548+458.115+717.361+458.634+717.324+458.589C717.237+458.486+719.374+456.389+719.6+456.071C721.019+454.078+721.69+451.663+722.486+449.388C725.382+441.102+729.919+433.401+732.722+425.069C733.825+421.787+734.596+418.28+735.966+415.107" opacity="1" fill="#4e7847"/>
<path d="M654.502+395.006C654.283+395.17+654.011+395.046+653.778+394.969C651.736+394.289+649.377+393.547+647.205+393.171C646.538+393.055+645.065+393.169+644.513+392.893C644.458+392.866+645.722+390.679+645.867+390.46C646.697+389.214+647.23+387.384+647.815+386.004C649.635+381.711+651.89+377.475+653.974+373.303C654.678+371.894+655.349+370.457+656.052+369.05C656.385+368.383+657.406+367.267+657.406+367.267C657.406+367.267+656.496+369.113+656.182+370.09C655.622+371.836+655.189+373.683+654.792+375.475C653.466+381.451+652.475+386.707+653.239+392.797" opacity="1" fill="#4e7847"/>
<path d="M517.11+369.246C516.857+369.888+512.348+369.229+511.636+369.25C510.821+369.273+509.89+369.447+509.088+369.58C508.925+369.607+508.014+369.882+508.11+369.64C508.725+368.082+510.27+366.702+511.035+365.13C512.594+361.925+513.262+358.33+514.748+355.078C516.67+350.87+518.809+346.353+519.963+341.863C520.215+340.883+523.128+332.709+523.592+332.668" opacity="1" fill="#4e7847"/>
<path d="M319.385+134.219C318.356+132.499+317.326+130.778+316.297+129.058" opacity="1" fill="#b0e1b8"/>
<path d="M602.19+322.175C601.783+321.585+600.97+319.339+601.267+318.645C602.074+316.759+607.049+316.851+608.785+316.848C614.602+316.838+628.066+317.054+632.401+322.422C635.862+326.707+626.208+326.412+624.749+326.338C619.309+326.063+605.396+326.827+602.19+322.175Z" opacity="1" fill="#568459"/>
<path d="M660.838+465.137C665.824+464.127+667.883+461.74+671.954+459.09C675.862+456.547+676.554+452.666+676.773+449.938C677.214+444.432+671.157+437.785+666.096+432.994C648.618+416.451+627.572+406.086+604.103+400.501C597.637+398.962+596.159+398.983+589.617+398.03C587.49+397.72+580.567+397.086+578.4+397.138C577.445+397.16+567.583+397.098+568.207+397.82C568.474+398.129+574.977+398.06+581.585+398.978C587.094+399.743+592.799+401.491+593.889+401.941C611.046+409.021+631.366+417.134+645.865+429.15C653.418+435.41+661.742+440.917+665.021+450.453C666.542+454.876+661.207+460.674+659.171+463.593C658.998+463.842+655.714+466.538+655.751+466.582C656.019+466.891+660.614+465.182+660.838+465.137Z" opacity="1" fill="#6b96e0"/>
</g>
</svg>
